<svg id="SvgjsSvg1122" width="288" height="288" xmlns="http://www.w3.org/2000/svg" version="1.1" xmlns:xlink="http://www.w3.org/1999/xlink" xmlns:svgjs="http://svgjs.com/svgjs"><defs id="SvgjsDefs1123"></defs><g id="SvgjsG1124"><svg xmlns="http://www.w3.org/2000/svg" viewBox="0 0 32 32" width="288" height="288"><path fill="#8892b0" d="M1 3h30c.553 0 1 .485 1 1.084v23.832c0 .599-.447 1.084-1 1.084H1c-.553 0-1-.485-1-1.084V4.084C0 3.486.448 3 1 3z" class="color5b647d svgShape"></path><path fill="#f7f7f8" d="M1.938 7h28.125c.518 0 .938.392.938.875v19.25c0 .483-.42.875-.938.875H1.938C1.42 28 1 27.608 1 27.125V7.875C1 7.392 1.42 7 1.938 7z" class="colorf7f7f8 svgShape"></path><path fill="#eff0f2" d="M30 5a1 1 0 1 1-2 0 1 1 0 1 1 2 0zm-3 0a1 1 0 1 1-2 0 1 1 0 1 1 2 0zm-3 0a1 1 0 1 1-2 0 1 1 0 1 1 2 0z" class="coloreff0f2 svgShape"></path><path fill="#8892b0" d="M2.032 8h28v13h-28zM2.032 22h28v5h-28z" class="colordee0e5 svgShape"></path></svg></g></svg>