<svg id="SvgjsSvg1012" width="288" height="288" xmlns="http://www.w3.org/2000/svg" version="1.1" xmlns:xlink="http://www.w3.org/1999/xlink" xmlns:svgjs="http://svgjs.com/svgjs"><defs id="SvgjsDefs1013"></defs><g id="SvgjsG1014"><svg xmlns="http://www.w3.org/2000/svg" enable-background="new 0 0 28 28" viewBox="0 0 28 28" width="288" height="288"><path fill="#f5f5f5" d="M26.265,17.92c-0.629,3.633-11.278,3.177-17.925,2.026s-6.99-6.337-6.361-9.97s8.24-4.132,14.887-2.981S26.894,14.287,26.265,17.92z" class="colorFF7C66 svgShape"></path><path d="M21.309 18.968c-2.851 0-5.001-2.14-5.001-4.977 0-2.845 2.098-4.991 4.88-4.991C23.931 9 26 11.139 26 13.975v.745c0 .276-.224.5-.5.5h-5.76c.316.576.946.938 1.743.938.594 0 1.448-.229 1.921-.731.098-.104.249-.158.375-.157.142.003.276.067.368.174l1.126 1.312c.167.194.16.483-.016.669C23.904 18.856 21.893 18.968 21.309 18.968zM21.188 10c-2.212 0-3.88 1.716-3.88 3.991 0 2.305 1.683 3.977 4.001 3.977.436 0 1.831-.072 2.892-.925l-.487-.568c-.702.498-1.598.684-2.231.684-1.49 0-2.635-.909-2.917-2.317-.008-.039-.011-.079-.009-.119.011-.268.232-.502.5-.502H25v-.245C25 11.709 23.361 10 21.188 10zM23.439 13.783h-4.416c-.145 0-.283-.063-.378-.173-.095-.109-.138-.255-.117-.398.218-1.51 1.275-2.485 2.694-2.485 0 0 0 0 0 0 1.672.001 2.568 1.256 2.713 2.499.017.142-.028.284-.123.391C23.718 13.722 23.582 13.783 23.439 13.783zM19.674 12.783h3.13c-.229-.574-.723-1.056-1.582-1.056v-.001C20.402 11.727 19.913 12.208 19.674 12.783zM4.751 19H2.5C2.224 19 2 18.776 2 18.5V9.63c0-.276.224-.5.5-.5h2.252c.276 0 .5.224.5.5v.021c.513-.334 1.214-.628 2.097-.628 1.109 0 1.951.392 2.474 1.144.542-.543 1.425-1.144 2.688-1.144 1.956 0 3.078 1.231 3.078 3.379v6.065c0 .276-.224.5-.5.5h-2.255c-.194 0-.371-.112-.453-.288-.042-.089-.056-.188-.042-.282v-5.463c0-.873-.376-.993-.782-.993-.477 0-.841.322-1.146.665v5.879c0 .276-.224.5-.5.5H7.66c-.276 0-.5-.224-.5-.5v-5.541c0-.913-.394-.989-.763-.989-.485 0-.861.329-1.146.658V18.5C5.251 18.776 5.027 19 4.751 19zM3 18h1.251v-5.565c0-.114.039-.224.11-.313.231-.288.936-1.165 2.036-1.165 1.121 0 1.763.725 1.763 1.989v5.041h1.252v-5.565c0-.118.042-.233.118-.323.318-.375.978-1.155 2.027-1.155 1.116 0 1.782.745 1.782 1.993v5.033h1.25v-5.565c0-1.579-.699-2.379-2.078-2.379-1.333 0-2.104.927-2.375 1.326-.105.156-.286.239-.478.216-.187-.024-.345-.152-.408-.33-.288-.815-.91-1.212-1.902-1.212-1.153 0-1.883.657-2.216 1.048-.136.159-.358.218-.553.146-.197-.072-.328-.26-.328-.469V10.13H3V18z" fill="#cfcfcf" class="color000 svgShape"></path></svg></g></svg>