<svg id="SvgjsSvg1043" width="288" height="288" xmlns="http://www.w3.org/2000/svg" version="1.1" xmlns:xlink="http://www.w3.org/1999/xlink" xmlns:svgjs="http://svgjs.com/svgjs"><defs id="SvgjsDefs1044"></defs><g id="SvgjsG1045"><svg xmlns="http://www.w3.org/2000/svg" enable-background="new 0 0 64 64" viewBox="0 0 64 64" width="288" height="288"><path d="M54.77,0H9.23c-0.9,0-1.64,0.73-1.64,1.63v10.88c0,0.9,0.74,1.63,1.64,1.63h45.54c0.9,0,1.64-0.73,1.64-1.63V1.63
		C56.41,0.73,55.67,0,54.77,0z M14.78,9.66c-1.42,0-2.58-1.16-2.58-2.58s1.16-2.58,2.58-2.58s2.58,1.16,2.58,2.58
		S16.2,9.66,14.78,9.66z M25.65,9.66c-1.42,0-2.58-1.16-2.58-2.58s1.16-2.58,2.58-2.58s2.58,1.16,2.58,2.58S27.07,9.66,25.65,9.66z
		 M51.21,7.67h-9.39c-0.33,0-0.6-0.27-0.6-0.6c0-0.33,0.26-0.6,0.6-0.6h9.39c0.33,0,0.6,0.26,0.6,0.6
		C51.81,7.41,51.54,7.67,51.21,7.67z" fill="#8892b0" class="color000 svgShape"></path><circle cx="14.78" cy="7.08" r="1.39" fill="#8892b0" class="color000 svgShape"></circle><circle cx="25.65" cy="7.08" r="1.39" fill="#8892b0" class="color000 svgShape"></circle><path d="M54.77,15.33H9.23c-0.9,0-1.64,0.74-1.64,1.64v10.88c0,0.9,0.74,1.63,1.64,1.63h45.54c0.9,0,1.64-0.73,1.64-1.63V16.97
		C56.41,16.07,55.67,15.33,54.77,15.33z M14.78,25c-1.42,0-2.58-1.16-2.58-2.58s1.16-2.58,2.58-2.58s2.58,1.16,2.58,2.58
		S16.2,25,14.78,25z M25.65,25c-1.42,0-2.58-1.16-2.58-2.58s1.16-2.58,2.58-2.58s2.58,1.16,2.58,2.58S27.07,25,25.65,25z
		 M51.21,23.02h-9.39c-0.33,0-0.6-0.27-0.6-0.6c0-0.33,0.26-0.6,0.6-0.6h9.39c0.33,0,0.6,0.26,0.6,0.6
		C51.81,22.75,51.54,23.02,51.21,23.02z" fill="#8892b0" class="color000 svgShape"></path><circle cx="25.65" cy="22.42" r="1.39" fill="#8892b0" class="color000 svgShape"></circle><circle cx="14.78" cy="22.42" r="1.39" fill="#8892b0" class="color000 svgShape"></circle><path d="M54.77,30.68H9.23c-0.9,0-1.64,0.74-1.64,1.64V43.2c0,0.9,0.74,1.63,1.64,1.63h21.08v10.6c-1.1,0.45-1.97,1.32-2.42,2.42
		H14.74c-0.93,0-1.69,0.76-1.69,1.69c0,0.93,0.76,1.69,1.69,1.69h13.14C28.55,62.85,30.14,64,32,64c1.86,0,3.45-1.15,4.11-2.77
		h13.14c0.93,0,1.69-0.76,1.69-1.69c0-0.93-0.76-1.69-1.69-1.69H36.11c-0.45-1.1-1.32-1.97-2.42-2.42v-10.6h21.08
		c0.9,0,1.64-0.73,1.64-1.63V32.32C56.41,31.41,55.67,30.68,54.77,30.68z M14.78,40.34c-1.42,0-2.58-1.16-2.58-2.58
		s1.16-2.58,2.58-2.58s2.58,1.16,2.58,2.58S16.2,40.34,14.78,40.34z M25.65,40.34c-1.42,0-2.58-1.16-2.58-2.58s1.16-2.58,2.58-2.58
		s2.58,1.16,2.58,2.58S27.07,40.34,25.65,40.34z M51.21,38.35h-9.39c-0.33,0-0.6-0.26-0.6-0.6c0-0.33,0.27-0.6,0.6-0.6h9.39
		c0.33,0,0.6,0.26,0.6,0.6C51.81,38.09,51.54,38.35,51.21,38.35z" fill="#8892b0" class="color000 svgShape"></path><circle cx="25.65" cy="37.75" r="1.39" fill="#8892b0" class="color000 svgShape"></circle><circle cx="14.78" cy="37.75" r="1.39" fill="#8892b0" class="color000 svgShape"></circle></svg></g></svg>