<?xml version="1.0" encoding="UTF-8"?>
<svg id="Layer_2" data-name="Layer 2" xmlns="http://www.w3.org/2000/svg" viewBox="0 0 388.32 402.32">
  <defs>
    <style>
      .cls-1 {
        fill: #56dfff;
      }
    </style>
  </defs>
  <g id="Layer_1-2" data-name="Layer 1">
    <g>
      <path class="cls-1" d="M378.41,167.28c13.22,13.22,13.22,34.65,0,47.87l-99.79,99.79-5.96,5.96-61.57,61.57-16.92,16.92h0c-6.25,6.25-16.92,1.82-16.92-7.01V220.98l21.54,5.54c7.24,1.86,12.3,8.39,12.3,15.87v92.21l19.67-19.67,22.29-22.29c12.56-12.56,19.62-29.6,19.62-47.37V85.46c0-8.83,10.68-13.25,16.92-7.01l88.83,88.83h0Z"/>
      <path class="cls-1" d="M211.09,181.33l-21.54-5.54c-7.24-1.86-12.3-8.39-12.3-15.87V67.71l-41.95,41.95c-12.56,12.56-19.62,29.6-19.62,47.37v159.82c0,8.83-10.68,13.25-16.92,7.01L9.91,235.04c-13.22-13.22-13.22-34.65,0-47.87L109.7,87.38h0l5.96-5.96h0s61.57-61.57,61.57-61.57h0S194.16,2.92,194.16,2.92h0c6.24-6.25,16.92-1.82,16.92,7.01V181.33Z"/>
    </g>
  </g>
</svg>