<svg xmlns="http://www.w3.org/2000/svg" viewBox="0 0 36 36"><path fill="#EFEFEF" d="M13.411 34.999c6.298-2.859 12.105-1.559 15.14-2.936 3.035-1.378 8.617-6.016 2.28-19.978S14.99-.035 11.651 1.48c-15.632 7.095-9.395 38.582 1.76 33.519z"/><path fill="#A4AFC1" d="m2.447 22.13.707-.707 1.414 1.414-.707.707zM6.512 26.195l.707-.707 1.414 1.414-.707.707zM2.27 26.903l1.414-1.414.707.707-1.414 1.414zM30.25 10.75c-.827 0-1.5-.673-1.5-1.5s.673-1.5 1.5-1.5 1.5.673 1.5 1.5-.673 1.5-1.5 1.5zm0-2a.5.5 0 1 0 0 1 .5.5 0 0 0 0-1z"/><path d="M12.306 18.277c-.143-.071-1.393-.77-1.393-3.355 0-.222.01-.448.021-.674.028-.606.058-1.233-.179-1.481-.162-.169-.524-.259-1.048-.259-.94 0-1.262.514-1.295.573l-1.331-.692c.259-.513 1.104-1.381 2.626-1.381.971 0 1.669.237 2.134.724.68.712.633 1.708.592 2.587-.009.202-.019.405-.019.604 0 1.619.593 2.028.599 2.032l-.707 1.322z"/><path d="M9.707 18.355C7.911 18.355 7 17.611 7 16.142c0-1.454 1.361-2.214 2.707-2.214 1.704 0 2.382.625 2.501.751l-1.061 1.06c-.003-.003-.382-.311-1.44-.311-.466 0-1.207.194-1.207.714 0 .415 0 .714 1.207.714.942 0 1.383-.993 1.388-1.003l1.384.579c-.034.078-.828 1.923-2.772 1.923zm10.739 0a.75.75 0 0 1-.711-.512l-1.245-3.727-1.245 3.727a.75.75 0 0 1-1.422 0l-1.957-5.855 1.423-.476 1.245 3.727 1.245-3.727a.749.749 0 0 1 1.421 0l1.246 3.728 1.245-3.721 1.423.476-1.957 5.848a.749.749 0 0 1-.711.512zm6.409 0h-1.518v-1.5h1.518a.666.666 0 0 0 .211-1.3l-.997-.332a2.162 2.162 0 0 1-1.482-2.053c0-1.193.972-2.164 2.167-2.164h1.518v1.5h-1.518a.662.662 0 0 0-.211 1.293l.997.332a2.169 2.169 0 0 1-.685 4.224zM17.755 26c-7.805 0-11.468-5.114-11.62-5.332l-.43-.615 1.229-.859.43.615c.134.19 3.396 4.691 10.391 4.691 5.158 0 9.463-3.781 9.506-3.819l.56-.499.998 1.121-.561.499c-.192.171-4.78 4.198-10.503 4.198z"/><path d="m28.798 24.711-1.456-.359.881-3.571-3.522.882-.364-1.455 4.731-1.185a.75.75 0 0 1 .91.907l-1.18 4.781z"/></svg>