<svg id="SvgjsSvg1017" width="288" height="288" xmlns="http://www.w3.org/2000/svg" version="1.1" xmlns:xlink="http://www.w3.org/1999/xlink" xmlns:svgjs="http://svgjs.com/svgjs"><defs id="SvgjsDefs1018"></defs><g id="SvgjsG1019"><svg xmlns="http://www.w3.org/2000/svg" viewBox="0 0 36 36" width="288" height="288"><path fill="#efefef" d="M27.417 3.914C20.502 4.043 15.685.549 12.353.612S2.057 2.721 2.344 18.052s9.744 17.404 13.41 17.336c17.163-.321 23.911-31.703 11.663-31.474z" class="colorEFEFEF svgShape"></path><path fill="#a4afc1" d="M19.875 3.562h2v1h-2zM14.125 3.562h2v1h-2zM17.625.062h1v2h-1zM25.831 30.75c-.827 0-1.5-.673-1.5-1.5s.673-1.5 1.5-1.5 1.5.673 1.5 1.5-.673 1.5-1.5 1.5zm0-2a.5.5 0 1 0 0 1 .5.5 0 0 0 0-1z" class="colorA4AFC1 svgShape"></path><path fill="#d53a30" d="m18 6.75 11.25 3.913-1.957 13.696L18 29.25l-9.293-4.891L6.75 10.663z" class="color2FDF84 svgShape"></path><path fill="#d53a30" d="M10.957 24.359 9 10.663l10.125-3.522L18 6.75 6.75 10.663l1.957 13.696L18 29.25l1.125-.592z" class="color00B871 svgShape"></path><path d="M18 30a.754.754 0 0 1-.349-.086l-9.293-4.891a.752.752 0 0 1-.394-.558L6.007 10.769a.75.75 0 0 1 .496-.814l11.25-3.913a.744.744 0 0 1 .493 0l11.25 3.913a.75.75 0 0 1 .496.814l-1.957 13.696a.752.752 0 0 1-.394.558l-9.293 4.891A.747.747 0 0 1 18 30zm-8.605-6.126L18 28.402l8.605-4.529 1.815-12.705L18 7.544 7.58 11.168l1.815 12.706z" fill="#000000" class="color000 svgShape"></path><path d="m23.584 23.573-5.583-12.048-5.556 12.046-1.362-.628 6.235-13.52a.75.75 0 0 1 1.363 0l6.265 13.52-1.362.63z" fill="#000000" class="color000 svgShape"></path><path d="M13.612 18.502h8.796v1.5h-8.796z" fill="#000000" class="color000 svgShape"></path></svg></g></svg>