<svg id="SvgjsSvg1196" width="288" height="288" xmlns="http://www.w3.org/2000/svg" version="1.1" xmlns:xlink="http://www.w3.org/1999/xlink" xmlns:svgjs="http://svgjs.com/svgjs"><defs id="SvgjsDefs1197"></defs><g id="SvgjsG1198"><svg xmlns="http://www.w3.org/2000/svg" viewBox="0 0 36 36" width="288" height="288"><path fill="#efefef" d="M8.114 5.564C6.309 12.241 1.61 15.891.74 19.109s-.847 10.475 13.955 14.477 19.432-4.501 20.388-8.041C39.564 8.973 11.311-6.262 8.114 5.564z" class="colorEFEFEF svgShape"></path><path fill="#a4afc1" d="M31 6.5c-.827 0-1.5-.673-1.5-1.5s.673-1.5 1.5-1.5 1.5.673 1.5 1.5-.673 1.5-1.5 1.5zm0-2a.5.5 0 1 0 .002 1.002A.5.5 0 0 0 31 4.5zM3.5 0h1v2h-1zM3.5 5.75h1v2h-1zM0 3.25h2v1H0zM5.75 3.25h2v1h-2z" class="colorA4AFC1 svgShape"></path><path fill="#f3f3f1" d="M27.375 6.75H8.625A1.875 1.875 0 0 0 6.75 8.625v18.75c0 1.036.84 1.875 1.875 1.875h18.75a1.875 1.875 0 0 0 1.875-1.875V8.625c0-1.036-.84-1.875-1.875-1.875z" class="colorF3F3F1 svgShape"></path><path fill="#7532f9" d="M23.485 22.473v.002a3.015 3.015 0 0 1-.919 1.19c-.418.328-.948.598-1.6.791-.651.196-1.425.294-2.322.294h-6.402v-13.5h6.771c1.252 0 2.255.273 3.006.829.756.559 1.133 1.392 1.133 2.517 0 .68-.171 1.263-.516 1.745-.342.479-.836.854-1.473 1.115v.044c.85.174 1.508.564 1.941 1.172.433.607.655 1.375.655 2.302 0 .519-.104 1.012-.299 1.473l.025.026z" class="color2FDF84 svgShape"></path><path fill="#f3f3f1" d="M20.639 19.22c-.399-.296-.96-.44-1.685-.44h-4.209v3.447h4.221c.721 0 1.285-.151 1.685-.458.399-.304.604-.737.604-1.294-.007-.545-.204-.966-.604-1.255h-.012zm-.926-3.355h.004c.36-.261.536-.634.536-1.121 0-.547-.159-.935-.482-1.157-.32-.221-.782-.336-1.389-.336h-3.637v3h3.637c.53-.001.982-.133 1.331-.386z" class="colorF3F3F1 svgShape"></path><path fill="#d5dbe1" d="M9 27.375V8.625c0-1.036.84-1.875 1.875-1.875h-2.25A1.875 1.875 0 0 0 6.75 8.625v18.75c0 1.036.84 1.875 1.875 1.875h2.25A1.875 1.875 0 0 1 9 27.375z" class="colorD5DBE1 svgShape"></path><path fill="#6610f2" d="M12.242 11.25h2.25v13.5h-2.25z" class="color00B871 svgShape"></path><path fill="#d5dbe1" d="M14.745 18.78h2.25v3.447h-2.25zM14.745 13.25h2.25v3h-2.25z" class="colorD5DBE1 svgShape"></path><path d="M27.375 30H8.625A2.629 2.629 0 0 1 6 27.375V8.625A2.629 2.629 0 0 1 8.625 6h18.75A2.629 2.629 0 0 1 30 8.625v18.75A2.629 2.629 0 0 1 27.375 30zM8.625 7.5c-.62 0-1.125.505-1.125 1.125v18.75c0 .62.505 1.125 1.125 1.125h18.75c.62 0 1.125-.505 1.125-1.125V8.625c0-.62-.505-1.125-1.125-1.125H8.625z" fill="#000000" class="color000 svgShape"></path><path d="M18.644 25.5h-6.402a.75.75 0 0 1-.75-.75v-13.5a.75.75 0 0 1 .75-.75h6.771c1.416 0 2.577.329 3.452.977.953.706 1.437 1.755 1.437 3.12 0 .837-.221 1.571-.655 2.181a3.71 3.71 0 0 1-.487.554c.377.24.696.543.955.906.527.741.795 1.661.795 2.737 0 .542-.095 1.071-.282 1.576a.663.663 0 0 1-.053.218 3.772 3.772 0 0 1-1.147 1.489c-.504.396-1.126.706-1.848.919-.716.214-1.57.323-2.536.323zM12.991 24h5.652c.819 0 1.528-.088 2.106-.262.542-.16.996-.383 1.353-.663.256-.2.466-.451.615-.733a.723.723 0 0 1 .052-.188c.159-.375.239-.772.239-1.181 0-.757-.174-1.385-.517-1.866-.315-.443-.813-.736-1.479-.872a.75.75 0 0 1-.601-.735c0-.305.185-.624.467-.739.501-.205.887-.493 1.146-.856.253-.354.376-.783.376-1.309 0-.887-.264-1.496-.829-1.914-.61-.453-1.47-.682-2.558-.682h-6.021v12z" fill="#000000" class="color000 svgShape"></path><path d="M18.966 22.977h-4.221a.75.75 0 0 1-.75-.75V18.78a.75.75 0 0 1 .75-.75h4.209c.852 0 1.521.172 2.044.525a.851.851 0 0 1 .094.058c.588.426.903 1.066.913 1.853 0 .797-.311 1.451-.898 1.9-.53.405-1.25.611-2.141.611zm-3.471-1.5h3.471c.554 0 .967-.102 1.229-.303.145-.111.31-.289.31-.699-.004-.338-.122-.505-.241-.606a.65.65 0 0 1-.07-.046c-.263-.194-.68-.293-1.239-.293h-3.459v1.947zM18.382 17h-3.637a.75.75 0 0 1-.75-.75v-3a.75.75 0 0 1 .75-.75h3.637c.755 0 1.366.158 1.816.47.366.252.805.766.805 1.774 0 .73-.293 1.328-.847 1.729-.019.013-.037.026-.056.037-.467.321-1.06.49-1.718.49zm-2.887-1.5h2.887c.37 0 .669-.082.89-.242l.038-.026c.104-.084.193-.209.193-.489 0-.161-.021-.445-.157-.54-.135-.093-.411-.203-.964-.203h-2.887v1.5z" fill="#000000" class="color000 svgShape"></path></svg></g></svg>