<svg id="SvgjsSvg1094" width="288" height="288" xmlns="http://www.w3.org/2000/svg" version="1.1" xmlns:xlink="http://www.w3.org/1999/xlink" xmlns:svgjs="http://svgjs.com/svgjs"><defs id="SvgjsDefs1095"></defs><g id="SvgjsG1096"><svg xmlns="http://www.w3.org/2000/svg" viewBox="0 0 36 36" width="288" height="288"><path fill="#efefef" d="M4.167 27.623c0-6.917-3.583-11.667-3.583-15S2.5 2.29 17.833 2.29s17.583 9.417 17.583 13.083c.001 17.167-31.249 24.5-31.249 12.25z" class="colorEFEFEF svgShape"></path><path fill="#a4afc1" d="M30 26.75c-.827 0-1.5-.673-1.5-1.5s.673-1.5 1.5-1.5 1.5.673 1.5 1.5-.673 1.5-1.5 1.5zm0-2a.5.5 0 1 0 .002 1.002A.5.5 0 0 0 30 24.75zM5.553 27.669h2v1h-2zM-.197 27.669h2v1h-2zM3.303 24.169h1v2h-1zM3.303 29.919h1v2h-1z" class="colorA4AFC1 svgShape"></path><path fill="#409ad7" d="M10.621 6.75H29.25l-3.39 18.5-9.433 4-9.677-4 .968-4.755h4.838l-.723 2.755 4.594 2 5.562-2 1.213-5.696h-15l.967-4H23.93l.723-2.922-15 .062z" class="color2FDF84 svgShape"></path><path fill="#2161b0" d="m26.903 10.632-2.252.009-.721 2.913h2.25zM24.239 23.25l1.213-5.696h-2.25l-1.213 5.696-4.329 1.557 1.017.443zM12.871 6.75h-2.25l-.968 3.944 2.253-.009zM11.419 13.554h-2.25l-.967 4h2.25zM9 25.25l.968-4.755h-2.25L6.75 25.25l9.677 4 1.111-.471z" class="color00B871 svgShape"></path><path d="M16.428 30a.745.745 0 0 1-.286-.057l-9.678-4a.75.75 0 0 1-.449-.843l.968-4.755a.75.75 0 0 1 .735-.601h4.839a.751.751 0 0 1 .726.94l-.561 2.134 3.732 1.625 4.889-1.758.932-4.381H8.201a.75.75 0 0 1-.729-.926l.968-4a.75.75 0 0 1 .729-.574h14.174l.352-1.418-14.039.058c-.227.022-.449-.104-.592-.286a.75.75 0 0 1-.14-.643l.968-3.944A.751.751 0 0 1 10.621 6H29.25a.748.748 0 0 1 .737.885l-3.39 18.5a.747.747 0 0 1-.444.555l-9.433 4a.741.741 0 0 1-.292.06zm-8.82-5.207 8.815 3.644 8.771-3.72L28.35 7.5H11.209l-.599 2.44 14.04-.059c.265.021.45.105.593.287s.193.419.138.644l-.724 2.922a.749.749 0 0 1-.728.57H9.759l-.604 2.5h14.047a.75.75 0 0 1 .733.906l-1.212 5.696a.749.749 0 0 1-.479.549l-5.562 2a.752.752 0 0 1-.554-.018l-4.595-2a.75.75 0 0 1-.426-.878l.477-1.815H8.33l-.722 3.549z" fill="#000000" class="color000 svgShape"></path></svg></g></svg>