<svg id="SvgjsSvg1015" width="288" height="288" xmlns="http://www.w3.org/2000/svg" version="1.1" xmlns:xlink="http://www.w3.org/1999/xlink" xmlns:svgjs="http://svgjs.com/svgjs"><defs id="SvgjsDefs1016"></defs><g id="SvgjsG1017"><svg xmlns="http://www.w3.org/2000/svg" viewBox="0 0 36 36" width="288" height="288"><path fill="#efefef" d="M7.678 5.564C5.873 12.241 1.174 15.891.304 19.109s-.847 10.475 13.955 14.477 19.432-4.501 20.388-8.041C39.128 8.973 10.875-6.262 7.678 5.564z" class="colorEFEFEF svgShape"></path><path fill="#a4afc1" d="M19.933 3.812h2v1h-2zM14.183 3.812h2v1h-2zM17.683.312h1v2h-1zM6.53 30.5c-.827 0-1.5-.673-1.5-1.5s.673-1.5 1.5-1.5 1.5.673 1.5 1.5-.673 1.5-1.5 1.5zm0-2a.5.5 0 1 0 .002 1.002.5.5 0 0 0-.002-1.002z" class="colorA4AFC1 svgShape"></path><path fill="#0069ff" d="M10.329 24.905h3.338v3.337h-3.338z" class="color2FDF84 svgShape"></path><path fill="#f3f3f1" d="M18 24.905v4.345c7.367 0 13.101-7.116 10.692-14.836a10.877 10.877 0 0 0-7.107-7.106C13.866 4.898 6.75 10.635 6.75 18h4.357c0-4.624 4.575-8.198 9.441-6.433a6.523 6.523 0 0 1 3.891 3.887c1.761 4.859-1.805 9.431-6.424 9.437l-.015.014z" class="colorF3F3F1 svgShape"></path><path fill="#0069ff" d="M7.53 22.106v2.799h2.799v-2.799zM13.669 20.559v4.346H18l.015-.014v-4.332z" class="color2FDF84 svgShape"></path><path fill="#0069ff" d="M10.329 24.905h2.25v3.337h-2.25z" class="color00B871 svgShape"></path><path fill="#d5dbe1" d="m20.25 24.905.014-.014c4.619-.006 8.185-4.578 6.424-9.437a6.523 6.523 0 0 0-3.891-3.887 7.236 7.236 0 0 0-3.683-.358c.473.074.951.183 1.433.358a6.523 6.523 0 0 1 3.891 3.887c1.761 4.859-1.805 9.431-6.424 9.437l-.014.014v4.345c.772 0 1.521-.095 2.25-.244v-4.101zM19.133 6.823C12.424 6.165 6.75 11.425 6.75 18H9c0-5.824 4.455-10.612 10.133-11.177z" class="colorD5DBE1 svgShape"></path><path fill="#0069ff" d="M13.669 20.559h2.25v4.345h-2.25z" class="color00B871 svgShape"></path><path d="M13.666 28.992h-3.338a.75.75 0 0 1-.75-.75v-3.337a.75.75 0 0 1 .75-.75h3.338a.75.75 0 0 1 .75.75v3.337a.75.75 0 0 1-.75.75zm-2.588-1.5h1.838v-1.837h-1.838v1.837z" fill="#000000" class="color000 svgShape"></path><path d="M18 30a.75.75 0 0 1-.75-.75v-3.595h-3.581a.75.75 0 0 1-.75-.75V20.56a.75.75 0 0 1 .75-.75h4.346a.75.75 0 0 1 .75.75v3.534a6.156 6.156 0 0 0 4.273-2.579c1.173-1.674 1.426-3.79.695-5.806a5.806 5.806 0 0 0-3.441-3.437c-2.019-.732-4.137-.479-5.811.695A6.155 6.155 0 0 0 11.856 18a.75.75 0 0 1-.75.75H6.75A.75.75 0 0 1 6 18c0-3.798 1.834-7.414 4.905-9.673 3.119-2.293 7.094-2.925 10.904-1.735a11.58 11.58 0 0 1 7.599 7.598c1.19 3.813.558 7.788-1.736 10.906A12.054 12.054 0 0 1 18 30zm.75-4.396v2.869a10.558 10.558 0 0 0 7.714-4.265c2.008-2.729 2.559-6.217 1.513-9.57a10.08 10.08 0 0 0-6.614-6.614c-3.353-1.047-6.839-.496-9.568 1.512a10.566 10.566 0 0 0-4.267 7.714h2.866a7.663 7.663 0 0 1 3.228-5.511c2.079-1.459 4.697-1.779 7.183-.877a7.232 7.232 0 0 1 4.34 4.335c.899 2.482.58 5.099-.877 7.178a7.664 7.664 0 0 1-5.518 3.229zm-4.331-1.449h2.846V21.31h-2.846v2.845z" fill="#000000" class="color000 svgShape"></path><path d="M10.328 25.655H7.534a.754.754 0 0 1-.754-.75v-2.798a.75.75 0 0 1 .75-.75h2.798a.75.75 0 0 1 .75.75v2.798a.75.75 0 0 1-.75.75zm-2.048-1.5h1.298v-1.298H8.28v1.298z" fill="#000000" class="color000 svgShape"></path></svg></g></svg>