<svg id="SvgjsSvg1030" width="288" height="288" xmlns="http://www.w3.org/2000/svg" version="1.1" xmlns:xlink="http://www.w3.org/1999/xlink" xmlns:svgjs="http://svgjs.com/svgjs"><defs id="SvgjsDefs1031"></defs><g id="SvgjsG1032"><svg xmlns="http://www.w3.org/2000/svg" viewBox="0 0 36 36" width="288" height="288"><path fill="#efefef" d="M11.532 34.802c6.645-1.919 12.203.206 15.405-.719s9.396-4.708 5.142-19.44S18.155.363 14.632 1.38c-16.493 4.763-14.869 36.821-3.1 33.422z" class="colorEFEFEF svgShape"></path><path fill="#a4afc1" d="M8.505 10.307 9.92 8.892l.707.707-1.415 1.415zM4.44 14.373l1.414-1.415.707.707-1.415 1.415zM4.44 9.422l.706-.707 1.415 1.415-.707.707zM28.162 30.5c-.827 0-1.5-.673-1.5-1.5s.673-1.5 1.5-1.5 1.5.673 1.5 1.5-.673 1.5-1.5 1.5zm0-2a.5.5 0 1 0 .002 1.002.5.5 0 0 0-.002-1.002z" class="colorA4AFC1 svgShape"></path><path fill="#0c4b33" d="m26.25 12.428-3.581-.001v7.268c0 3.203-.162 4.423-.674 5.474-.488 1.028-1.256 1.698-2.837 2.463l3.326 1.626c1.581-.812 2.349-1.554 2.93-2.725.628-1.219.837-2.63.837-5.57v-8.535z" class="color2FDF84 svgShape"></path><path fill="#f3f3f1" d="M20.25 23.769V6.758h-3.644v5.604a5.783 5.783 0 0 0-1.585-.191c-3.81 0-6.271 2.434-6.271 6.181 0 3.89 2.319 5.919 6.768 5.919 1.49-.001 2.863-.144 4.732-.502zm-7.785-5.489c0-2.005 1.064-3.15 2.91-3.15h-.004l.077-.001c.414 0 .812.07 1.157.192v5.894c-.52.072-.852.096-1.254.096-1.868-.001-2.886-1.074-2.886-3.031z" class="colorF3F3F1 svgShape"></path><path fill="#0c4b33" d="M22.669 6.762h3.581v3.777h-3.581z" class="color2FDF84 svgShape"></path><path fill="#0c4b33" d="M21.407 27.632c1.582-.765 2.349-1.435 2.837-2.463.512-1.052.674-2.271.674-5.474v-7.268h-2.25v7.268c0 3.203-.162 4.423-.674 5.474-.488 1.028-1.256 1.698-2.837 2.463l3.326 1.626c.39-.201.73-.397 1.031-.596l-2.107-1.03z" class="color00B871 svgShape"></path><path fill="#d5dbe1" d="M11 18.352c0-3.34 1.958-5.631 5.081-6.091a6.238 6.238 0 0 0-1.061-.09c-3.81 0-6.271 2.434-6.271 6.181 0 3.89 2.319 5.919 6.768 5.919.471 0 .934-.02 1.401-.051C13.041 23.964 11 21.979 11 18.352z" class="colorD5DBE1 svgShape"></path><path fill="#d5dbe1" d="M17.602 21.31c.402 0 .734-.023 1.254-.096V15.32a3.504 3.504 0 0 0-1.157-.192l-.077.001h.004c-.406 0-.766.065-1.094.172.024.008.051.011.074.019v5.854c.301.082.627.136.996.136zm-.331-9.139c.592 0 1.041.048 1.585.191V6.758h-2.25v5.44c.217-.017.438-.027.665-.027z" class="colorD5DBE1 svgShape"></path><path fill="#0c4b33" d="M22.669 6.762h2.25v3.777h-2.25z" class="color00B871 svgShape"></path><path d="M22.482 30.008a.745.745 0 0 1-.329-.076l-3.325-1.625a.749.749 0 0 1 .003-1.349c1.422-.688 2.072-1.239 2.486-2.11.462-.948.602-2.15.602-5.152v-7.268a.75.75 0 0 1 .75-.75h3.581c.414 0 .75.337.75.751v8.535c0 3.086-.232 4.579-.92 5.914-.658 1.327-1.572 2.185-3.255 3.048a.763.763 0 0 1-.343.082zm-1.705-2.419 1.691.827c1.183-.65 1.796-1.256 2.272-2.217.568-1.104.759-2.422.759-5.237v-7.785l-2.081-.001v6.518c0 3.306-.168 4.608-.749 5.803-.401.846-.972 1.49-1.892 2.092z" fill="#000000" class="color000 svgShape"></path><path d="M15.518 25.021C10.67 25.021 8 22.652 8 18.352c0-4.146 2.821-6.931 7.021-6.931.305 0 .576.013.836.041V6.758a.75.75 0 0 1 .75-.75h3.644a.75.75 0 0 1 .75.75V23.77c0 .36-.256.669-.609.737-1.912.365-3.324.514-4.874.514zm-.497-12.1c-3.405 0-5.521 2.081-5.521 5.431 0 3.478 1.969 5.168 6.018 5.168 1.282 0 2.472-.11 3.982-.376V7.508h-2.144v4.854a.748.748 0 0 1-.94.726 4.994 4.994 0 0 0-1.395-.167zm.332 9.139c-2.277 0-3.637-1.413-3.637-3.78 0-2.404 1.399-3.897 3.653-3.9h.003c-.01-.001.07-.001.077-.001.483 0 .97.081 1.406.234a.75.75 0 0 1 .501.708v5.895a.75.75 0 0 1-.647.743 9.339 9.339 0 0 1-1.356.101zm.023-6.181c-1.434 0-2.16.808-2.16 2.4 0 1.556.679 2.28 2.137 2.28.177 0 .336-.005.504-.017v-4.636c-.143-.02-.289-.019-.434-.029-.016.002-.031.002-.047.002zM26.25 11.289h-3.581a.75.75 0 0 1-.75-.75V6.762a.75.75 0 0 1 .75-.75h3.581a.75.75 0 0 1 .75.75v3.777a.75.75 0 0 1-.75.75zm-2.831-1.5H25.5V7.512h-2.081v2.277z" fill="#000000" class="color000 svgShape"></path></svg></g></svg>