<svg id="SvgjsSvg1020" width="288" height="288" xmlns="http://www.w3.org/2000/svg" version="1.1" xmlns:xlink="http://www.w3.org/1999/xlink" xmlns:svgjs="http://svgjs.com/svgjs"><defs id="SvgjsDefs1021"></defs><g id="SvgjsG1022"><svg xmlns="http://www.w3.org/2000/svg" viewBox="0 0 36 36" width="288" height="288"><path fill="#efefef" d="M8.377 31.833c6.917 0 11.667 3.583 15 3.583S33.71 33.5 33.71 18.167 24.293.583 20.627.583c-17.167 0-24.5 31.25-12.25 31.25z" class="colorEFEFEF svgShape"></path><path fill="#a4afc1" d="m21.605 9.475.707-.707 1.414 1.414-.707.707zM17.54 5.41l.707-.707 1.414 1.414-.707.707zM21.782 6.117l1.415-1.415.707.707-1.415 1.415zM5.75 28.75c-.827 0-1.5-.673-1.5-1.5s.673-1.5 1.5-1.5 1.5.673 1.5 1.5-.673 1.5-1.5 1.5zm0-2a.5.5 0 1 0 0 1 .5.5 0 0 0 0-1z" class="colorA4AFC1 svgShape"></path><path fill="#f3f3f1" d="M28.951 17.452c.052-.088.232-.466.299-.604l-.467-.314v.001c-.506-.342-1.673-.466-2.57-.296-.116-.847-.587-1.584-1.445-2.247l-.492-.328-.327.494c-.646.981-.823 2.596-.13 3.662-.306.166-.907.391-1.702.378H6.836c-.306 1.792.204 4.12 1.547 5.718 1.304 1.549 3.258 2.335 5.814 2.335 5.533 0 9.628-2.557 11.544-7.203.753.013 2.377.003 3.21-1.596z" class="colorF3F3F1 svgShape"></path><path fill="#38b0d9" d="M7.729 15.378h14.184v2.814H7.729zM10.174 12.564h8.804v2.814h-8.804z" class="color2FDF84 svgShape"></path><path fill="#38b0d9" d="M16.043 9.75h2.935v8.441h-2.935z" class="color2FDF84 svgShape"></path><path fill="#38b0d9" d="M13.109 12.564h2.935v5.628h-2.935zM10.174 15.378h2.935v2.814h-2.935z" class="color2FDF84 svgShape"></path><path fill="#d5dbe1" d="M24.367 18.197c.795.014 1.396-.212 1.702-.378-.503-.774-.544-1.837-.283-2.737a4.185 4.185 0 0 0-1.019-1.09l-.492-.328-.327.494c-.646.98-.823 2.596-.13 3.662-.306.166-.907.391-1.702.378h2.251zm-13.734 5.718c-1.343-1.598-1.853-3.926-1.547-5.718h-2.25c-.306 1.792.204 4.12 1.547 5.718 1.304 1.549 3.258 2.335 5.814 2.335.418 0 .825-.02 1.227-.049-2.058-.187-3.667-.951-4.791-2.286z" class="colorD5DBE1 svgShape"></path><path d="M14.197 27c-2.785 0-4.935-.875-6.388-2.602-1.389-1.652-2.077-4.194-1.713-6.327a.75.75 0 0 1 .739-.624h15.281c.264.007.489-.021.682-.061-.391-1.266-.08-2.726.523-3.642l.329-.496a.753.753 0 0 1 1.041-.21l.492.328c.801.617 1.329 1.301 1.598 2.054.862-.041 1.84.099 2.421.492l.465.312a.75.75 0 0 1 .257.951l-.051.106a19.96 19.96 0 0 1-.26.523c-.876 1.672-2.452 1.95-3.378 1.988C24.12 24.446 19.865 27 14.197 27zm-6.691-8.053c-.085 1.575.463 3.31 1.452 4.485 1.155 1.372 2.917 2.067 5.24 2.067 5.205 0 9.059-2.393 10.851-6.739a.752.752 0 0 1 .708-.464c.932.022 1.961-.108 2.526-1.184-.337-.155-1.18-.276-1.931-.137a.748.748 0 0 1-.882-.634c-.081-.59-.405-1.121-.988-1.616-.406.742-.533 1.917-.034 2.686a.753.753 0 0 1-.272 1.069c-.272.147-1.011.5-2.071.468H7.506z" fill="#000000" class="color000 svgShape"></path><path d="M21.913 18.941H7.729a.75.75 0 0 1-.75-.75v-2.814a.75.75 0 0 1 .75-.75h14.184a.75.75 0 0 1 .75.75v2.814a.75.75 0 0 1-.75.75zm-13.434-1.5h12.684v-1.314H8.479v1.314z" fill="#000000" class="color000 svgShape"></path><path d="M18.978 16.127h-8.804a.75.75 0 0 1-.75-.75v-2.813a.75.75 0 0 1 .75-.75h8.804a.75.75 0 0 1 .75.75v2.813a.75.75 0 0 1-.75.75zm-8.054-1.5h7.304v-1.313h-7.304v1.313z" fill="#000000" class="color000 svgShape"></path><path d="M18.978 18.941h-2.935a.75.75 0 0 1-.75-.75V9.75a.75.75 0 0 1 .75-.75h2.935a.75.75 0 0 1 .75.75v8.441a.75.75 0 0 1-.75.75zm-2.185-1.5h1.435V10.5h-1.435v6.941z" fill="#000000" class="color000 svgShape"></path><path d="M16.043 18.941h-2.935a.75.75 0 0 1-.75-.75v-5.627a.75.75 0 0 1 .75-.75h2.935a.75.75 0 0 1 .75.75v5.627a.75.75 0 0 1-.75.75zm-2.184-1.5h1.435v-4.127h-1.435v4.127z" fill="#000000" class="color000 svgShape"></path><path d="M13.109 18.941h-2.935a.75.75 0 0 1-.75-.75v-2.814a.75.75 0 0 1 .75-.75h2.935a.75.75 0 0 1 .75.75v2.814a.75.75 0 0 1-.75.75zm-2.185-1.5h1.435v-1.314h-1.435v1.314z" fill="#000000" class="color000 svgShape"></path></svg></g></svg>