<svg id="SvgjsSvg1001" width="288" height="288" xmlns="http://www.w3.org/2000/svg" version="1.1" xmlns:xlink="http://www.w3.org/1999/xlink" xmlns:svgjs="http://svgjs.com/svgjs"><defs id="SvgjsDefs1002"></defs><g id="SvgjsG1008"><svg xmlns="http://www.w3.org/2000/svg" viewBox="0 0 36 36" width="288" height="288"><path fill="#efefef" d="M27.417 3.914C20.502 4.043 15.685.549 12.353.612S2.057 2.721 2.344 18.052s9.744 17.404 13.41 17.336c17.163-.321 23.911-31.703 11.663-31.474z" class="colorEFEFEF svgShape"></path><path fill="#a4afc1" d="M20.163 8.612h2v1h-2zM14.413 8.612h2v1h-2zM17.913 5.112h1v2h-1zM30.441 22.25c-.827 0-1.5-.673-1.5-1.5s.673-1.5 1.5-1.5 1.5.673 1.5 1.5-.673 1.5-1.5 1.5zm0-2a.5.5 0 1 0 0 1 .5.5 0 0 0 0-1z" class="colorA4AFC1 svgShape"></path><path d="M15.25 22.5a.751.751 0 0 1-.64-.359l-4.11-6.726V22.5H9v-9.75a.75.75 0 0 1 1.39-.391l4.11 6.726V12H16v9.75a.75.75 0 0 1-.75.75zm7.663 0H17.75a.75.75 0 0 1-.75-.75v-9a.75.75 0 0 1 .75-.75h5.163v1.5H18.5V21h4.413v1.5z" fill="#000000" class="color000 svgShape"></path><path d="M17 17h5.913v1.5H17zM23.609 12H30v1.5h-6.391z" fill="#000000" class="color000 svgShape"></path><path d="M26 12h1.5v10.5H26zM6.995 22.5c-.549 0-.995-.449-.995-1s.446-1 .995-1 .995.449.995 1-.447 1-.995 1zm0-1.5c-.279 0-.505.224-.505.5s.226.5.505.5.505-.224.505-.5-.227-.5-.505-.5z" fill="#000000" class="color000 svgShape"></path></svg></g></svg>