<svg id="SvgjsSvg1057" width="288" height="288" xmlns="http://www.w3.org/2000/svg" version="1.1" xmlns:xlink="http://www.w3.org/1999/xlink" xmlns:svgjs="http://svgjs.com/svgjs"><defs id="SvgjsDefs1058"></defs><g id="SvgjsG1059"><svg xmlns="http://www.w3.org/2000/svg" viewBox="0 0 36 36" width="288" height="288"><path fill="#efefef" d="M8.114 5.564C6.309 12.241 1.61 15.891.74 19.109s-.847 10.475 13.955 14.477 19.432-4.501 20.388-8.041C39.564 8.973 11.311-6.262 8.114 5.564z" class="colorEFEFEF svgShape"></path><path fill="#a4afc1" d="M26.274 8.25c-.827 0-1.5-.673-1.5-1.5s.673-1.5 1.5-1.5 1.5.673 1.5 1.5-.672 1.5-1.5 1.5zm0-2a.5.5 0 1 0 0 1 .5.5 0 0 0 0-1zM26.258 28.125h1v2h-1zM26.258 33.875h1v2h-1zM22.758 31.375h2v1h-2zM28.508 31.375h2v1h-2z" class="colorA4AFC1 svgShape"></path><ellipse cx="18.12" cy="7.728" fill="#2a2d38" rx=".988" ry=".978" class="color2FDF84 svgShape"></ellipse><ellipse cx="18.12" cy="18.497" fill="#2a2d38" rx=".988" ry=".978" class="color2FDF84 svgShape"></ellipse><ellipse cx="8.738" cy="24.359" fill="#2a2d38" rx=".988" ry=".978" class="color2FDF84 svgShape"></ellipse><ellipse cx="27.262" cy="23.859" fill="#2a2d38" rx=".988" ry=".978" class="color2FDF84 svgShape"></ellipse><path d="M7.776 24.044c-.867-2.788 2.162-7.057 7.201-10.151 1.56-.958 3.217-1.735 4.794-2.249l.464 1.427c-1.465.477-3.012 1.203-4.473 2.1-4.758 2.921-7.107 6.649-6.554 8.428l-1.432.445z" fill="#000000" class="color000 svgShape"></path><path d="M23.819 26c-2.464 0-5.642-.97-8.795-2.846a23.17 23.17 0 0 1-3.615-2.639l1.002-1.116a21.595 21.595 0 0 0 3.38 2.466c5.111 3.042 9.81 3.288 10.83 1.605l1.282.778C27.189 25.425 25.715 26 23.819 26zm-5.699 4c-1.909 0-3.607-1.754-4.661-4.812l1.418-.488c.808 2.344 2.05 3.801 3.243 3.801.78 0 1.595-.62 2.294-1.746l1.274.791C20.691 29.151 19.457 30 18.12 30z" fill="#000000" class="color000 svgShape"></path><path d="m23.361 23.043-1.469-.303c.275-1.337.415-2.768.415-4.251 0-5.496-1.884-9.368-3.706-9.936l.447-1.432c2.757.86 4.758 5.641 4.758 11.368a22.42 22.42 0 0 1-.445 4.554z" fill="#000000" class="color000 svgShape"></path><path d="M18.12 9.457a1.735 1.735 0 0 1-1.738-1.729c0-.953.78-1.728 1.738-1.728s1.738.775 1.738 1.728a1.737 1.737 0 0 1-1.738 1.729zm0-1.957a.234.234 0 0 0-.238.228c0 .252.476.252.476 0a.235.235 0 0 0-.238-.228zm0 12.726a1.735 1.735 0 0 1-1.738-1.728c0-.953.78-1.729 1.738-1.729s1.738.775 1.738 1.729a1.736 1.736 0 0 1-1.738 1.728zm0-1.957a.234.234 0 0 0-.238.229c0 .251.476.251.476 0a.235.235 0 0 0-.238-.229zm8.049.825-1.155-.957c1.584-1.913 2.18-3.721 1.555-4.719-.501-.801-1.657-.99-2.539-1.008l.03-1.5c1.794.037 3.102.628 3.78 1.712 1.009 1.612.4 3.971-1.671 6.472zM8.741 26.086c-.581 0-1.15-.289-1.479-.814a1.705 1.705 0 0 1-.217-1.306 1.72 1.72 0 0 1 .779-1.078h.001a1.745 1.745 0 0 1 2.387.558c.246.393.322.856.217 1.306a1.734 1.734 0 0 1-1.688 1.334zm-.132-1.919a.222.222 0 0 0-.075.31.24.24 0 0 0 .435-.067.21.21 0 0 0-.028-.167.239.239 0 0 0-.332-.076zM8.563 17.191c-1.119-1.855-1.32-3.562-.565-4.805.983-1.623 3.373-2.161 6.56-1.482l-.313 1.467c-2.449-.522-4.351-.218-4.964.793-.451.743-.249 1.898.567 3.253l-1.285.774zM27.258 25.586c-.304 0-.61-.079-.888-.244a1.716 1.716 0 0 1-.794-1.067 1.709 1.709 0 0 1 .199-1.309 1.748 1.748 0 0 1 2.38-.59c.4.238.682.617.794 1.067.112.449.042.914-.198 1.309a1.744 1.744 0 0 1-1.493.834zm-.121-1.533a.242.242 0 0 0 .331-.08.208.208 0 0 0 .025-.167.222.222 0 0 0-.106-.141.244.244 0 0 0-.331.08.208.208 0 0 0-.025.167c.011.042.037.1.106.141z" fill="#000000" class="color000 svgShape"></path></svg></g></svg>