<svg id="SvgjsSvg1045" width="288" height="288" xmlns="http://www.w3.org/2000/svg" version="1.1" xmlns:xlink="http://www.w3.org/1999/xlink" xmlns:svgjs="http://svgjs.com/svgjs"><defs id="SvgjsDefs1046"></defs><g id="SvgjsG1047"><svg xmlns="http://www.w3.org/2000/svg" viewBox="0 0 36 36" width="288" height="288"><path fill="#efefef" d="M13.411 34.999c6.298-2.859 12.105-1.559 15.14-2.936 3.035-1.378 8.617-6.016 2.28-19.978S14.99-.035 11.651 1.48c-15.632 7.095-9.395 38.582 1.76 33.519z" class="colorEFEFEF svgShape"></path><path fill="#a4afc1" d="m6.472 3.659 1.414-1.414.707.707-1.414 1.414zM2.406 7.725 3.821 6.31l.707.707-1.415 1.415zM2.406 2.775l.708-.707 1.414 1.415-.708.707zM32.908 12.392c-.827 0-1.5-.673-1.5-1.5s.673-1.5 1.5-1.5 1.5.673 1.5 1.5-.673 1.5-1.5 1.5zm0-2a.5.5 0 1 0 .002 1.002.5.5 0 0 0-.002-1.002z" class="colorA4AFC1 svgShape"></path><path fill="#f3f3f1" d="M29.25 28.125V7.875c0-.623-.502-1.125-1.125-1.125H7.875c-.623 0-1.125.502-1.125 1.125v20.25c0 .623.502 1.125 1.125 1.125h20.25c.623 0 1.125-.502 1.125-1.125z" class="colorF3F3F1 svgShape"></path><path fill="#92003b" d="M12.742 12.755h2.504V23.25h-2.504zM17.249 21.151h6.009v2.099h-6.009zM17.249 16.953h6.009v2.099h-6.009zM17.249 12.75h6.009v2.099h-6.009z" class="color2FDF84 svgShape"></path><path fill="#d5dbe1" d="M9 28.125V7.875c0-.623.502-1.125 1.125-1.125h-2.25c-.623 0-1.125.502-1.125 1.125v20.25c0 .623.502 1.125 1.125 1.125h2.25A1.123 1.123 0 0 1 9 28.125z" class="colorD5DBE1 svgShape"></path><path fill="#92003b" d="M17.249 21.151h2.25v2.099h-2.25zM17.249 16.953h2.25v2.099h-2.25zM17.249 12.75h2.25v2.099h-2.25z" class="color00B871 svgShape"></path><path d="M28.125 30H7.875A1.877 1.877 0 0 1 6 28.125V7.875C6 6.841 6.841 6 7.875 6h20.25C29.159 6 30 6.841 30 7.875v20.25A1.877 1.877 0 0 1 28.125 30zM7.875 7.5a.375.375 0 0 0-.375.375v20.25c0 .207.168.375.375.375h20.25a.375.375 0 0 0 .375-.375V7.875a.375.375 0 0 0-.375-.375H7.875z" fill="#000000" class="color000 svgShape"></path><path d="M15.246 24h-2.504a.75.75 0 0 1-.75-.75V12.755a.75.75 0 0 1 .75-.75h2.504a.75.75 0 0 1 .75.75V23.25a.75.75 0 0 1-.75.75zm-1.754-1.5h1.004v-8.995h-1.004V22.5zm9.766 1.5h-6.009a.75.75 0 0 1-.75-.75v-2.1a.75.75 0 0 1 .75-.75h6.009a.75.75 0 0 1 .75.75v2.1a.75.75 0 0 1-.75.75zm-5.259-1.5h4.509v-.6h-4.509v.6zM23.258 19.802h-6.009a.75.75 0 0 1-.75-.75v-2.099a.75.75 0 0 1 .75-.75h6.009a.75.75 0 0 1 .75.75v2.099a.75.75 0 0 1-.75.75zm-5.259-1.5h4.509v-.599h-4.509v.599zM23.258 15.599h-6.009a.75.75 0 0 1-.75-.75V12.75a.75.75 0 0 1 .75-.75h6.009a.75.75 0 0 1 .75.75v2.099a.75.75 0 0 1-.75.75zm-5.259-1.5h4.509V13.5h-4.509v.599z" fill="#000000" class="color000 svgShape"></path></svg></g></svg>