<svg id="SvgjsSvg1001" width="288" height="288" xmlns="http://www.w3.org/2000/svg" version="1.1" xmlns:xlink="http://www.w3.org/1999/xlink" xmlns:svgjs="http://svgjs.com/svgjs"><defs id="SvgjsDefs1002"></defs><g id="SvgjsG1008"><svg xmlns="http://www.w3.org/2000/svg" viewBox="0 0 36 36" width="288" height="288"><path fill="#efefef" d="M8.377 31.833c6.917 0 11.667 3.583 15 3.583S33.71 33.5 33.71 18.167 24.293.583 20.627.583c-17.167 0-24.5 31.25-12.25 31.25z" class="colorEFEFEF svgShape"></path><path fill="#a4afc1" d="M19.875 3.562h2v1h-2zM14.125 3.562h2v1h-2zM17.625.062h1v2h-1zM21.875 26.527c-.827 0-1.5-.673-1.5-1.5s.673-1.5 1.5-1.5 1.5.673 1.5 1.5-.673 1.5-1.5 1.5zm0-2a.5.5 0 1 0 0 1 .5.5 0 0 0 0-1z" class="colorA4AFC1 svgShape"></path><ellipse cx="21.625" cy="17.999" fill="#f24e1e" rx="3.623" ry="3.748" class="color2FDF84 svgShape"></ellipse><path fill="#ffffff" d="M10.75 25.502c0 2.074 1.623 3.748 3.624 3.748s3.624-1.679 3.624-3.748V14.251h3.628l.001.001c2.001 0 3.624-1.679 3.624-3.748S23.627 6.75 21.626 6.75h-7.253c-2.001 0-3.624 1.679-3.624 3.748s1.623 3.748 3.624 3.748c-2.001.006-3.623 1.684-3.623 3.754s1.623 3.748 3.624 3.748c-2.002 0-3.624 1.68-3.624 3.754z" class="colorF3F3F1 svgShape"></path><path fill="#f24e1e" d="M20.252 17.999c0-1.66 1.052-3.053 2.498-3.545a3.48 3.48 0 0 0-1.125-.203c-2 0-3.623 1.679-3.623 3.748s1.623 3.748 3.623 3.748a3.48 3.48 0 0 0 1.125-.203c-1.446-.492-2.498-1.885-2.498-3.545z" class="color00B871 svgShape"></path><path fill="#d5dbe1" d="M13 25.502c0-2.074 1.622-3.753 3.624-3.753-2 0-3.624-1.678-3.624-3.748s1.622-3.748 3.624-3.753c-2 0-3.624-1.679-3.624-3.748s1.622-3.748 3.624-3.748h-2.25c-2.001 0-3.624 1.679-3.624 3.748s1.623 3.748 3.624 3.748c-2.002.004-3.624 1.682-3.624 3.752s1.623 3.748 3.624 3.748c-2.001 0-3.624 1.679-3.624 3.753s1.623 3.748 3.624 3.748c.395 0 .768-.082 1.124-.203-1.446-.49-2.498-1.881-2.498-3.544z" class="colorD5DBE1 svgShape"></path><path d="M21.625 22.497c-2.411 0-4.373-2.018-4.373-4.498s1.962-4.498 4.373-4.498 4.373 2.018 4.373 4.498-1.962 4.498-4.373 4.498zm0-7.496c-1.584 0-2.873 1.345-2.873 2.998s1.289 2.998 2.873 2.998 2.873-1.345 2.873-2.998-1.289-2.998-2.873-2.998z" fill="#000000" class="color000 svgShape"></path><path d="M14.374 30C11.962 30 10 27.982 10 25.501c0-1.564.779-2.945 1.958-3.752A4.534 4.534 0 0 1 10 18c0-1.562.78-2.943 1.961-3.751A4.532 4.532 0 0 1 10 10.499C10 8.018 11.962 6 14.374 6h7.253C24.038 6 26 8.02 26 10.503c0 2.48-1.962 4.499-4.374 4.499L18.747 15v10.501c0 2.481-1.962 4.499-4.373 4.499zm0-7.501c-1.584 0-2.874 1.347-2.874 3.003 0 1.653 1.289 2.999 2.874 2.999s2.874-1.345 2.874-2.999V14.25a.75.75 0 0 1 .75-.75h3.629c.763 0 1.48-.309 2.022-.869a3.044 3.044 0 0 0 .851-2.129c0-1.656-1.289-3.003-2.874-3.003h-7.253c-1.584 0-2.874 1.345-2.874 2.999s1.289 2.999 2.874 2.999a.75.75 0 1 1 .001 1.5C12.79 15 11.5 16.348 11.5 18c0 1.653 1.289 2.999 2.874 2.999a.75.75 0 0 1 0 1.5z" fill="#000000" class="color000 svgShape"></path></svg></g></svg>