<svg id="SvgjsSvg1001" width="288" height="288" xmlns="http://www.w3.org/2000/svg" version="1.1" xmlns:xlink="http://www.w3.org/1999/xlink" xmlns:svgjs="http://svgjs.com/svgjs"><defs id="SvgjsDefs1002"></defs><g id="SvgjsG1008"><svg xmlns="http://www.w3.org/2000/svg" viewBox="0 0 36 36" width="288" height="288"><path fill="#efefef" d="M26.982 3.914C20.066 4.043 15.25.549 11.917.612S1.621 2.721 1.908 18.052s9.744 17.404 13.41 17.336c17.164-.321 23.911-31.703 11.664-31.474z" class="colorEFEFEF svgShape"></path><path fill="#a4afc1" d="m12.537 3.448 1.415-1.415.707.707-1.415 1.415zM8.471 7.514l1.415-1.415.707.707-1.415 1.415zM8.471 2.564l.707-.707 1.415 1.415-.707.707zM26.8 31.169c-.827 0-1.5-.673-1.5-1.5s.673-1.5 1.5-1.5 1.5.673 1.5 1.5-.673 1.5-1.5 1.5zm0-2a.5.5 0 1 0 .002 1.002.5.5 0 0 0-.002-1.002z" class="colorA4AFC1 svgShape"></path><path fill="#ffcb2b" d="m23.983 11.685 2.267 13.3-7.171 3.985a2.216 2.216 0 0 1-2.158 0L9.75 24.984l13.413-13.566a.483.483 0 0 1 .82.267z" class="colorF3F3F1 svgShape"></path><path fill="#ffcb2b" d="M18.441 9.588a.481.481 0 0 0-.852.017l-1.113 2.182-2.758-4.793a.483.483 0 0 0-.896.165L9.75 24.98l11.055-11.176-2.364-4.216z" class="color2FDF84 svgShape"></path><path fill="#8d7632" d="m12 24.984 12.154-12.293-.172-1.006a.483.483 0 0 0-.82-.266L9.75 24.984l7.171 3.985a2.216 2.216 0 0 0 2.158 0l.046-.026L12 24.984z" class="colorD5DBE1 svgShape"></path><path fill="#8d7632" d="m18.726 11.787.452-.885-.736-1.314a.481.481 0 0 0-.852.017l-.056.11 1.192 2.072zm-3.945-2.945-1.063-1.848a.483.483 0 0 0-.896.165L9.75 24.98l2.725-2.754 2.306-13.384z" class="color00B871 svgShape"></path><path d="m10.489 25.108-1.479-.255 3.071-17.821c.09-.523.483-.92 1.003-1.013a1.22 1.22 0 0 1 1.283.602l2.759 4.792-1.301.748-2.391-4.153-2.945 17.1z" fill="#000000" class="color000 svgShape"></path><path d="M18 30.001c-.496 0-.991-.125-1.443-.376L9.386 25.64a.749.749 0 0 1-.169-1.183L22.63 10.891a1.22 1.22 0 0 1 1.244-.309c.445.141.77.515.848.978l2.268 13.299a.75.75 0 0 1-.375.782l-7.171 3.985c-.453.25-.948.375-1.444.375zm-7.021-5.192 6.307 3.505c.447.249.982.249 1.43 0l6.707-3.727-2.093-12.27-12.351 12.492z" fill="#000000" class="color000 svgShape"></path><path d="m10.418 25.321-1.336-.681 7.84-15.375a1.231 1.231 0 0 1 1.074-.676c.405-.011.876.232 1.1.633l2.363 4.216-1.309.733-2.119-3.781-7.613 14.931z" fill="#000000" class="color000 svgShape"></path></svg></g></svg>