<svg id="SvgjsSvg1001" width="288" height="288" xmlns="http://www.w3.org/2000/svg" version="1.1" xmlns:xlink="http://www.w3.org/1999/xlink" xmlns:svgjs="http://svgjs.com/svgjs"><defs id="SvgjsDefs1002"></defs><g id="SvgjsG1008"><svg xmlns="http://www.w3.org/2000/svg" viewBox="0 0 36 36" width="288" height="288"><path fill="#efefef" d="M8.377 31.833c6.917 0 11.667 3.583 15 3.583S33.71 33.5 33.71 18.167 24.293.583 20.627.583c-17.167 0-24.5 31.25-12.25 31.25z" class="colorEFEFEF svgShape"></path><path fill="#a4afc1" d="M29.875 9.25c-.827 0-1.5-.673-1.5-1.5s.673-1.5 1.5-1.5 1.5.673 1.5 1.5-.673 1.5-1.5 1.5zm0-2a.5.5 0 1 0 0 1 .5.5 0 0 0 0-1zM31.75 28.25h1v2h-1zM31.75 34h1v2h-1zM28.25 31.5h2v1h-2zM34 31.5h2v1h-2z" class="colorA4AFC1 svgShape"></path><path fill="#f3f3f1" d="M17.999 29.25A11.19 11.19 0 0 0 29.25 18c0-6.261-4.988-11.25-11.25-11.25S6.75 11.739 6.75 17.999A11.19 11.19 0 0 0 17.999 29.25z" class="colorF3F3F1 svgShape"></path><path fill="#663399" d="m9.745 17.756 8.512 8.5c-4.687 0-8.512-3.82-8.512-8.5z" class="color2FDF84 svgShape"></path><path fill="#d5dbe1" d="M9 17.999c0-5.88 4.402-10.637 10.125-11.193A11.577 11.577 0 0 0 18 6.75c-6.261 0-11.25 4.989-11.25 11.249S11.739 29.25 18 29.25c.38 0 .755-.02 1.125-.056C13.402 28.638 9 23.879 9 17.999z" class="colorD5DBE1 svgShape"></path><path fill="#663399" d="m12.441 20.449-2.697-2.693c0 4.68 3.826 8.5 8.512 8.5l-.446-.446a8.554 8.554 0 0 1-5.369-5.361z" class="color00B871 svgShape"></path><path d="M18 30c-6.729 0-12-5.271-12-12.001C6 11.271 11.271 6 18 6s12 5.271 12 12-5.271 12-12 12zm0-22.5c-5.888 0-10.5 4.612-10.5 10.499C7.5 23.887 12.112 28.5 18 28.5S28.5 23.888 28.5 18 23.888 7.5 18 7.5z" fill="#000000" class="color000 svgShape"></path><path d="M18.257 27.006c-5.107 0-9.262-4.149-9.262-9.25a.75.75 0 0 1 1.28-.531l8.512 8.5a.749.749 0 0 1-.53 1.281zm-7.474-7.153a7.787 7.787 0 0 0 5.372 5.364l-5.372-5.364zM21.168 26.006a.745.745 0 0 1-.524-.214L10.222 15.603a.75.75 0 0 1-.192-.758 8.803 8.803 0 0 1 8.315-5.839c3.014 0 5.755 1.416 7.428 3.786l.433.613-1.226.865-.432-.613a7.476 7.476 0 0 0-6.108-3.15c-3.04 0-5.693 1.739-6.817 4.368l9.729 9.512c1.804-.75 3.251-2.245 3.918-4.017h-4.074v-1.5h5.074a.75.75 0 0 1 .733.906c-.608 2.852-2.751 5.224-5.592 6.19a.76.76 0 0 1-.243.04z" fill="#000000" class="color000 svgShape"></path></svg></g></svg>