<svg id="SvgjsSvg1069" width="288" height="288" xmlns="http://www.w3.org/2000/svg" version="1.1" xmlns:xlink="http://www.w3.org/1999/xlink" xmlns:svgjs="http://svgjs.com/svgjs"><defs id="SvgjsDefs1070"></defs><g id="SvgjsG1071"><svg xmlns="http://www.w3.org/2000/svg" enable-background="new 0 0 36 36" viewBox="0 0 36 36" width="288" height="288"><path fill="#efefef" d="m13.411 34.999c6.298-2.859 12.105-1.559 15.14-2.936 3.035-1.378 8.617-6.016 2.28-19.978s-15.841-12.12-19.18-10.605c-15.632 7.095-9.395 38.582 1.76 33.519z" class="colorefefef svgShape"></path><g fill="#a4afc1" class="colora4afc1 svgShape"><path d="m21.91 29.581c-.827 0-1.5-.673-1.5-1.5s.673-1.5 1.5-1.5 1.5.673 1.5 1.5-.673 1.5-1.5 1.5zm0-2c-.275 0-.5.224-.5.5s.225.5.5.5.5-.224.5-.5-.224-.5-.5-.5z" fill="#000000" class="color000 svgShape"></path><path d="m9.217 5.384h2v1h-2z" transform="rotate(-45.001 10.217 5.884)" fill="#000000" class="color000 svgShape"></path><path d="m5.151 9.45h2v1h-2z" transform="rotate(-45.001 6.15 9.95)" fill="#000000" class="color000 svgShape"></path><path d="m5.651 4.707h1v2h-1z" transform="rotate(-45.02 6.15 5.707)" fill="#000000" class="color000 svgShape"></path><path d="m9.717 8.773h1v2h-1z" transform="rotate(-45.001 10.217 9.773)" fill="#000000" class="color000 svgShape"></path></g><path fill="#ffffff" d="m16.819 12.209c-.849.342-1.763.593-2.692.593-2.657-1.557-6.262.065-6.262 3.476h.001c0 1.271.8 3.014 2.049 3.441v.05c-.928.417-1.185 2.542.05 3.304v.05c-1.348.452-2.237 1.321-2.237 2.822 0 2.587 2.409 3.304 4.518 3.304 2.568 0 4.48-.94 4.48-3.818 0-3.541-4.987-2.235-4.987-4.158 0-.678.356-.94.972-1.069 2.049-.387 3.333-2.009 3.333-4.128 0-.366-.074-.714-.198-1.054.331-.075.652-.166.972-.276v-2.537zm-4.622 12.296v-.001c.84 0 2.034.151 2.034 1.256 0 1.095-.963 1.321-1.862 1.321-.854 0-2.139-.136-2.139-1.265.007-1.12 1.093-1.311 1.967-1.311zm-.158-6.503v-.001c-1.086 0-1.545-.653-1.545-1.697 0-2.476 3.012-2.451 3.012-.025 0 1.02-.395 1.723-1.467 1.723z" class="color2fdf84 svgShape"></path><path fill="#f3f3f1" d="M28.272 22.948v-2.461c-.395.276-.963.417-1.446.417-.913 0-1.077-.904-1.077-1.648v-4.576c1.566 0 2.519.05 2.519.05v-2.386h-2.519c0-.688-.025-1.376.074-2.069h-2.8c.088.512.074.949.074 2.069h-1.185v2.386c.825-.131.84-.05 1.185-.05v.05h-.024v4.405c0 2.185.311 4.304 2.953 4.304.739 0 1.589-.125 2.246-.491zM19.393 6.75c-.987 0-1.704.873-1.704 1.843 0 .955.726 1.818 1.704 1.818.952 0 1.669-.879 1.669-1.818s-.692-1.843-1.669-1.843zM18.015 12.335c.089.743.079 10.03 0 10.939h2.741c-.079-.903-.089-10.206 0-10.939z" class="colorf3f3f1 svgShape"></path><path fill="#ffffff" d="M13.409 26.929c.392.121.84.153 1.211.153.899 0 1.862-.226 1.862-1.321 0-1.105-1.195-1.256-2.034-1.256v.001c-.36 0-.752.037-1.094.153.488.159.878.473.878 1.101 0 .658-.351.999-.823 1.169zM13.506 16.279c0 .537-.114.981-.373 1.286.251.279.628.436 1.157.436v.001c1.071 0 1.466-.703 1.466-1.723 0-1.889-1.821-2.315-2.629-1.246.227.3.379.711.379 1.246zM16.377 12.802c.148 0 .295-.016.442-.028v-.564c-.316.127-.644.235-.975.329.181.074.359.161.533.263z" class="color00b871 svgShape"></path><path fill="#ffffff" d="m9.978 25.946c0-1.501.888-2.37 2.237-2.822v-.05c-1.235-.763-.978-2.888-.05-3.305v-.05c-1.249-.426-2.049-2.17-2.049-3.44h-.001c0-2.07 1.33-3.474 2.967-3.916-2.467-.677-5.217.937-5.217 3.916h.001c0 1.271.8 3.014 2.049 3.44v.05c-.928.417-1.185 2.542.05 3.305v.05c-1.349.452-2.237 1.321-2.237 2.822 0 2.587 2.409 3.304 4.518 3.304.399 0 .775-.032 1.138-.082-1.76-.235-3.406-1.086-3.406-3.222z" class="color00b871 svgShape"></path><path fill="#d5dbe1" d="M28.268 14.73v-.049c-.09 0-.175-.001-.269-.001v.039c.169.006.269.011.269.011zM25.322 19.135v-4.405h.024v-.05c-.346 0-.36-.08-1.185.05v-2.386h1.185c0-1.12.015-1.557-.074-2.069h-2.25c.089.512.074.949.074 2.069h-1.185v2.386c.825-.131.84-.05 1.185-.05v.05h-.024v4.405c0 2.185.311 4.304 2.953 4.304.404 0 .839-.043 1.259-.136-1.723-.486-1.962-2.298-1.962-4.168zM19.939 8.593c0-.525.215-1.016.564-1.361-.288-.291-.667-.482-1.11-.482-.987 0-1.704.873-1.704 1.843 0 .955.726 1.818 1.704 1.818.436 0 .818-.19 1.11-.48-.348-.341-.564-.823-.564-1.338zM20.265 12.335h-2.25c.089.743.079 10.03 0 10.939h2.25c.079-.909.088-10.197 0-10.939z" class="colord5dbe1 svgShape"></path><path d="M12.247 30c-3.299 0-5.269-1.516-5.269-4.055 0-.995.332-2.261 1.766-3.095-.271-.475-.4-1.054-.359-1.679.031-.479.16-.916.364-1.273-1.027-.856-1.633-2.381-1.633-3.621-.001-1.79.857-3.308 2.354-4.166 1.485-.851 3.322-.87 4.844-.063.671-.028 1.401-.203 2.225-.535.232-.093.493-.065.7.074.206.14.33.373.33.622v2.537c0 .32-.203.605-.506.709-.103.035-.205.069-.308.101.026.174.039.347.039.521 0 2.503-1.549 4.413-3.945 4.865-.36.076-.36.11-.36.333 0 .237.761.436 1.371.595 1.44.376 3.616.945 3.616 3.563.001 2.083-.907 4.567-5.229 4.567zm-.307-17.043c-.598 0-1.193.152-1.724.456-1.018.583-1.602 1.627-1.602 2.865.001 1.02.675 2.435 1.542 2.731.304.104.508.389.508.709 0 .295-.174.614-.442.734-.125.056-.312.371-.342.817-.026.404.085.922.479 1.165.221.137.355.378.355.638 0 .322-.206.659-.512.762-1.546.519-1.725 1.453-1.725 2.111 0 2.223 2.361 2.555 3.769 2.555 3.306 0 3.729-1.64 3.729-3.068 0-1.315-.799-1.668-2.495-2.112-1.11-.29-2.492-.651-2.492-2.046 0-.978.527-1.585 1.567-1.803 1.695-.32 2.738-1.62 2.738-3.395 0-.254-.05-.515-.153-.797-.073-.202-.057-.427.047-.616.103-.189.282-.325.492-.373.131-.03.261-.062.389-.098v-.932c-.684.195-1.325.291-1.942.291-.134 0-.265-.036-.379-.103-.558-.326-1.184-.491-1.807-.491zm.43 14.875c-2.514 0-2.889-1.263-2.889-2.016.003-.622.272-2.06 2.715-2.061h.009c1.05 0 1.788.229 2.259.698.339.338.518.79.518 1.307-.001.623-.255 2.072-2.612 2.072zm-.173-2.578c-1.213.001-1.215.382-1.216.565 0 .339.467.512 1.389.512 1.111 0 1.111-.357 1.111-.571 0-.125 0-.506-1.284-.506zm-.158-6.503c-1.438-.001-2.295-.917-2.295-2.448 0-.965.363-1.564.668-1.896.41-.447.988-.704 1.588-.704 1.121 0 2.256.885 2.256 2.576 0 1.548-.829 2.472-2.217 2.472zm-.039-3.548c-.349 0-.756.289-.756 1.101 0 .876.36.947.795.947v.001c.319 0 .717 0 .717-.973 0-.743-.38-1.076-.756-1.076zM26.024 24.189c-3.703 0-3.703-3.542-3.703-5.054v-3.706c-.081.01-.177.023-.294.042-.216.035-.438-.028-.604-.17s-.263-.351-.263-.57v-2.386c0-.414.336-.75.75-.75h.437c0-.564-.008-.871-.063-1.192-.037-.218.023-.441.166-.61s.353-.267.573-.267h2.8c.218 0 .424.094.566.258.143.165.207.382.176.597-.056.397-.068.798-.069 1.213h1.772c.414 0 .75.336.75.75v2.386c0 .206-.085.402-.233.544s-.348.217-.556.205c-.009 0-.647-.034-1.73-.045v3.821c0 .898.246.898.327.898.367 0 .775-.113 1.016-.281.229-.159.528-.18.777-.051.248.129.403.386.403.666v2.461c0 .272-.147.522-.385.655-.869.485-1.901.586-2.613.586zm-2.203-9.315v4.261c0 2.657.556 3.554 2.203 3.554.564 0 1.081-.079 1.497-.226v-.88c-.229.046-.464.07-.696.07-.55 0-1.827-.234-1.827-2.398v-4.575c0-.414.336-.75.75-.75.735 0 1.336.011 1.77.022v-.858h-1.77c-.414 0-.75-.336-.75-.75l-.001-.337c-.002-.321-.004-.648.009-.981h-1.165c.007.25.006.537.006.904l-.001.415c0 .414-.336.75-.75.75h-.436v.812c.096.001.179.007.265.015.051.005.102.01.171.01.414 0 .75.336.75.75 0 .064-.009.129-.025.192zM19.393 11.161c-1.353 0-2.453-1.152-2.453-2.568 0-1.676 1.262-2.581 2.448-2.581 1.205 0 2.424.886 2.424 2.581 0 1.416-1.085 2.568-2.419 2.568zm-.005-3.649c-.438 0-.948.283-.948 1.081 0 .516.383 1.068.953 1.068.542 0 .919-.563.919-1.068 0-.797-.478-1.081-.924-1.081z" fill="#000000" class="color000 svgShape"></path><path d="m20.756 24.023h-2.741c-.21 0-.411-.088-.553-.243-.143-.155-.213-.362-.194-.572.076-.877.078-10.15.002-10.785-.025-.213.042-.426.185-.587.142-.16.346-.252.561-.252h2.741c.215 0 .419.092.561.253.143.16.21.375.184.587-.076.637-.073 9.908.003 10.783.019.209-.052.417-.194.572-.144.156-.345.244-.555.244zm-1.966-1.5h1.19c-.042-2.085-.055-7.327-.006-9.439h-1.179c.05 2.112.037 7.354-.005 9.439z" fill="#000000" class="color000 svgShape"></path></svg></g></svg>