<svg id="SvgjsSvg1001" width="288" height="288" xmlns="http://www.w3.org/2000/svg" version="1.1" xmlns:xlink="http://www.w3.org/1999/xlink" xmlns:svgjs="http://svgjs.com/svgjs"><defs id="SvgjsDefs1002"></defs><g id="SvgjsG1008"><svg xmlns="http://www.w3.org/2000/svg" viewBox="0 0 36 36" width="288" height="288"><path fill="#efefef" d="M8.377 4.167c6.917 0 11.667-3.583 15-3.583S33.71 2.5 33.71 17.833s-9.417 17.583-13.083 17.583C3.46 35.417-3.873 4.167 8.377 4.167z" class="colorEFEFEF svgShape"></path><path fill="#a4afc1" d="M19.875 4.312h2v1h-2zM14.125 4.312h2v1h-2zM17.625.812h1v2h-1zM24.52 30.343c-.827 0-1.5-.673-1.5-1.5s.673-1.5 1.5-1.5 1.5.673 1.5 1.5-.673 1.5-1.5 1.5zm0-2a.5.5 0 1 0 .002 1.002.5.5 0 0 0-.002-1.002z" class="colorA4AFC1 svgShape"></path><path fill="#f3f3f1" d="m24.97 12.24-5.68-3.23h-2.57l-5.68 3.23h-.01L9.75 14.5v7l1.28 2.26h.01l5.68 3.23h2.57l5.68-3.23 1.28-2.26v-7z" class="colorF3F3F1 svgShape"></path><circle cx="18.008" cy="8.25" r="1.5" fill="#de33a6" class="color2FDF84 svgShape"></circle><circle cx="18.008" cy="27.75" r="1.5" fill="#de33a6" class="color2FDF84 svgShape"></circle><circle cx="26.25" cy="13" r="1.5" fill="#de33a6" class="color2FDF84 svgShape"></circle><circle cx="9.75" cy="13" r="1.5" fill="#de33a6" class="color2FDF84 svgShape"></circle><circle cx="26.25" cy="23" r="1.5" fill="#de33a6" class="color2FDF84 svgShape"></circle><circle cx="9.75" cy="23" r="1.5" fill="#de33a6" class="color2FDF84 svgShape"></circle><path fill="#d5dbe1" d="M13.28 23.76 12 21.5v-7l1.28-2.26h.01l5.68-3.23h-2.25l-5.68 3.23h-.01L9.75 14.5v7l1.28 2.26h.01l5.68 3.23h2.25l-5.68-3.23z" class="colorD5DBE1 svgShape"></path><path d="M18.009 10.5c-1.24 0-2.25-1.009-2.25-2.25S16.769 6 18.009 6s2.25 1.009 2.25 2.25-1.01 2.25-2.25 2.25zm0-3a.75.75 0 0 0 0 1.5.75.75 0 0 0 0-1.5zm0 22.5c-1.24 0-2.25-1.009-2.25-2.25s1.01-2.25 2.25-2.25 2.25 1.009 2.25 2.25-1.01 2.25-2.25 2.25zm0-3a.75.75 0 0 0 0 1.5.75.75 0 0 0 0-1.5zm8.241-11.75C25.01 15.25 24 14.241 24 13s1.01-2.25 2.25-2.25S28.5 11.759 28.5 13s-1.01 2.25-2.25 2.25zm0-3a.75.75 0 0 0 0 1.5.75.75 0 0 0 0-1.5zm-16.5 3c-1.24 0-2.25-1.009-2.25-2.25s1.01-2.25 2.25-2.25S12 11.759 12 13s-1.01 2.25-2.25 2.25zm0-3a.75.75 0 0 0 0 1.5.75.75 0 0 0 0-1.5zm16.5 13C25.01 25.25 24 24.241 24 23s1.01-2.25 2.25-2.25S28.5 21.759 28.5 23s-1.01 2.25-2.25 2.25zm0-3a.75.75 0 0 0 0 1.5.75.75 0 0 0 0-1.5zm-16.5 3c-1.24 0-2.25-1.009-2.25-2.25s1.01-2.25 2.25-2.25S12 21.759 12 23s-1.01 2.25-2.25 2.25zm0-3a.75.75 0 0 0 0 1.5.75.75 0 0 0 0-1.5z" fill="#000000" class="color000 svgShape"></path><path d="m18.085 9.916 1.31-.73 6.78 12.15-1.31.731zM11.25 22.25h13.5v1.5h-13.5zM9.838 21.337l6.774-12.154 1.31.73-6.774 12.154z" fill="#000000" class="color000 svgShape"></path><path d="m18.92 9.663.742-1.304 5.68 3.23-.743 1.304zM16.73 27.74h-.01a.754.754 0 0 1-.371-.098l-5.68-3.23.366-.644-.005-.758c.13 0 .268.034.381.098l5.68 3.23-.366.643.005.759zm-5.69-14.75-.005-.759-.366-.643 5.68-3.23a.743.743 0 0 1 .371-.098l.006.76.365.642-5.68 3.23a.743.743 0 0 1-.371.098zM9 14.5h1.5v7H9zM18.92 26.34l5.677-3.232.742 1.304-5.678 3.232zM25.5 14.5H27v7h-1.5z" fill="#000000" class="color000 svgShape"></path></svg></g></svg>