<svg id="SvgjsSvg1023" width="288" height="288" xmlns="http://www.w3.org/2000/svg" version="1.1" xmlns:xlink="http://www.w3.org/1999/xlink" xmlns:svgjs="http://svgjs.com/svgjs"><defs id="SvgjsDefs1024"></defs><g id="SvgjsG1025"><svg xmlns="http://www.w3.org/2000/svg" viewBox="0 0 36 36" width="288" height="288"><path fill="#efefef" d="M8.114 5.564C6.309 12.241 1.61 15.891.74 19.109s-.847 10.475 13.955 14.477 19.432-4.501 20.388-8.041C39.564 8.973 11.311-6.262 8.114 5.564z" class="colorEFEFEF svgShape"></path><path fill="#a4afc1" d="M7.68 9.964 9.094 8.55l.707.707-1.414 1.414zM3.613 14.03l1.415-1.414.707.707-1.415 1.415zM3.613 9.08l.707-.707 1.415 1.415-.707.707zM30 15.177c-.827 0-1.5-.673-1.5-1.5s.673-1.5 1.5-1.5 1.5.673 1.5 1.5-.673 1.5-1.5 1.5zm0-2a.5.5 0 1 0 .002 1.002.5.5 0 0 0-.002-1.002z" class="colorA4AFC1 svgShape"></path><path d="m10.948 23.915-1.424-.473.774-2.331c-.937.648-2.003 1.098-2.802 1.007C7.146 22.079 6 21.822 6 20.167c0-4.156 3.46-9.667 6.068-9.667 1.991 0 2.714 1.496 2.714 2.502v.75h-1.5v-.743c-.009-.306-.146-1.009-1.214-1.009-1.325 0-4.568 4.359-4.568 8.167 0 .441.11.454.163.459.963.109 3.134-1.639 3.285-2.304.252-1.111 1.187-2.823 1.293-3.014a.75.75 0 0 1 1.368.599l-2.661 8.008zm6.601-2.002a.983.983 0 0 1-.818-.428c-.122-.175-.192-.423-.212-.744-.682.736-1.429 1.236-2.157 1.163-.452-.048-.81-.288-1.008-.676-.623-1.221.785-3.921 1.419-5.026l.373-.65 1.301.747-.373.65c-.753 1.313-1.354 2.814-1.392 3.423.592-.283 1.904-1.998 2.929-4.123a.75.75 0 0 1 1.378.589c-.488 1.307-.876 2.704-.973 3.438.408-.198.872-.574 1.14-.854l.519-.542 1.084 1.037-.519.542c-.231.242-1.448 1.448-2.687 1.454h-.004zm-2.853-1.352h.01-.01z" fill="#d34446" class="color000 svgShape"></path><path d="M20.378 22.121c-.066 0-.134-.003-.202-.008a1.237 1.237 0 0 1-1.009-.642c-.939-1.667 1.664-7.245 2.826-9.566l.336-.67 1.342.672-.336.67c-1.779 3.55-3.051 7.109-2.894 8.041 1.113-.077 2.303-1.982 2.721-2.939l.301-.687 1.374.602-.3.687c-.177.402-1.752 3.839-4.159 3.84zm.098-1.383h.01-.01z" fill="#d34446" class="color000 svgShape"></path><path d="M20.904 25.5a.752.752 0 0 1-.703-1.011c.137-.37.43-1.127.846-2.042l2.725-6.579 1.386.574-.096.231c.554-.387 1.136-.618 1.734-.618.771 0 1.271.253 1.488.753.407.938-.54 2.023-1.701 3.271.897-.567 1.742-1.451 2.086-1.872l.474-.582 1.163.948-.475.581c-.276.338-2.76 3.297-5.121 2.905a.861.861 0 0 1-.693-.57c-.215-.63.285-1.165 1.28-2.231.395-.423 1.131-1.211 1.441-1.701-1.353.08-3.142 2.925-4.375 5.63l-.766 1.849a.75.75 0 0 1-.693.464z" fill="#d34446" class="color000 svgShape"></path></svg></g></svg>