<svg id="SvgjsSvg1056" width="288" height="288" xmlns="http://www.w3.org/2000/svg" version="1.1" xmlns:xlink="http://www.w3.org/1999/xlink" xmlns:svgjs="http://svgjs.com/svgjs"><defs id="SvgjsDefs1057"></defs><g id="SvgjsG1058"><svg xmlns="http://www.w3.org/2000/svg" viewBox="0 0 36 36" width="288" height="288"><path fill="#efefef" d="M8.114 5.564C6.309 12.241 1.61 15.891.74 19.109s-.847 10.475 13.955 14.477 19.432-4.501 20.388-8.041C39.564 8.973 11.311-6.262 8.114 5.564z" class="colorEFEFEF svgShape"></path><path fill="#a4afc1" d="m4.926 25.832.707-.707 1.415 1.415-.707.707zM8.992 29.898l.707-.707 1.415 1.415-.707.707zM4.75 30.605l1.414-1.414.707.707-1.414 1.414zM30.812 10.75c-.827 0-1.5-.673-1.5-1.5s.673-1.5 1.5-1.5 1.5.673 1.5 1.5-.673 1.5-1.5 1.5zm0-2a.5.5 0 1 0 0 1 .5.5 0 0 0 0-1z" class="colorA4AFC1 svgShape"></path><path fill="#e85827" d="M25.978 26.57 27.75 6.75H8.25l1.772 19.82 7.953 2.68z" class="color2FDF84 svgShape"></path><path fill="#bf4124" d="M12.272 26.57 10.5 6.75H8.25l1.772 19.82 7.953 2.68 1.128-.378z" class="color00B871 svgShape"></path><path d="M17.975 30a.759.759 0 0 1-.24-.039l-7.952-2.68a.749.749 0 0 1-.507-.644L7.503 6.817A.75.75 0 0 1 8.25 6h19.5a.748.748 0 0 1 .747.817l-1.772 19.82a.749.749 0 0 1-.509.644l-8.003 2.68a.747.747 0 0 1-.238.039zm-7.249-3.984 7.25 2.443 7.299-2.444L26.93 7.5H9.071l1.655 18.516z" fill="#000000" class="color000 svgShape"></path><path d="M17.75 25a.753.753 0 0 1-.287-.057l-4.243-1.754a.751.751 0 0 1-.456-.583l-.257-1.746 1.484-.219.195 1.325 3.563 1.473 3.556-1.47.589-4.469H12.96a.75.75 0 0 1-.75-.723l-.21-5.75a.753.753 0 0 1 .209-.548.753.753 0 0 1 .54-.229h10.5v1.5h-9.722l.156 4.25h9.067a.752.752 0 0 1 .744.848l-.757 5.746a.748.748 0 0 1-.457.595l-4.243 1.754a.753.753 0 0 1-.287.057z" fill="#000000" class="color000 svgShape"></path></svg></g></svg>