<svg id="SvgjsSvg1022" width="288" height="288" xmlns="http://www.w3.org/2000/svg" version="1.1" xmlns:xlink="http://www.w3.org/1999/xlink" xmlns:svgjs="http://svgjs.com/svgjs"><defs id="SvgjsDefs1023"></defs><g id="SvgjsG1024"><svg xmlns="http://www.w3.org/2000/svg" viewBox="0 0 36 36" width="288" height="288"><path fill="#efefef" d="M13.411 34.999c6.298-2.859 12.105-1.559 15.14-2.936 3.035-1.378 8.617-6.016 2.28-19.978S14.99-.035 11.651 1.48c-15.632 7.095-9.395 38.582 1.76 33.519z" class="colorEFEFEF svgShape"></path><path fill="#a4afc1" d="M23.411 3.011h2v1h-2zM17.661 3.011h2v1h-2zM21.161-.489h1v2h-1zM6 31.75c-.827 0-1.5-.673-1.5-1.5s.673-1.5 1.5-1.5 1.5.673 1.5 1.5-.673 1.5-1.5 1.5zm0-2a.5.5 0 1 0 0 1 .5.5 0 0 0 0-1z" class="colorA4AFC1 svgShape"></path><path fill="#9b405d" d="M10.68 15.154c1.379 0 2.5 1.122 2.5 2.5s-1.121 2.5-2.499 2.5a2.503 2.503 0 0 1-2.501-2.499 2.505 2.505 0 0 1 2.5-2.501z" class="color2FDF84 svgShape"></path><path fill="#f3f3f1" d="M17.078 14.138h.037c.055-.015.105-.015.158-.028h.052c.053 0 .092-.013.143-.013h.51c.052 0 .092.013.132.013.026 0 .037 0 .066.013.05.013.09.013.143.026.013 0 .026 0 .053.013l.182.037h.013c.053.015.105.028.156.054.013 0 .026.013.052.013a.836.836 0 0 1 .113.043l2.651-5.065 2.633 5.08a3.27 3.27 0 0 1 .418-.144l.022-.006v-.002c.063-.013.115-.026.18-.037h.037c.054-.015.104-.015.156-.027h.052c.052 0 .091-.013.141-.013h.502c.052 0 .091.013.13.013a.12.12 0 0 1 .065.013c.05.013.089.013.141.026.008 0 .021.005.031.008L29 6.75H14.073l2.946 7.4.059-.012zm8.335 6.269a3.247 3.247 0 0 1-2.969-1.92 2.97 2.97 0 0 1-.277-1.153c.021.6-1.184.472-1.167-.005v.011a3.284 3.284 0 0 1-4.979 2.689c-.297.392-.611.75-.956 1.073l-.004.004a8.217 8.217 0 0 1-2.516 1.627l-.054.02c-.841-.563-1.205-1.556-.876-2.446l-3.146-.785c-.048.097-.098.195-.147.299-.47.959-1.002 2.043-1.206 3.259-.406 2.432.259 4.134 1.864 5.239.824.582 1.85.931 2.959.931h.009c1.842 0 3.712-.917 5.52-1.807 1.289-.632 2.62-1.042 3.93-1.362.484-.118.988-.187 1.52-.264 1.079-.153 2.193-.312 3.194-.89a4.498 4.498 0 0 0 2.196-3.063l.004-.028c.162-.917.014-1.835-.36-2.661a3.24 3.24 0 0 1-2.539 1.232z" class="colorF3F3F1 svgShape"></path><path fill="#9b405d" d="M22.167 17.329v-.009c0-1.398.965-2.574 2.27-2.904l.021-.005v-.002c.059-.012.108-.024.169-.034h.035c.05-.014.097-.014.146-.026h.048c.049 0 .085-.012.132-.012h.47c.048 0 .085.012.121.012.024 0 .035 0 .061.012.047.012.083.012.132.024.012 0 .024 0 .049.012l.168.034h.012c.049.014.097.026.144.05.012 0 .024.012.048.012.037.012.085.024.122.046.012 0 .024.012.035.012.049.024.097.036.146.06h.012a.665.665 0 0 1 .158.086l-.002-.002h.012c.049.024.097.059.146.083.012 0 .012.012.022.012.049.024.087.06.134.084l.012.012c.144.107.278.227.41.346l.012.012c.515.539.833 1.267.833 2.071v.012c-.057 1.622-1.395 2.915-3.039 2.915s-2.982-1.293-3.039-2.91v-.003zm-7.245 0v-.009c0-1.398.965-2.574 2.27-2.904l.021-.005v-.002c.059-.012.108-.024.169-.034h.035c.05-.014.097-.014.146-.026h.048c.049 0 .085-.012.132-.012h.47c.048 0 .085.012.121.012.024 0 .035 0 .061.012.047.012.083.012.132.024.012 0 .024 0 .049.012l.168.034h.012c.049.014.097.026.144.05.012 0 .024.012.048.012.037.012.085.024.122.046.012 0 .024.012.035.012.049.024.097.036.146.06h.012a.665.665 0 0 1 .158.086l-.002-.002h.012c.049.024.097.059.146.083.012 0 .012.012.022.012.049.024.087.06.134.084l.012.012c.144.107.278.227.41.346l.012.012c.515.541.833 1.269.833 2.073v.012c-.057 1.622-1.395 2.915-3.039 2.915s-2.982-1.293-3.039-2.91v-.005z" class="color2FDF84 svgShape"></path><path fill="#9b405d" d="M10.43 17.656c0-.971.563-1.807 1.375-2.221a2.471 2.471 0 0 0-1.125-.28 2.505 2.505 0 0 0-2.5 2.501 2.504 2.504 0 0 0 2.501 2.499c.406 0 .785-.107 1.124-.28a2.496 2.496 0 0 1-1.375-2.219z" class="color00B871 svgShape"></path><path fill="#d5dbe1" d="M16.323 6.75h-2.25l2.946 7.4c.019-.004.038-.009.059-.012h.037c.055-.015.105-.015.158-.028h.052c.053 0 .092-.013.143-.013h.51c.052 0 .092.013.132.013.026 0 .037 0 .066.013.05.013.09.013.143.026.013 0 .026 0 .053.013l.182.037h.013c.053.015.105.028.156.054.013 0 .026.013.052.013a.836.836 0 0 1 .113.043l.251-.48-2.816-7.079zm7.468 2.495-1.131 2.16 1.514 2.921a3.27 3.27 0 0 1 .418-.144l.022-.006v-.002c.063-.013.115-.026.18-.037h.037c.054-.015.104-.015.156-.027h.052c.052 0 .091-.013.141-.013h.502c.052 0 .091.013.13.013a.12.12 0 0 1 .065.013c.05.013.089.013.141.026.008 0 .021.005.031.008l.125-.314-2.383-4.598zM19.956 20.5a3.284 3.284 0 0 0 2.77-1.519 3.215 3.215 0 0 1-.282-.494 2.97 2.97 0 0 1-.277-1.153c.021.6-1.184.472-1.167-.005v.011a3.268 3.268 0 0 1-2.163 2.951c.349.13.723.209 1.119.209zm7.707-.093c.22 0 .431-.033.639-.075a4.743 4.743 0 0 0-.351-1.157 3.259 3.259 0 0 1-1.435 1.015c.358.135.742.217 1.147.217zm-12.922 2.346.054-.02a8.193 8.193 0 0 0 2.516-1.627l.004-.004c.199-.186.37-.409.55-.618-.054.003-.105.016-.16.016-.618 0-1.19-.177-1.685-.47-.297.392-.611.75-.956 1.073l-.004.004a8.26 8.26 0 0 1-1.062.843c.172.31.422.588.743.803zm-3.511 5.566c-1.605-1.105-2.27-2.807-1.864-5.239.19-1.133.664-2.148 1.108-3.057l-2.006-.5c-.048.097-.098.195-.147.299-.469.958-1.001 2.042-1.205 3.258-.406 2.432.259 4.134 1.864 5.239.824.582 1.85.931 2.959.931h.009c.392 0 .785-.049 1.179-.123a5.09 5.09 0 0 1-1.897-.808z" class="colorD5DBE1 svgShape"></path><path fill="#9b405d" d="M24.417 17.334V17.32c0-1.262.79-2.337 1.904-2.778a.014.014 0 0 0-.006-.002c-.036-.022-.085-.035-.122-.047-.024 0-.036-.012-.048-.012-.047-.024-.096-.036-.144-.05h-.012l-.168-.034c-.024-.012-.036-.012-.049-.012-.049-.012-.085-.012-.132-.024-.026-.012-.037-.012-.061-.012-.037 0-.073-.012-.121-.012h-.47c-.047 0-.083.012-.132.012h-.048c-.049.012-.096.012-.146.026h-.035c-.061.01-.109.023-.169.035v.002l-.021.005a3.003 3.003 0 0 0-2.27 2.904V17.335a3.03 3.03 0 0 0 3.039 2.91c.398 0 .777-.079 1.125-.217a3.018 3.018 0 0 1-1.914-2.694zm-7.245 0V17.32c0-1.262.79-2.337 1.904-2.778a.014.014 0 0 0-.006-.002c-.036-.022-.085-.035-.122-.047-.024 0-.036-.012-.048-.012-.047-.024-.095-.036-.144-.05h-.012l-.168-.034c-.024-.012-.036-.012-.049-.012-.049-.012-.085-.012-.132-.024-.026-.012-.036-.012-.061-.012-.037 0-.073-.012-.121-.012h-.47c-.047 0-.083.012-.132.012h-.048c-.049.012-.095.012-.146.026h-.034c-.061.01-.109.023-.169.035v.002l-.021.005a3.003 3.003 0 0 0-2.27 2.904V17.335a3.03 3.03 0 0 0 3.039 2.91c.398 0 .777-.079 1.125-.217a3.017 3.017 0 0 1-1.915-2.694z" class="color00B871 svgShape"></path><path d="M11.948 30a5.85 5.85 0 0 1-3.4-1.069c-1.884-1.296-2.617-3.309-2.171-5.975.221-1.316.774-2.449 1.263-3.447l.137-.28 1.364.626-.141.287c-.456.933-.958 1.96-1.143 3.062-.351 2.099.142 3.528 1.55 4.497a4.361 4.361 0 0 0 2.534.799c1.685 0 3.47-.879 5.197-1.73 1.167-.572 2.465-1.022 4.083-1.417.482-.118.962-.187 1.471-.261l.12-.017c1.008-.143 2.048-.29 2.927-.797a3.755 3.755 0 0 0 1.833-2.552 3.804 3.804 0 0 0-.375-2.418.75.75 0 0 1 .032-.739c.236-.376.355-.797.355-1.25l.001-.045a2.376 2.376 0 0 0-1.767-2.234.771.771 0 0 1-.488-.39.76.76 0 0 1-.038-.617L27.894 7.5H15.179l2.611 6.561a.75.75 0 0 1-.484.997c-1.03.305-1.724 1.218-1.725 2.27 0 .754.377 1.474 1.009 1.924a.752.752 0 0 1 .174 1.049 9.059 9.059 0 0 1-1.186 1.35 8.901 8.901 0 0 1-2.747 1.776c-.231.096-.549.088-.757-.051-1.128-.756-1.606-2.125-1.162-3.329l1.407.52c-.166.449-.046.942.296 1.313a7.368 7.368 0 0 0 1.931-1.319c.208-.195.401-.395.582-.606a3.855 3.855 0 0 1-1.047-2.629 3.844 3.844 0 0 1 2.042-3.397l-2.747-6.902A.75.75 0 0 1 14.073 6H29a.75.75 0 0 1 .697 1.028l-2.734 6.861a3.865 3.865 0 0 1 2.12 3.492 3.872 3.872 0 0 1-.378 1.613 5.25 5.25 0 0 1 .347 2.973 5.27 5.27 0 0 1-2.564 3.611c-1.13.652-2.369.827-3.463.982l-.118.017c-.472.068-.917.132-1.33.233-1.511.369-2.711.784-3.777 1.307-1.882.925-3.826 1.883-5.852 1.883z" fill="#000000" class="color000 svgShape"></path><path d="m23.536 14.725-1.999-3.856-2.002 3.824-1.329-.695 2.67-5.1a.749.749 0 0 1 .665-.402h.001a.75.75 0 0 1 .665.405l2.661 5.135-1.332.689zM21.036 15.965h1.093v1.5h-1.093z" fill="#000000" class="color000 svgShape"></path><path d="M17.961 20.994a3.766 3.766 0 0 1-3.789-3.633v-.04a3.75 3.75 0 0 1 3.085-3.686.953.953 0 0 1 .077-.009l.059-.009a.637.637 0 0 1 .168-.019c.063-.006.119-.012.18-.012h.471c.039 0 .146.01.185.016.07 0 .139.014.205.035l.008.001a.773.773 0 0 1 .172.035l.073.015a.797.797 0 0 1 .104.021c.065.018.125.037.182.059a.54.54 0 0 1 .043.013c.045.014.11.034.183.068a.631.631 0 0 1 .066.029l.026.011c.025.006.05.015.074.023a1.354 1.354 0 0 1 .234.115c.017.008.106.059.122.069l-.001.002a.586.586 0 0 1 .373.247c.09.059.242.194.39.328.727.757 1.097 1.676 1.097 2.644a3.771 3.771 0 0 1-3.787 3.677zm-.33-5.895-.039.005a.584.584 0 0 1-.177.021c-1.043.272-1.744 1.168-1.744 2.196v.014c.043 1.199 1.048 2.16 2.289 2.16s2.246-.962 2.29-2.191c0-.565-.223-1.117-.625-1.539-.088-.078-.202-.182-.326-.273l-.017-.013c-.019-.012-.036-.022-.045-.029a1.98 1.98 0 0 1-.098-.055.736.736 0 0 1-.143-.077.72.72 0 0 1-.076-.032c-.033-.012-.064-.023-.095-.037a.613.613 0 0 1-.08-.033l-.032-.008a.728.728 0 0 1-.119-.041l-.168-.034a1.018 1.018 0 0 1-.081-.019 2.628 2.628 0 0 1-.12-.021 1.096 1.096 0 0 1-.059-.007l-.424.002a.52.52 0 0 1-.111.011zm.665-.002.012.001-.012-.001z" fill="#000000" class="color000 svgShape"></path><path d="M25.206 20.994a3.766 3.766 0 0 1-3.789-3.633v-.04a3.75 3.75 0 0 1 3.085-3.686.953.953 0 0 1 .077-.009l.059-.009a.637.637 0 0 1 .168-.019c.064-.006.119-.012.181-.012h.47c.039 0 .146.01.184.016a.66.66 0 0 1 .206.035l.01.001a.9.9 0 0 1 .17.035l.074.015a.797.797 0 0 1 .104.021c.065.018.125.037.182.059a.732.732 0 0 1 .044.013c.045.014.11.034.182.067a1.351 1.351 0 0 1 .093.04.844.844 0 0 1 .076.024c.074.029.145.063.212.104l.018.008.125.07-.001.002.054.026c.055.028.105.061.154.095.07.036.11.07.166.125.087.057.236.19.383.321.734.763 1.104 1.683 1.104 2.65-.075 2.083-1.739 3.681-3.791 3.681zm-.33-5.895-.039.005a.618.618 0 0 1-.177.021c-1.043.272-1.744 1.168-1.744 2.196v.014c.043 1.199 1.048 2.16 2.289 2.16 1.24 0 2.246-.963 2.29-2.192 0-.565-.223-1.116-.626-1.538-.093-.082-.204-.184-.325-.273a.192.192 0 0 1-.017-.013l-.045-.029a1.63 1.63 0 0 1-.099-.055.7.7 0 0 1-.142-.077.691.691 0 0 1-.079-.033 1.747 1.747 0 0 1-.069-.028l-.014-.004a.677.677 0 0 1-.088-.036l-.033-.008a.717.717 0 0 1-.118-.041l-.168-.034a.545.545 0 0 1-.058-.014l-.024-.006a2.409 2.409 0 0 1-.12-.021 1.208 1.208 0 0 1-.058-.006l-.424.002a.667.667 0 0 1-.112.01zm.665-.002.012.001-.012-.001zM10.681 20.904a3.254 3.254 0 0 1-3.251-3.249c0-1.793 1.458-3.251 3.25-3.251s3.25 1.458 3.25 3.25a3.254 3.254 0 0 1-3.249 3.25zm-.001-5c-.965 0-1.75.786-1.75 1.751 0 .964.786 1.749 1.751 1.749.964 0 1.749-.785 1.749-1.75s-.785-1.75-1.75-1.75z" fill="#000000" class="color000 svgShape"></path></svg></g></svg>