<svg id="SvgjsSvg1130" width="288" height="288" xmlns="http://www.w3.org/2000/svg" version="1.1" xmlns:xlink="http://www.w3.org/1999/xlink" xmlns:svgjs="http://svgjs.com/svgjs"><defs id="SvgjsDefs1131"></defs><g id="SvgjsG1132"><svg xmlns="http://www.w3.org/2000/svg" viewBox="0 0 36 36" width="288" height="288"><path fill="#efefef" d="M34.904 20.355c-3.782-5.791-3.38-11.727-5.203-14.518-1.823-2.791-7.256-7.603-20.093.782s-9.572 17.5-7.566 20.569c9.388 14.372 39.561 3.423 32.862-6.833z" class="colorEFEFEF svgShape"></path><path fill="#a4afc1" d="m27.673 9.432.707-.707 1.415 1.415-.707.707zM23.607 5.366l.707-.707 1.414 1.414-.707.707zM27.85 6.074l1.415-1.415.707.707-1.415 1.415zM4.164 23.413c-.827 0-1.5-.673-1.5-1.5s.673-1.5 1.5-1.5 1.5.673 1.5 1.5-.673 1.5-1.5 1.5zm0-2a.5.5 0 1 0 .002 1.002.5.5 0 0 0-.002-1.002z" class="colorA4AFC1 svgShape"></path><path fill="#f3f3f1" d="M8.068 21.563c.022.048.046.093.072.139.012.026.029.053.044.077.024.048.051.095.076.142l.147.247c.027.046.053.09.084.136.052.088.113.174.166.262.025.036.047.073.074.109.103.16.197.293.297.422.071.097.142.191.219.285.025.035.053.071.08.106l.207.251c.025.029.051.062.078.092.092.11.19.217.287.325 0 .002.003.004.005.007.121.152.252.286.394.406l.004.004c.075.076.15.153.23.227l.095.09c.104.097.208.194.318.287.002 0 .003.002.005.003l.053.047c.096.083.192.166.291.242l.117.098c.08.063.162.124.244.186l.128.097c.087.065.18.129.269.193l.1.068.027.021.264.172.113.074c.138.088.275.171.411.252.039.02.079.041.116.063.101.058.206.116.309.17.056.032.114.059.173.088.07.039.144.077.219.116a.337.337 0 0 1 .054.022l-.002-.001c.031.014.06.029.09.044a7.714 7.714 0 0 0 .423.194c.135.059.27.115.41.169.032.009.066.025.099.037.127.048.257.096.386.142l.047.017c.144.048.285.095.431.14.034.009.069.021.104.031.149.045.294.098.444.127 9.631 1.742 12.43-5.745 12.43-5.745-2.351 3.038-6.524 3.839-10.475 2.947-.146-.034-.293-.08-.44-.123a10.274 10.274 0 0 1-.622-.196l.089.027-.058-.022c-.128-.043-.25-.09-.375-.138a1.387 1.387 0 0 0-.093-.035l-.01-.003a13.679 13.679 0 0 1-.405-.17c-.029-.009-.054-.022-.083-.034a10.958 10.958 0 0 1-.468-.215l.13.057c-.035-.015-.066-.031-.1-.048-.088-.041-.176-.088-.263-.132a3.06 3.06 0 0 1-.194-.099l.019.009c-.106-.056-.212-.116-.318-.174-.032-.022-.069-.041-.105-.061a12.175 12.175 0 0 1-.47-.286l.059.035a1.797 1.797 0 0 1-.116-.077l.006.004a5.722 5.722 0 0 1-.296-.194c-.032-.021-.061-.043-.094-.066a7.958 7.958 0 0 1-.298-.213l.022.016c-.039-.032-.082-.061-.124-.093-.082-.064-.166-.126-.249-.194l-.111-.088a9.746 9.746 0 0 1-.316-.264c-.01-.009-.02-.018-.031-.025l-.001-.001-.326-.294-.094-.088c-.077-.077-.156-.152-.235-.228l-.091-.093a7.852 7.852 0 0 1-.284-.294l-.006-.006-.014-.015c-.1-.108-.196-.218-.294-.33l-.075-.09-.212-.258a14.082 14.082 0 0 1-.282-.365l-.038-.052c-2.192-2.969-2.985-7.066-1.231-10.427l-1.548 1.95c-1.993 2.84-1.746 6.535-.222 9.551.034.074.073.144.11.214z" class="colorF3F3F1 svgShape"></path><path fill="#f3f3f1" d="m14.778 17.47-.01-.015-.008-.011.018.026z" class="colorF3F3F1 svgShape"></path><path fill="#1466aa" d="m15.826 18.696.085.084c.107.103.217.203.329.303l.014.012c.113.099.239.203.369.304l.02.015c.032.021.059.047.09.068.131.101.264.198.401.293l.014.008c.058.042.12.08.186.121.026.017.056.039.084.056.099.063.197.123.298.183.016.006.03.015.045.021.085.051.176.1.265.146.031.019.061.033.093.05.063.031.125.063.185.095l.03.013c.127.062.256.119.383.177.032.012.059.022.086.035.104.045.21.088.314.128.047.016.091.035.135.048.096.035.196.068.291.101l.131.043c.137.042.276.097.421.12 7.434 1.223 9.156-4.458 9.156-4.458-1.55 2.213-4.549 3.267-7.745 2.444a6.556 6.556 0 0 1-.474-.136l.053.015c-.045-.012-.084-.026-.128-.039-.098-.033-.198-.066-.293-.101l-.135-.05c-.105-.042-.212-.081-.314-.126-.032-.014-.061-.023-.085-.037-.131-.059-.264-.116-.392-.179l-.193-.1-.112-.056a5.488 5.488 0 0 1-.249-.14.39.39 0 0 1-.061-.034l.003.001c-.1-.061-.203-.121-.298-.184-.032-.018-.061-.039-.091-.058l-.195-.127c-.135-.093-.267-.194-.401-.291-.03-.027-.059-.049-.088-.074-1.405-1.096-2.514-2.594-3.039-4.291-.554-1.764-.432-3.742.525-5.347l-1.175 1.653c-1.445 2.057-1.363 4.808-.239 6.984.205.402.414.742.643 1.065.214.305.45.662.735.907.101.115.21.224.323.335z" class="color2FDF84 svgShape"></path><path fill="#f3f3f1" d="m9.034 23.101-.004-.006-.006-.008zM12.932 22.405l.009.007.003.003z" class="colorF3F3F1 svgShape"></path><path fill="#d5dbe1" d="m14.778 17.47-.01-.015-.008-.011.018.026zM9.034 23.101l-.004-.006-.006-.008zM12.932 22.405l.009.007.003.003z" class="colorD5DBE1 svgShape"></path><path fill="#d5dbe1" d="M26.882 25c1.309-1.415 1.819-2.757 1.819-2.757-1.531 1.977-3.836 2.993-6.347 3.225 1.57.135 3.115-.014 4.528-.468zm-8.361 2.987c-.15-.029-.295-.082-.444-.127-.036-.009-.07-.021-.104-.031a15.48 15.48 0 0 1-.431-.14l-.047-.017a25.374 25.374 0 0 1-.386-.142c-.033-.012-.067-.028-.099-.037a14.01 14.01 0 0 1-.41-.169c-.024-.013-.049-.022-.071-.032a7.714 7.714 0 0 1-.44-.205.29.29 0 0 0-.054-.022 10.933 10.933 0 0 1-.219-.116c-.058-.029-.116-.056-.173-.088a13.33 13.33 0 0 1-.309-.17 1.596 1.596 0 0 0-.115-.063 24.081 24.081 0 0 1-.411-.252l-.113-.074-.264-.172-.027-.021c-.034-.021-.067-.045-.099-.068-.089-.063-.182-.128-.27-.193l-.128-.097c-.082-.062-.164-.123-.244-.186l-.117-.098c-.099-.076-.195-.159-.291-.242l-.053-.047c-.002-.001-.003-.003-.005-.003-.11-.093-.214-.19-.318-.287l-.095-.09c-.08-.074-.155-.151-.23-.227l-.004-.004a2.81 2.81 0 0 1-.394-.406c-.002-.003-.005-.005-.005-.007a10.766 10.766 0 0 1-.287-.325c-.027-.03-.053-.063-.078-.092l-.207-.251c-.026-.035-.055-.071-.08-.106a6.54 6.54 0 0 1-.219-.285 5.472 5.472 0 0 1-.297-.422c-.027-.036-.05-.073-.074-.109-.053-.087-.115-.174-.166-.262a2.503 2.503 0 0 1-.084-.136l-.149-.246c-.025-.047-.052-.093-.076-.142-.015-.024-.032-.051-.044-.077a1.302 1.302 0 0 1-.072-.139c-.038-.07-.076-.14-.111-.213-.828-1.64-1.26-3.478-1.179-5.272-.474-2.083-.318-4.281.7-6.232L8.18 11.798c-1.993 2.84-1.746 6.535-.222 9.551.035.073.073.143.111.213.022.049.046.093.072.139.012.026.029.053.044.077.024.048.051.095.076.142l.147.247c.027.046.053.09.084.136.052.088.113.174.166.262.025.036.047.073.074.109.103.16.197.293.297.422.071.097.142.191.219.285.025.035.053.071.08.106l.207.251c.025.029.051.062.078.092.092.11.19.217.287.325 0 .002.003.004.005.007.121.152.252.286.394.406l.004.004c.075.076.15.153.23.227l.095.09c.104.097.208.194.318.287.002 0 .003.002.005.003l.053.047c.096.083.193.166.291.242l.117.098c.08.063.162.124.244.186l.128.097c.087.065.18.129.27.193.033.023.066.047.099.068l.027.021.264.172.113.074c.138.088.275.17.411.252.039.02.079.041.115.063.101.058.206.116.309.17.056.032.114.059.173.088.07.039.144.077.219.116a2.391 2.391 0 0 1 .142.065c.113.056.23.109.352.162.022.009.047.019.071.032.135.059.27.115.41.169.032.009.066.025.099.037.127.047.257.096.386.142l.047.017c.144.048.285.095.431.14.034.009.068.021.104.031.149.045.294.098.444.127 1.426.258 2.685.295 3.824.203a16.857 16.857 0 0 1-1.573-.204zM17.028 17.47l-.01-.015-.008-.011.018.026z" class="colorD5DBE1 svgShape"></path><path fill="#105994" d="M27.633 19.172c1.216-1.219 1.617-2.51 1.617-2.51-1.001 1.429-2.61 2.364-4.483 2.633a7.89 7.89 0 0 0 2.866-.123zm-5.289 1.948c-.145-.023-.284-.078-.421-.12l-.131-.042c-.095-.033-.195-.065-.291-.101-.044-.014-.088-.033-.135-.048-.104-.04-.21-.083-.314-.127-.027-.013-.054-.023-.086-.035-.127-.058-.256-.115-.383-.177l-.03-.013a6.38 6.38 0 0 0-.185-.095c-.032-.018-.062-.032-.093-.05a5.238 5.238 0 0 1-.265-.146c-.015-.007-.029-.015-.045-.021a18.3 18.3 0 0 1-.298-.183c-.028-.017-.058-.039-.084-.056-.066-.041-.128-.079-.186-.121l-.014-.008a13.306 13.306 0 0 1-.401-.293c-.031-.021-.058-.047-.09-.068l-.02-.015a8.22 8.22 0 0 1-.369-.304l-.014-.012c-.112-.1-.222-.2-.329-.302l-.084-.084a6.704 6.704 0 0 1-.323-.334c-.286-.245-.521-.602-.735-.907a8.41 8.41 0 0 1-.644-1.065 7.644 7.644 0 0 1-.623-1.663c-.298-.518-.561-1.055-.738-1.626-.554-1.764-.432-3.742.525-5.347L14.363 9.41c-1.445 2.057-1.363 4.808-.239 6.984.205.402.414.742.644 1.065.214.305.45.662.735.907.101.114.209.224.323.334l.084.084c.107.103.217.203.329.302l.014.012c.113.099.239.203.369.304l.02.015c.032.021.059.047.09.068.132.101.264.198.401.293l.014.008c.058.042.12.08.186.121.026.017.056.039.084.056.099.063.197.123.298.183.016.006.03.015.045.021.085.051.177.1.265.146.031.019.061.032.093.05.063.031.125.063.185.095l.03.013c.127.062.256.119.383.177.032.012.059.022.086.035.104.045.21.087.314.127.047.016.091.035.135.048.096.036.196.068.291.101l.132.041c.137.042.276.097.421.12 1.177.194 2.196.2 3.102.097-.28-.027-.554-.048-.853-.097z" class="color00B871 svgShape"></path><path fill="#d5dbe1" d="m11.284 23.101-.004-.006-.006-.008zM15.182 22.405l.009.007.003.003z" class="colorD5DBE1 svgShape"></path><path d="M19.049 28.999a16.33 16.33 0 0 1-2.911-.273 3.537 3.537 0 0 1-.411-.11l-.113-.035-.112-.033a16.734 16.734 0 0 1-.448-.146l-.458-.168a13.232 13.232 0 0 1-1.002-.432l-.032-.017-.034-.014a.834.834 0 0 1-.092-.041l-.233-.125a2.652 2.652 0 0 1-.179-.092c-.087-.044-.2-.108-.309-.169a4.059 4.059 0 0 1-.131-.073 20.738 20.738 0 0 1-.429-.263l-1.339-.966a6.598 6.598 0 0 1-.302-.252l.002-.002a.626.626 0 0 1-.051-.039c-.107-.09-.209-.184-.31-.277l-.139-.131c-.082-.077-.165-.161-.248-.245a3.093 3.093 0 0 1-.44-.457l-.024-.027-.019-.02c-.09-.1-.17-.189-.246-.281l-.081-.095-.32-.399a5.552 5.552 0 0 1-.211-.275 5.758 5.758 0 0 1-.326-.463 9.21 9.21 0 0 0-.085-.125l-.17-.269a1.334 1.334 0 0 1-.063-.102l-.268-.464-.06-.111a.645.645 0 0 1-.058-.107c-.04-.074-.08-.148-.117-.227-1.817-3.597-1.713-7.455.285-10.304L9.14 9.382a.75.75 0 0 1 1.253.813c-1.495 2.865-1.036 6.646 1.169 9.635.132.178.229.305.298.389l.209.255a8.96 8.96 0 0 0 .62.676l.71.671a.997.997 0 0 1 .086.078c.037.027.131.106.242.195l.481.374a9.001 9.001 0 0 0 .33.233c.078.054.157.107.26.17l.045.03c.02.013.039.027.059.042.113.071.233.145.404.245.056.03.107.06.155.094l.237.125a.188.188 0 0 1 .024.014l.378.19c.023.011.046.022.067.036l.023.01c.03.013.059.028.086.044l.251.113a17.62 17.62 0 0 0 .591.242c.109.041.211.079.314.114.03.01.059.022.087.036.132.044.275.089.471.145l.106.031c.099.029.197.059.295.082 4.012.906 7.735-.12 9.715-2.676a.748.748 0 0 1 1.295.722c-.024.067-2.526 6.489-10.352 6.489zm-4.877-2.582.062.029c.131.065.236.112.346.16.02.008.109.049.128.059.069.027.196.08.327.131l.46.169c.175.06.311.104.45.147l-.117.748.214-.719.139.043c.077.024.153.05.232.065 4.077.737 6.836-.261 8.634-1.583-2.062.708-4.479.819-6.985.254-.132-.03-.26-.068-.389-.106l-.097-.028a11.918 11.918 0 0 1-.66-.208 1.12 1.12 0 0 1-.08-.033l-.24-.09-.155-.059c-.146-.059-.29-.119-.432-.181a12.036 12.036 0 0 1-.579-.262.61.61 0 0 1-.075-.043l-.113-.058c-.133-.065-.2-.101-.267-.136l-.037-.022-.263-.144-.125-.072a13.643 13.643 0 0 1-.493-.3.812.812 0 0 1-.067-.048 6.362 6.362 0 0 1-.307-.202l.046-.094-.017-.035a.758.758 0 0 1-.067-.006l-.05.073c-.13-.088-.227-.159-.323-.229a.807.807 0 0 1-.11-.1l-.007.01-.361-.282a15.071 15.071 0 0 1-.341-.284l-.824-.774a8.279 8.279 0 0 1-.3-.31c-.124-.135-.225-.25-.326-.366l-.09-.107-.212-.258a12.918 12.918 0 0 1-.305-.395c-1.615-2.188-2.418-4.73-2.363-7.152-.883 2.175-.693 4.842.596 7.392.036.077.068.135.1.192a.56.56 0 0 1 .027.055l.035.067c.008.013.059.103.065.116l.065.122.132.219c.01.014.078.125.087.14l.162.254.063.092c.089.138.17.253.257.365.076.103.14.187.208.271l.064.084.221.27-.5.57.575-.481c.081.097.167.191.253.286.02.021.037.044.055.068.113.132.196.216.286.291.123.121.19.189.263.256l.101.096c.103.095.181.168.262.237a8.109 8.109 0 0 0 .346.291l.736.557c.022.014.106.072.127.088l.354.232c.122.078.254.157.384.235a10.55 10.55 0 0 0 .387.212l.355.186.01.004.063.031z" fill="#000000" class="color000 svgShape"></path><path d="M14.776 18.219a.747.747 0 0 1-.623-.333l-.018-.026a.75.75 0 0 1 1.223-.866c.009.012.02.026.029.041.013.018.024.037.033.052a.75.75 0 0 1-.644 1.132z" fill="#000000" class="color000 svgShape"></path><path d="M22.098 22.042c-.656 0-1.362-.057-2.125-.182a2.839 2.839 0 0 1-.425-.113l-.102-.033-.132-.042-.106-.036-.219-.077-.142-.051a8.174 8.174 0 0 1-.442-.181l-.616-.293.234-.725-.348.665a5.218 5.218 0 0 1-.273-.151.918.918 0 0 1-.075-.04l-.312-.192-.094-.062a10.457 10.457 0 0 1-.649-.457l.367-.662-.45.6a8.593 8.593 0 0 1-.801-.693l-.09-.088a6.828 6.828 0 0 1-.326-.336c-.311-.277-.548-.618-.759-.921l-.062-.089a9.18 9.18 0 0 1-.696-1.153c-1.327-2.569-1.213-5.615.293-7.757l1.177-1.656a.75.75 0 0 1 1.256.818c-.809 1.355-.974 3.083-.453 4.739.461 1.491 1.45 2.884 2.784 3.925l.197.153c.084.062.168.125.254.183l.182.117.1.063.274.169.023.016c.1.055.162.092.23.126l.307.157c.079.038.175.081.271.124.024.011.13.06.152.073l.602.223.095.032a.17.17 0 0 1 .027.01 6.521 6.521 0 0 0 .461.133c2.8.721 5.527-.122 6.946-2.147a.751.751 0 0 1 1.332.648c-.015.058-1.643 5.163-7.867 5.163zm-4.935-3.175c.149.114.272.204.399.293.064.044.112.073.161.103l.085.057.293.18c.117.065.195.107.271.146l.575.282.181.078c.065.028.161.066.257.103l-.134.749.262-.703.174.061.101.034.231.074c.063.021.128.045.193.056 2.031.333 3.587.118 4.774-.347a9.105 9.105 0 0 1-3.669-.2 8.18 8.18 0 0 1-.548-.159l-.61-.218a4.943 4.943 0 0 1-.248-.101c-.024-.011-.135-.061-.158-.074-.123-.05-.235-.1-.345-.154l-.313-.16a4.787 4.787 0 0 1-.277-.154c-.012-.007-.095-.054-.106-.062l-.005-.003-.063-.039a4.804 4.804 0 0 1-.232-.145l-.277-.179a9.745 9.745 0 0 1-.312-.224l-.12-.088.438-.609-.534.531c-1.587-1.238-2.757-2.894-3.308-4.672a7.968 7.968 0 0 1-.235-.946c-.119 1.204.121 2.494.729 3.669.185.358.371.667.589.975l.068.097c.177.254.359.517.544.675a.63.63 0 0 1 .073.073c.089.1.187.197.286.295l.001.001.085.083a8.147 8.147 0 0 0 .645.561l-.372.659.451-.598zM9.024 23.847a.737.737 0 0 1-.588-.293l-.01-.014c-.009-.012-.019-.025-.026-.037a.75.75 0 0 1 1.206-.889c.018.021.034.044.049.065h-.001a.758.758 0 0 1-.63 1.168zM12.941 23.164a.743.743 0 0 1-.485-.179.75.75 0 1 1 .967-1.147l.011.009a.752.752 0 0 1-.493 1.317zm-.042-.718-.545.436.545-.436z" fill="#000000" class="color000 svgShape"></path><path d="M24.476 15.954c-.472 0-.969-.05-1.49-.149a9.256 9.256 0 0 1-.459-.135l-.195-.07c-1.693-.615-3.12-1.94-3.806-3.539-.704-1.642-.548-3.462.419-4.869l.644-.884 1.213.884-.632.867c-.672.978-.772 2.228-.265 3.411.525 1.226 1.628 2.244 2.949 2.725l.11.04.121.039c.121.039.161.053.202.062 3.137.599 4.152-1.188 4.585-1.952.066-.116.119-.207.16-.263l1.225.865c-.02.03-.046.078-.079.138-1.068 1.882-2.646 2.83-4.702 2.83z" fill="#000000" class="color000 svgShape"></path></svg></g></svg>