<svg id="SvgjsSvg1062" width="288" height="288" xmlns="http://www.w3.org/2000/svg" version="1.1" xmlns:xlink="http://www.w3.org/1999/xlink" xmlns:svgjs="http://svgjs.com/svgjs"><defs id="SvgjsDefs1063"></defs><g id="SvgjsG1064"><svg xmlns="http://www.w3.org/2000/svg" viewBox="0 0 36 36" width="288" height="288"><path fill="#efefef" d="M27.417 3.914C20.502 4.043 15.685.549 12.353.612S2.057 2.721 2.344 18.052s9.744 17.404 13.41 17.336c17.163-.321 23.911-31.703 11.663-31.474z" class="colorEFEFEF svgShape"></path><path fill="#a4afc1" d="M32.665 28.02c-.827 0-1.5-.673-1.5-1.5s.673-1.5 1.5-1.5 1.5.673 1.5 1.5-.673 1.5-1.5 1.5zm0-2c-.275 0-.5.225-.5.5s.225.5.5.5.5-.225.5-.5-.225-.5-.5-.5zM3.75.611h1v2h-1zM3.75 6.361h1v2h-1zM.25 3.861h2v1h-2zM6 3.861h2v1H6z" class="colorA4AFC1 svgShape"></path><path fill="#f3f3f1" d="M29.25 8.75v18.5c0 1.1-.9 2-2 2H8.75c-1.1 0-2-.9-2-2V8.75c0-1.1.9-2 2-2h18.5a2.005 2.005 0 0 1 2 2z" class="colorF3F3F1 svgShape"></path><path fill="#f34d3c" d="m27.05 16.38-15.2 3.95 5.114 8.92H20.5l8.75-3.46v-6.364zM22.19 9.5l4.86 6.88 2.2-.775V8.75c0-.09-.01-.18-.02-.26l-.15-.24-6.89 1.25zM11.85 20.33l-5.1-8.85v10.13z" class="color2FDF84 svgShape"></path><path fill="#d5dbe1" d="M9 27.25V8.75c0-1.1.9-2 2-2H8.75c-1.1 0-2 .9-2 2v18.5c0 1.1.9 2 2 2H11c-1.1 0-2-.9-2-2z" class="colorD5DBE1 svgShape"></path><path fill="#d44433" d="m27.406 16.872-.356-.492-15.2 3.95 5.114 8.92h2.25L14.1 20.33zM24.44 9.5l4.801-.871c-.004-.047-.005-.096-.011-.139l-.15-.24-6.89 1.25 4.86 6.88 1.802-.634L24.44 9.5zM9 15.384 6.75 11.48v10.13L9 21.045z" class="color00B871 svgShape"></path><path d="m20.223 28.552 8.75-3.456.551 1.394-8.75 3.457zM28.64 19.896l-7.062-9.963a.75.75 0 0 1 .479-1.171l6.89-1.25a.753.753 0 0 1 .77.34l.15.24-.732.458.079.438-5.732 1.04 6.379 8.996-1.221.872z" fill="#000000" class="color000 svgShape"></path><path d="m6.933 22.338-.366-1.455 5.1-1.28 17.401-4.5.364 1.455-2.201.549z" fill="#000000" class="color000 svgShape"></path><path d="m6.101 11.855 1.299-.749 10.24 17.77-1.298.748z" fill="#000000" class="color000 svgShape"></path><path d="M27.25 30H8.75A2.752 2.752 0 0 1 6 27.25V8.75A2.752 2.752 0 0 1 8.75 6h18.5A2.76 2.76 0 0 1 30 8.75v18.5A2.752 2.752 0 0 1 27.25 30zM8.75 7.5c-.689 0-1.25.561-1.25 1.25v18.5c0 .689.561 1.25 1.25 1.25h18.5c.689 0 1.25-.561 1.25-1.25V8.75c0-.059-.008-.117-.014-.169A1.254 1.254 0 0 0 27.25 7.5H8.75z" fill="#000000" class="color000 svgShape"></path></svg></g></svg>