<svg id="SvgjsSvg1107" width="288" height="288" xmlns="http://www.w3.org/2000/svg" version="1.1" xmlns:xlink="http://www.w3.org/1999/xlink" xmlns:svgjs="http://svgjs.com/svgjs"><defs id="SvgjsDefs1108"></defs><g id="SvgjsG1109"><svg xmlns="http://www.w3.org/2000/svg" viewBox="0 0 36 36" width="288" height="288"><path fill="#efefef" d="M8.377 4.167c6.917 0 11.667-3.583 15-3.583S33.71 2.5 33.71 17.833s-9.417 17.583-13.083 17.583C3.46 35.417-3.873 4.167 8.377 4.167z" class="colorEFEFEF svgShape"></path><path fill="#a4afc1" d="M23.25 29.837c-.827 0-1.5-.673-1.5-1.5s.673-1.5 1.5-1.5 1.5.673 1.5 1.5-.673 1.5-1.5 1.5zm0-2c-.275 0-.5.225-.5.5s.225.5.5.5.5-.225.5-.5-.225-.5-.5-.5zM17.875.583h1v2h-1zM20.375 4.083h2v1h-2zM14.625 4.083h2v1h-2z" class="colorA4AFC1 svgShape"></path><path fill="#50b241" d="M18.437 6.75c-.091.578-.396 1.005-.801 1.378-2.435 2.242-3.72 5.643-3.875 9.075a10.71 10.71 0 0 0 1.266 5.547c.258.484.536.924.818 1.32.973 1.366 1.966 2.175 2.219 2.371.389.96.806 1.214.968.443.05-.241.17-.447.308-.621a7.5 7.5 0 0 0 .704-.605c.016-.018.025-.034.039-.051 1.343-1.331 3.851-4.608 2.991-9.947-1.115-5.218-3.745-6.933-4.028-7.59a4.73 4.73 0 0 1-.609-1.32z" class="color2FDF84 svgShape"></path><path fill="#3f9a39" d="M18.095 24.069c-.282-.395-.56-.835-.817-1.319a10.702 10.702 0 0 1-1.266-5.547c.144-3.213 1.293-6.384 3.434-8.617-.201-.223-.344-.39-.399-.517a4.683 4.683 0 0 1-.609-1.319c-.091.578-.396 1.005-.802 1.378-2.435 2.242-3.72 5.643-3.875 9.075a10.71 10.71 0 0 0 1.266 5.547c.258.484.536.924.817 1.319.973 1.366 1.966 2.174 2.219 2.371.389.96.806 1.214.968.443.051-.241.17-.447.308-.621a6.88 6.88 0 0 0 .392-.321 12.522 12.522 0 0 1-1.636-1.872z" class="color00B871 svgShape"></path><path d="M18.986 30a.77.77 0 0 1-.251-.043l-.568-.202a.75.75 0 0 1-.499-.723c.008-.384-.022-1.451-.237-2.139a12.757 12.757 0 0 1-2.196-2.389c-.32-.449-.613-.922-.869-1.402a11.45 11.45 0 0 1-1.353-5.935c.172-3.843 1.672-7.339 4.115-9.591.345-.317.515-.6.568-.942a.752.752 0 0 1 .699-.633.728.728 0 0 1 .766.551c.102.369.286.77.508 1.099.026.039.049.08.067.123.032.054.224.264.377.432.905.996 2.79 3.067 3.694 7.298.929 5.757-1.865 9.302-3.157 10.597l-.045.055a8.904 8.904 0 0 1-.727.641.651.651 0 0 0-.111.239c-.104.489-.075 1.585-.033 2.161a.747.747 0 0 1-.748.803zM18.39 8.435a4.741 4.741 0 0 1-.246.245c-2.154 1.985-3.479 5.104-3.633 8.557a9.954 9.954 0 0 0 1.179 5.161c.226.424.483.84.766 1.236.928 1.303 1.886 2.072 2.068 2.213a.715.715 0 0 1 .112.108c.036-.054.075-.106.117-.159a.73.73 0 0 1 .138-.134c.081-.061.312-.238.594-.508a1.08 1.08 0 0 1 .071-.082c1.377-1.364 3.569-4.386 2.778-9.294-.812-3.796-2.45-5.597-3.33-6.563-.29-.318-.491-.539-.61-.774l-.004-.006z" fill="#000000" class="color000 svgShape"></path></svg></g></svg>