<svg id="SvgjsSvg1001" width="288" height="288" xmlns="http://www.w3.org/2000/svg" version="1.1" xmlns:xlink="http://www.w3.org/1999/xlink" xmlns:svgjs="http://svgjs.com/svgjs"><defs id="SvgjsDefs1002"></defs><g id="SvgjsG1008"><svg xmlns="http://www.w3.org/2000/svg" viewBox="0 0 36 36" width="288" height="288"><path fill="#efefef" d="M27.417 3.914C20.502 4.043 15.685.549 12.353.612S2.057 2.721 2.344 18.052s9.744 17.404 13.41 17.336c17.163-.321 23.911-31.703 11.663-31.474z" class="colorEFEFEF svgShape"></path><path fill="#a4afc1" d="M2.5 17h1v2h-1zM2.5 22.75h1v2h-1zM-1 20.25h2v1h-2zM30 11.607c-.827 0-1.5-.673-1.5-1.5s.673-1.5 1.5-1.5 1.5.673 1.5 1.5-.673 1.5-1.5 1.5zm0-2a.5.5 0 1 0 .002 1.002A.5.5 0 0 0 30 9.607z" class="colorA4AFC1 svgShape"></path><path fill="#e18c08" d="M29.25 17.077c-.046-.059-.06-.144-.105-.21-.067-.066-.134-.125-.2-.189a3.215 3.215 0 0 0-.695-.663c-.214-.143-.682-.344-.77-.584l-.013-.014c.146-.013.32-.065.46-.104.227-.059.435-.046.67-.104.106-.026.213-.059.32-.092v-.059c-.12-.118-.21-.278-.334-.388a8.86 8.86 0 0 0-1.104-.808c-.21-.132-.476-.216-.697-.328-.08-.039-.214-.059-.26-.125-.12-.143-.19-.334-.275-.505-.192-.361-.38-.761-.547-1.142-.12-.257-.193-.513-.34-.749-.69-1.116-1.437-1.793-2.586-2.454-.247-.137-.543-.196-.856-.269-.167-.008-.334-.02-.5-.027-.11-.046-.216-.171-.31-.231-.38-.236-1.364-.746-1.644-.071-.18.426.267.846.422 1.062.115.15.26.322.34.491.047.114.06.231.107.35.106.289.207.61.347.881.073.137.153.282.247.405.054.072.146.105.167.223-.094.134-.1.328-.154.491-.24.743-.146 1.662.194 2.209.107.163.362.524.703.386.3-.118.234-.491.32-.82.02-.079.007-.131.048-.184v.015c.094.185.188.36.274.545.206.322.566.656.867.879.16.118.287.322.487.395v-.02h-.015c-.043-.057-.1-.084-.154-.131l5.586 1.939z" class="color2FDF84 svgShape"></path><path fill="#e18c08" d="M29.145 16.866c-.067-.066-.134-.125-.2-.189a3.215 3.215 0 0 0-.695-.663c-.069-.046-.165-.1-.265-.157l-2.071-.719c.054.046.111.074.154.131h.015v.02c-.2-.073-.327-.277-.487-.395-.301-.223-.661-.557-.867-.879-.086-.185-.18-.36-.274-.545v-.015c-.041.053-.028.105-.048.184-.086.329-.02.702-.32.82-.341.138-.596-.223-.703-.386-.34-.547-.434-1.466-.194-2.209.054-.163.06-.357.154-.491-.021-.118-.113-.151-.167-.223a3.042 3.042 0 0 1-.247-.405c-.14-.27-.241-.592-.347-.881-.047-.119-.06-.236-.107-.35-.08-.169-.225-.341-.34-.491-.116-.162-.397-.439-.454-.747l-.264-.014c-.11-.046-.216-.171-.31-.231-.38-.236-1.364-.746-1.644-.071-.18.426.267.846.422 1.062.115.15.26.322.34.491.047.114.06.231.107.35.106.289.207.61.347.881.073.137.153.282.247.405.054.072.146.105.167.223-.094.134-.1.328-.154.491-.24.743-.146 1.662.194 2.209.107.163.362.524.703.386.3-.118.234-.491.32-.82.02-.079.007-.131.048-.184v.015c.094.185.188.36.274.545.206.322.566.656.867.879.16.118.287.322.487.395v-.02h-.015c-.043-.057-.1-.084-.154-.131l5.586 1.938c-.046-.057-.06-.143-.105-.209z" class="color00B871 svgShape"></path><path d="M9.44 25.625a.75.75 0 0 1-.721-.544l-.791-2.772-.438 2.687-1.48-.242.978-6a.75.75 0 0 1 .697-.628.743.743 0 0 1 .765.543l.991 3.473.991-3.473a.75.75 0 0 1 1.462.085l.978 6-1.48.242-.438-2.687-.791 2.771a.753.753 0 0 1-.723.545zM12.397 21.614l1.423-.476 1.17 3.5-1.423.477z" fill="#000000" class="color000 svgShape"></path><path d="M12.13 27.125v-1.5c2.147 0 2.673-4.288 2.678-4.331l1.491.162c-.025.232-.656 5.669-4.169 5.669zm6.363-1.5h-1.471v-1.5h1.471c.394 0 .713-.335.713-.746s-.32-.746-.713-.746c-1.229 0-2.221-1.008-2.221-2.246 0-1.254.993-2.262 2.213-2.262h1.471v1.5h-1.471c-.394 0-.713.335-.713.746 0 .427.32.762.713.762 1.229 0 2.221 1.008 2.221 2.246s-.992 2.246-2.213 2.246z" fill="#000000" class="color000 svgShape"></path><path d="M23.38 25.625c-1.518 0-2.707-1.647-2.707-3.75s1.189-3.75 2.707-3.75 2.707 1.647 2.707 3.75-1.189 3.75-2.707 3.75zm0-6c-.569 0-1.207.962-1.207 2.25s.637 2.25 1.207 2.25 1.207-.962 1.207-2.25-.637-2.25-1.207-2.25z" fill="#000000" class="color000 svgShape"></path><path d="m22.917 23.471 1.072-1.048 2.41 2.462-1.073 1.05z" fill="#000000" class="color000 svgShape"></path><path d="M29.25 25.625h-2.446a.75.75 0 0 1-.75-.75v-6h1.5v5.25h1.696v1.5zM28.66 17.539a1.037 1.037 0 0 1-.134-.227l-.109-.104a.832.832 0 0 1-.068-.077 2.461 2.461 0 0 0-.533-.506c-.025-.017-.08-.046-.138-.079-.3-.171-.707-.401-.881-.807a.757.757 0 0 1 .561-1.066 6.317 6.317 0 0 0-.268-.172c-.102-.064-.212-.106-.319-.152a5.875 5.875 0 0 1-.328-.148.958.958 0 0 1-.537-.366c-.111-.128-.203-.326-.277-.485l-.052-.111a17.38 17.38 0 0 1-.689-1.476c-.048-.12-.092-.24-.163-.353-.604-.978-1.233-1.573-2.324-2.202-.12-.066-.332-.114-.557-.166l-.46-.03a.744.744 0 0 1-.254-.057 1.446 1.446 0 0 1-.394-.263 3.393 3.393 0 0 0-.282-.162l.043.058c.159.202.306.39.408.605.053.127.079.218.103.311l.03.103.073.204c.071.2.142.408.236.59.051.097.108.204.178.296a.886.886 0 0 1 .308.545.75.75 0 0 1-.125.563c.021-.028.018.003.011.036a2.6 2.6 0 0 1-.067.26c-.1.308-.116.649-.078.949.012-.019.025-.036.039-.055a.75.75 0 0 1 1.299.21l.029.057c.066.129.131.255.193.385.137.197.39.446.659.646.086.063.171.145.255.229l.05.052.033.014.018-.021c.043.03.103.074.167.137a.74.74 0 0 1 .268.566.77.77 0 0 1-.321.625.755.755 0 0 1-.688.099c-.283-.104-.469-.292-.592-.417-.027-.027-.053-.056-.081-.078a5.288 5.288 0 0 1-.549-.47c-.07.05-.15.094-.243.129-.268.111-.983.271-1.603-.673-.477-.766-.585-1.905-.281-2.851.013-.038.019-.072.026-.106l.005-.024a4.478 4.478 0 0 1-.24-.407 6.346 6.346 0 0 1-.321-.784l-.067-.189a2.14 2.14 0 0 1-.075-.244 1.205 1.205 0 0 0-.199-.314l-.064-.082-.085-.108c-.227-.279-.759-.933-.434-1.703.146-.354.424-.613.78-.729.664-.211 1.426.129 1.95.453.059.037.117.082.175.131l.275.016c.045.002.09.008.134.019.407.093.735.167 1.052.344 1.305.752 2.131 1.537 2.859 2.715.116.187.199.384.28.586.032.079.063.159.101.24.167.382.347.763.53 1.108l.08.168.051.107.07.031c.084.042.164.075.243.108.182.077.365.158.524.259.388.236.792.531 1.191.871.113.1.202.207.287.318.027.035.053.073.085.104a.75.75 0 0 1 .226.537c0 .313-.194.646-.485.761.117.114.224.232.321.355l.166.157a.775.775 0 0 1 .097.116c.066.097.103.188.125.241l.001.003c-.001 0-.019-.035-.051-.077l-1.179.924zm-1.577-4.631a.083.083 0 0 0 .012.017.066.066 0 0 0-.012-.017z" fill="#000000" class="color000 svgShape"></path><path d="m23.176 10.145-1.498-.074c.044-.892-.278-1.139-.292-1.149l.742-1.302c.118.062 1.142.658 1.048 2.525z" fill="#000000" class="color000 svgShape"></path></svg></g></svg>