<svg id="SvgjsSvg1105" width="288" height="288" xmlns="http://www.w3.org/2000/svg" version="1.1" xmlns:xlink="http://www.w3.org/1999/xlink" xmlns:svgjs="http://svgjs.com/svgjs"><defs id="SvgjsDefs1106"></defs><g id="SvgjsG1107"><svg xmlns="http://www.w3.org/2000/svg" viewBox="0 0 36 36" width="288" height="288"><path fill="#efefef" d="M8.377 4.167c6.917 0 11.667-3.583 15-3.583S33.71 2.5 33.71 17.833s-9.417 17.583-13.083 17.583C3.46 35.417-3.873 4.167 8.377 4.167z" class="colorEFEFEF svgShape"></path><path fill="#a4afc1" d="M27.682 11.393c-.827 0-1.5-.673-1.5-1.5s.673-1.5 1.5-1.5 1.5.673 1.5 1.5-.673 1.5-1.5 1.5zm0-2c-.275 0-.5.225-.5.5s.225.5.5.5.5-.225.5-.5-.225-.5-.5-.5zM10.225 28.004h2v1h-2zM4.475 28.004h2v1h-2zM7.975 24.504h1v2h-1zM7.975 30.254h1v2h-1z" class="colorA4AFC1 svgShape"></path><path fill="#44aebe" d="M6.75 18 18 6.75 29.25 18 18 29.25z" class="color2FDF84 svgShape"></path><path fill="#428ea4" d="M9 18 19.125 7.875 18 6.75 6.75 18 18 29.25l1.125-1.125z" class="color00B871 svgShape"></path><path d="M18 30a.744.744 0 0 1-.53-.22L6.22 18.53a.75.75 0 0 1 0-1.061L17.47 6.22a.75.75 0 0 1 1.061 0l11.25 11.25a.75.75 0 0 1 0 1.061L18.53 29.78A.744.744 0 0 1 18 30zM7.811 18 18 28.189 28.189 18 18 7.811 7.811 18z" fill="#000000" class="color000 svgShape"></path><path d="m10.53 21.987 8.987-13.513 1.248.83-8.987 13.513z" fill="#000000" class="color000 svgShape"></path><path d="m13.087 12.067.579-1.385 15.873 6.626-.578 1.385z" fill="#000000" class="color000 svgShape"></path><path d="m19.823 26.571 2.265-15.105 1.484.223-2.265 15.105z" fill="#000000" class="color000 svgShape"></path><path d="m6.591 18.733.317-1.467 18.5 4-.317 1.467z" fill="#000000" class="color000 svgShape"></path><path d="m9.393 20.326 15.347-7.199.636 1.357-15.346 7.2z" fill="#000000" class="color000 svgShape"></path><path d="m9.506 15.013 1.267-.803 8.731 13.768-1.267.803z" fill="#000000" class="color000 svgShape"></path></svg></g></svg>