<svg id="SvgjsSvg1001" width="288" height="288" xmlns="http://www.w3.org/2000/svg" version="1.1" xmlns:xlink="http://www.w3.org/1999/xlink" xmlns:svgjs="http://svgjs.com/svgjs"><defs id="SvgjsDefs1002"></defs><g id="SvgjsG1008"><svg xmlns="http://www.w3.org/2000/svg" viewBox="0 0 36 36" width="288" height="288"><path fill="#efefef" d="M27.417 3.914C20.502 4.043 15.685.549 12.353.612S2.057 2.721 2.344 18.052s9.744 17.404 13.41 17.336c17.163-.321 23.911-31.703 11.663-31.474z" class="colorEFEFEF svgShape"></path><path fill="#a4afc1" d="m6.54 8.479 1.415-1.415.707.707-1.415 1.415zM2.474 12.544l1.415-1.415.707.707-1.415 1.415zM2.474 7.594l.707-.707 1.415 1.415-.707.707zM30 9.987c-.827 0-1.5-.673-1.5-1.5s.673-1.5 1.5-1.5 1.5.673 1.5 1.5-.673 1.5-1.5 1.5zm0-2a.5.5 0 1 0 .002 1.002A.5.5 0 0 0 30 7.987z" class="colorA4AFC1 svgShape"></path><path fill="#f3f3f1" d="M7.75 12.25v11.5L18 29.25l10.25-5.5v-11.5L18 6.75z" class="colorF3F3F1 svgShape"></path><path fill="#ffffff" d="M15.24 22.292c0 .674-.719 1.207-1.367 1.207h-.07c-.663 0-1.303-.561-1.303-1.207v-8.586c0-.659.58-1.207 1.38-1.207.594 0 1.27.239 1.684.758l5.182 5.888v-5.439c0-.674.703-1.207 1.338-1.207h.069c.662 0 1.347.561 1.347 1.207v8.587c0 .659-.58 1.207-1.393 1.207-.581 0-1.243-.239-1.657-.758l-5.21-5.888v5.438z" class="color2FDF84 svgShape"></path><path fill="#d5dbe1" d="M10 23.75v-11.5l9.125-4.896L18 6.75l-10.25 5.5v11.5L18 29.25l1.125-.604z" class="colorD5DBE1 svgShape"></path><path fill="#ffffff" d="M22.996 19.146v-5.439c0-.249.097-.478.249-.668a1.46 1.46 0 0 0-1.093-.538h-.069c-.635 0-1.338.532-1.338 1.207v2.883l2.251 2.555zm-.296 3.596-5.21-5.888v2.543l2.96 3.345c.414.519 1.077.758 1.657.758.418 0 .77-.148 1.018-.379a1.86 1.86 0 0 1-.425-.379zm-7.95-.45v-8.586c0-.322.142-.615.377-.833a2.308 2.308 0 0 0-1.247-.374c-.801 0-1.38.547-1.38 1.207v8.586c0 .645.639 1.207 1.303 1.207h.07c.41 0 .847-.214 1.114-.542a1.101 1.101 0 0 1-.237-.665z" class="color00B871 svgShape"></path><path d="M18 30a.738.738 0 0 1-.354-.089l-10.25-5.5A.75.75 0 0 1 7 23.75v-11.5a.75.75 0 0 1 .396-.661l10.25-5.5a.749.749 0 0 1 .709 0l10.25 5.5a.752.752 0 0 1 .395.661v11.5a.75.75 0 0 1-.396.661l-10.25 5.5A.738.738 0 0 1 18 30zm-9.5-6.698 9.5 5.097 9.5-5.097V12.698L18 7.602l-9.5 5.097v10.603z" fill="#000000" class="color000 svgShape"></path><path d="M22.107 24.25c-.886 0-1.725-.389-2.244-1.04l-3.874-4.377v3.459c0 1.153-1.116 1.957-2.117 1.957-1.164 0-2.123-.914-2.123-1.957v-8.585c0-1.098.936-1.957 2.13-1.957.902 0 1.751.389 2.27 1.04l3.846 4.369v-3.452c0-1.153 1.1-1.957 2.087-1.957 1.186 0 2.166.914 2.166 1.957v8.586c.002 1.098-.939 1.957-2.141 1.957zm-6.867-8.146c.21 0 .417.089.562.253l5.21 5.888c.638.796 1.738.547 1.738.048v-8.586c0-.188-.309-.457-.597-.457-.338 0-.657.248-.657.457v5.438a.75.75 0 0 1-1.313.495L15 13.752c-.253-.316-.684-.503-1.121-.503-.359 0-.63.196-.63.457v8.585c0 .195.273.457.553.457.353 0 .687-.248.687-.457v-5.438a.75.75 0 0 1 .751-.749z" fill="#000000" class="color000 svgShape"></path></svg></g></svg>