<svg id="SvgjsSvg1116" width="288" height="288" xmlns="http://www.w3.org/2000/svg" version="1.1" xmlns:xlink="http://www.w3.org/1999/xlink" xmlns:svgjs="http://svgjs.com/svgjs"><defs id="SvgjsDefs1117"></defs><g id="SvgjsG1118"><svg xmlns="http://www.w3.org/2000/svg" viewBox="0 0 36 36" width="288" height="288"><path fill="#efefef" d="M8.377 4.167c6.917 0 11.667-3.583 15-3.583S33.71 2.5 33.71 17.833s-9.417 17.583-13.083 17.583C3.46 35.417-3.873 4.167 8.377 4.167z" class="colorEFEFEF svgShape"></path><path fill="#a4afc1" d="M19.875 3.5h2v1h-2zM14.125 3.5h2v1h-2zM17.625 0h1v2h-1zM26.049 30.75c-.827 0-1.5-.673-1.5-1.5s.673-1.5 1.5-1.5 1.5.673 1.5 1.5-.673 1.5-1.5 1.5zm0-2c-.275 0-.5.225-.5.5s.225.5.5.5.5-.225.5-.5-.225-.5-.5-.5z" class="colorA4AFC1 svgShape"></path><path fill="#88c043" d="m27.224 11.984-8.697-5.091a1.038 1.038 0 0 0-1.05 0l-.002.001-8.703 5.091c-.325.19-.524.542-.523.922v10.185c0 .379.2.731.524.921l2.688 1.574 3.612 2.115 2.403 1.407c.325.19.724.19 1.049 0l8.699-5.094c.325-.192.524-.542.525-.921V12.906c.001-.379-.2-.731-.525-.922z" class="color2FDF84 svgShape"></path><path fill="#536641" d="m17.323 27.7-3.612-2.115-2.688-1.574a1.067 1.067 0 0 1-.523-.92V12.906c-.001-.38.198-.731.523-.922l8.104-4.74-.6-.351a1.038 1.038 0 0 0-1.05 0l-.002.001-8.703 5.091c-.325.19-.524.542-.523.922v10.185c0 .379.2.731.524.921l2.688 1.574 3.612 2.115 2.403 1.407c.325.19.724.19 1.049 0l.6-.351-1.802-1.058z" class="color00B871 svgShape"></path><path d="M12.836 26.853c-.418 0-.836-.106-1.219-.32l-.523-.293.732-1.309.522.292a.981.981 0 0 0 .992-.011.99.99 0 0 0 .497-.871V13.598h1.5v10.743c0 .9-.463 1.709-1.238 2.164a2.49 2.49 0 0 1-1.263.348z" fill="#000000" class="color000 svgShape"></path><path d="M18.002 29.999c-.313 0-.626-.081-.904-.244l-2.403-1.407.758-1.295 2.403 1.407c.09.054.198.055.292 0l8.699-5.094a.316.316 0 0 0 .153-.275V12.906a.32.32 0 0 0-.156-.276l-8.695-5.09a.284.284 0 0 0-.29-.001l-8.707 5.093a.314.314 0 0 0-.152.272v10.187c0 .112.06.22.152.273l2.688 1.574-.758 1.295-2.688-1.574a1.824 1.824 0 0 1-.894-1.568V12.906a1.818 1.818 0 0 1 .893-1.568l8.704-5.092a1.792 1.792 0 0 1 1.81-.001l8.697 5.091c.554.326.896.928.896 1.57v10.187a1.83 1.83 0 0 1-.893 1.566l-8.702 5.096a1.786 1.786 0 0 1-.903.244z" fill="#000000" class="color000 svgShape"></path><path d="M20.438 23.152c-2.248 0-4.65-.775-4.65-2.951h1.5c0 1.146 1.98 1.451 3.15 1.451 2.09 0 3.15-.225 3.15-1.451 0-.616-.752-.857-2.599-1.297l-.732-.177c-.224-.055-.461-.107-.704-.161-1.589-.351-3.766-.83-3.766-2.768 0-2.176 2.402-2.951 4.65-2.951s4.65.775 4.65 2.951h-1.5c0-1.146-1.98-1.451-3.15-1.451s-3.15.306-3.15 1.451c0 .678 1.122.979 2.589 1.303.257.057.507.112.742.171l.718.173c1.93.459 3.752.893 3.752 2.756 0 2.951-3.141 2.951-4.65 2.951z" fill="#000000" class="color000 svgShape"></path></svg></g></svg>