<svg id="SvgjsSvg1096" width="288" height="288" xmlns="http://www.w3.org/2000/svg" version="1.1" xmlns:xlink="http://www.w3.org/1999/xlink" xmlns:svgjs="http://svgjs.com/svgjs"><defs id="SvgjsDefs1097"></defs><g id="SvgjsG1098"><svg xmlns="http://www.w3.org/2000/svg" viewBox="0 0 36 36" width="288" height="288"><path fill="#efefef" d="M27.417 3.914C20.502 4.043 15.685.549 12.353.612S2.057 2.721 2.344 18.052s9.744 17.404 13.41 17.336c17.163-.321 23.911-31.703 11.663-31.474z" class="colorEFEFEF svgShape"></path><path fill="#a4afc1" d="M29.25 25.96c-.827 0-1.5-.673-1.5-1.5s.673-1.5 1.5-1.5 1.5.673 1.5 1.5-.673 1.5-1.5 1.5zm0-2a.5.5 0 1 0 .002 1.002.5.5 0 0 0-.002-1.002zM3.184 6.341h1v2h-1zM3.184 12.091h1v2h-1zM-.316 9.591h2v1h-2zM5.434 9.591h2v1h-2z" class="colorA4AFC1 svgShape"></path><path fill="#f3f3f1" d="M13.598 21.306v.944h3.913v-.944H29.25V13.75H6.75v7.556z" class="colorF3F3F1 svgShape"></path><path fill="#c33737" d="M20.358 13.81v7.384h8.892V13.75z" class="color2FDF84 svgShape"></path><path fill="#d5dbe1" d="M6.75 13.75H9v7.556H6.75zM13.598 21.306h2.25v.944h-2.25z" class="colorD5DBE1 svgShape"></path><path fill="#c33737" d="M29.25 13.765v-.015l-8.892.06v7.384h2.25V13.81z" class="color00B871 svgShape"></path><path d="M17.511 23h-3.913a.75.75 0 0 1-.75-.75v-.194H6.75a.75.75 0 0 1-.75-.75V13.75a.75.75 0 0 1 .75-.75h22.5a.75.75 0 0 1 .75.75v7.556a.75.75 0 0 1-.75.75H18.261v.194a.75.75 0 0 1-.75.75zm-3.163-1.5h2.413v-.194a.75.75 0 0 1 .75-.75H28.5V14.5h-21v6.056h6.098a.75.75 0 0 1 .75.75v.194z" fill="#000000" class="color000 svgShape"></path><path d="M12.848 13.75h1.5v7.556h-1.5zM19.696 13.75h1.5v7.556h-1.5zM22.63 16.583h1.5v4.723h-1.5zM9.913 16.583h1.5v4.723h-1.5zM25.565 16.583h1.5v4.723h-1.5zM16.761 16.583h1.5v1.89h-1.5z" fill="#000000" class="color000 svgShape"></path></svg></g></svg>