<svg id="SvgjsSvg1018" width="288" height="288" xmlns="http://www.w3.org/2000/svg" version="1.1" xmlns:xlink="http://www.w3.org/1999/xlink" xmlns:svgjs="http://svgjs.com/svgjs"><defs id="SvgjsDefs1019"></defs><g id="SvgjsG1020"><svg xmlns="http://www.w3.org/2000/svg" viewBox="0 0 36 36" width="288" height="288"><path fill="#efefef" d="M3.442 23.883c6.061 3.333 8.497 8.761 11.417 10.367 2.921 1.606 9.978 3.299 17.366-10.137s.221-19.945-2.992-21.712C14.191-5.869-7.292 17.981 3.442 23.883z" class="colorEFEFEF svgShape"></path><path fill="#a4afc1" d="M5.392 20.969c-.827 0-1.5-.673-1.5-1.5s.673-1.5 1.5-1.5 1.5.673 1.5 1.5-.673 1.5-1.5 1.5zm0-2a.5.5 0 1 0 .002 1.002.5.5 0 0 0-.002-1.002zM31.875 25.375h1v2h-1zM31.875 31.125h1v2h-1zM28.375 28.625h2v1h-2zM34.125 28.625h2v1h-2z" class="colorA4AFC1 svgShape"></path><path fill="#80eec0" d="M23.356 26.25H7.752c-.764 0-1.246-.798-.874-1.446l7.802-13.556c.382-.664 1.365-.664 1.747 0l7.802 13.556c.374.648-.108 1.446-.873 1.446z" class="color2FDF84 svgShape"></path><path fill="#f3f3f1" d="M28.359 26.25h-13.87c-.679 0-1.108-.698-.777-1.265l6.935-11.862c.34-.581 1.214-.581 1.553 0l6.935 11.862c.332.567-.097 1.265-.776 1.265z" class="colorF3F3F1 svgShape"></path><path fill="#00dc82" d="m9.129 24.804 7.551-13.12-.251-.437c-.382-.664-1.365-.664-1.747 0L6.879 24.804c-.373.648.109 1.446.874 1.446h2.25c-.765 0-1.247-.798-.874-1.446z" class="color00B871 svgShape"></path><path fill="#d5dbe1" d="m15.962 24.985 6.587-11.266-.349-.596c-.339-.581-1.214-.581-1.553 0l-6.935 11.862c-.331.567.097 1.265.777 1.265h2.25c-.68 0-1.108-.698-.777-1.265z" class="colorD5DBE1 svgShape"></path><path d="M23.356 27H7.752a1.736 1.736 0 0 1-1.522-.87 1.682 1.682 0 0 1-.002-1.7l7.803-13.556A1.735 1.735 0 0 1 15.554 10c.639 0 1.209.326 1.524.874L24.88 24.43a1.682 1.682 0 0 1-.001 1.699 1.738 1.738 0 0 1-1.523.871zm-7.802-15.5a.247.247 0 0 0-.223.122L7.528 25.178a.19.19 0 0 0 0 .2.25.25 0 0 0 .224.122h15.604a.248.248 0 0 0 .224-.122.19.19 0 0 0 0-.2l-7.802-13.556a.25.25 0 0 0-.224-.122z" fill="#000000" class="color000 svgShape"></path><path d="M28.359 27h-13.87a1.648 1.648 0 0 1-1.431-.818 1.555 1.555 0 0 1 .006-1.575L20 12.744a1.628 1.628 0 0 1 1.423-.807 1.63 1.63 0 0 1 1.424.807l6.935 11.862c.288.492.291 1.08.007 1.574-.289.507-.837.82-1.43.82zm-6.935-13.562c-.034 0-.096.008-.129.063l-6.936 11.863c.014.095.049.136.129.136h13.87c.081 0 .116-.041.13-.065l-6.936-11.933c-.031-.057-.094-.064-.128-.064z" fill="#000000" class="color000 svgShape"></path></svg></g></svg>