<svg id="SvgjsSvg1037" width="288" height="288" xmlns="http://www.w3.org/2000/svg" version="1.1" xmlns:xlink="http://www.w3.org/1999/xlink" xmlns:svgjs="http://svgjs.com/svgjs"><defs id="SvgjsDefs1038"></defs><g id="SvgjsG1039"><svg xmlns="http://www.w3.org/2000/svg" viewBox="0 0 36 36" width="288" height="288"><path fill="#efefef" d="M1.003 14.311c3.253 6.104 2.324 11.981 3.891 14.923s6.551 8.218 20.083 1.008 11.09-16.579 9.365-19.815C26.27-4.724-4.758 3.5 1.003 14.311z" class="colorEFEFEF svgShape"></path><path fill="#a4afc1" d="m7.18 9.66 1.414-1.415.707.707-1.415 1.415zM3.113 13.725l1.415-1.415.707.707-1.415 1.415zM3.113 8.775l.707-.707 1.415 1.415-.707.707zM27.657 11.143c-.827 0-1.5-.673-1.5-1.5s.673-1.5 1.5-1.5 1.5.673 1.5 1.5-.673 1.5-1.5 1.5zm0-2c-.275 0-.5.225-.5.5s.225.5.5.5.5-.225.5-.5-.224-.5-.5-.5z" class="colorA4AFC1 svgShape"></path><ellipse cx="18" cy="18" fill="#898dba" rx="11.25" ry="6.75" class="color2FDF84 svgShape"></ellipse><path fill="#898dba" d="M9 18c0-3.5 4.44-6.377 10.125-6.716-.37-.022-.745-.034-1.125-.034-6.213 0-11.25 3.022-11.25 6.75s5.037 6.75 11.25 6.75c.38 0 .755-.012 1.125-.034C13.44 24.377 9 21.5 9 18z" class="color00B871 svgShape"></path><path d="M18 25.5c-6.729 0-12-3.294-12-7.5s5.271-7.5 12-7.5 12 3.294 12 7.5-5.271 7.5-12 7.5zM18 12c-5.691 0-10.5 2.748-10.5 6s4.809 6 10.5 6 10.5-2.748 10.5-6-4.809-6-10.5-6z" fill="#000000" class="color000 svgShape"></path><path d="m12.362 22.116-1.479-.254.438-2.553v-.685h.117l.537-3.127a.75.75 0 0 1 .739-.623h1.324c.624 0 1.207.273 1.6.749.381.462.534 1.062.421 1.645l-.188.972c-.212 1.092-1.188 1.885-2.322 1.885h-.847l-.34 1.991zm.6-3.491h.589c.417 0 .774-.282.85-.67l.188-.972a.487.487 0 0 0-.105-.405.569.569 0 0 0-.442-.203h-.692l-.388 2.25zM22.265 22.116l-1.479-.254.438-2.551v-.687h.118l.537-3.127a.75.75 0 0 1 .739-.623h1.324c.623 0 1.205.272 1.598.748.382.462.535 1.062.423 1.646l-.188.972c-.21 1.092-1.187 1.885-2.322 1.885h-.847l-.341 1.991zm.599-3.491h.589c.418 0 .774-.281.85-.669l.188-.973a.491.491 0 0 0-.106-.405.568.568 0 0 0-.441-.203h-.692l-.388 2.25zM16.198 19.987l1.22-7.104 1.478.254-1.22 7.104z" fill="#000000" class="color000 svgShape"></path><path d="m20.595 20.227-1.484-.219.457-3.103-.081-.062h-2.448v-1.5h2.448c.465 0 .903.2 1.205.548.294.341.425.789.36 1.231l-.457 3.105z" fill="#000000" class="color000 svgShape"></path></svg></g></svg>