<svg id="SvgjsSvg1001" width="288" height="288" xmlns="http://www.w3.org/2000/svg" version="1.1" xmlns:xlink="http://www.w3.org/1999/xlink" xmlns:svgjs="http://svgjs.com/svgjs"><defs id="SvgjsDefs1002"></defs><g id="SvgjsG1008"><svg xmlns="http://www.w3.org/2000/svg" viewBox="0 0 36 36" width="288" height="288"><path fill="#efefef" d="M3.442 23.883c6.061 3.333 8.497 8.761 11.417 10.367 2.921 1.606 9.978 3.299 17.366-10.137s.221-19.945-2.992-21.712C14.191-5.869-7.292 17.981 3.442 23.883z" class="colorEFEFEF svgShape"></path><path fill="#a4afc1" d="m9.352 5.16 1.415-1.415.707.707-1.415 1.415zM5.286 9.225 6.701 7.81l.707.707-1.415 1.415zM5.286 4.275l.707-.707 1.415 1.415-.707.707zM32.74 23.89c-.827 0-1.5-.673-1.5-1.5s.673-1.5 1.5-1.5 1.5.673 1.5 1.5-.673 1.5-1.5 1.5zm0-2a.5.5 0 1 0 .002 1.002.5.5 0 0 0-.002-1.002z" class="colorA4AFC1 svgShape"></path><path fill="#f3f3f1" d="M19.432 6.843c-6.162-.79-11.799 3.563-12.589 9.726-.79 6.161 3.563 11.798 9.725 12.589 6.163.79 11.801-3.564 12.589-9.726.791-6.162-3.562-11.798-9.725-12.589z" class="colorF3F3F1 svgShape"></path><path fill="#f76935" d="M23.315 11.25c-.763 0-1.381.624-1.381 1.393s.619 1.393 1.381 1.393c.763 0 1.381-.624 1.381-1.393s-.618-1.393-1.381-1.393zm-1.82 3.276-.003.003a1.43 1.43 0 0 0-1.115-.493c-.485.004-.934.251-1.609.774-.676.529-3.524 3.335-3.703 3.554-.073.089-.483.534-.311.819.057.094.336.16.511.145.154-.013.821-.127.821-.127s-.136.095-.278.241l-2.985 3.075-.003.004-.882.909.01.01c-.033.034-.071.063-.092.109l-.017.038-.036.17v.006c0 .101.036.198.101.273l.054.062a.376.376 0 0 0 .292.118v.017l1.898.017a.39.39 0 0 0 .284-.12l.099-.102a.417.417 0 0 0 .109-.296h.004l.027-.63a17.814 17.814 0 0 0 3.817-2.67c.024-.022.039-.052.057-.078.034-.018.068-.036.096-.063.776-.758 1.544-1.532 2.145-2.27.596-.743 1.017-1.417 1.132-2.146.066-.417-.08-.956-.425-1.344l.002-.005z" class="color2FDF84 svgShape"></path><path fill="#d5dbe1" d="M18.818 29.157c-6.162-.791-10.516-6.428-9.725-12.589.678-5.289 4.93-9.235 10.016-9.751-6.034-.6-11.49 3.697-12.266 9.751-.79 6.161 3.563 11.798 9.725 12.589.873.112 1.733.11 2.573.025-.108-.01-.215-.011-.323-.025z" class="colorD5DBE1 svgShape"></path><path fill="#f76935" d="m14.209 24.098-.054-.062a.412.412 0 0 1-.101-.273v-.006l.036-.17.017-.038c.02-.046.058-.075.092-.109l-.01-.01.882-.909.003-.004 2.985-3.075c.141-.146.278-.241.278-.241s-.667.114-.821.127c-.175.015-.454-.051-.511-.145-.172-.285.238-.73.311-.819.179-.219 3.028-3.025 3.703-3.554.157-.121.299-.225.435-.317a1.422 1.422 0 0 0-1.076-.457c-.485.004-.934.251-1.609.774-.676.529-3.524 3.335-3.703 3.554-.073.089-.483.534-.311.819.057.094.336.16.511.145.154-.013.821-.127.821-.127s-.136.095-.278.241l-2.985 3.075-.003.004-.882.909.01.01c-.033.034-.071.063-.092.109l-.017.038-.036.17v.006c0 .101.036.198.101.273l.054.062a.376.376 0 0 0 .292.118v.017l1.898.017a.395.395 0 0 0 .197-.06.33.33 0 0 1-.137-.092z" class="color00B871 svgShape"></path><path d="M18.023 30.001c-.515 0-1.032-.033-1.551-.1-6.561-.842-11.215-6.866-10.373-13.428a11.92 11.92 0 0 1 4.566-7.968 11.935 11.935 0 0 1 8.863-2.406 11.92 11.92 0 0 1 7.968 4.566 11.92 11.92 0 0 1 2.405 8.862 11.917 11.917 0 0 1-4.564 7.968 11.915 11.915 0 0 1-7.314 2.506zM17.98 7.5c-2.31 0-4.541.757-6.398 2.192a10.425 10.425 0 0 0-3.995 6.972c-.737 5.741 3.335 11.013 9.077 11.749a10.434 10.434 0 0 0 7.756-2.105 10.42 10.42 0 0 0 3.994-6.971 10.43 10.43 0 0 0-2.104-7.755 10.421 10.421 0 0 0-6.973-3.995A10.524 10.524 0 0 0 17.98 7.5z" fill="#000000" class="color000 svgShape"></path><path d="M14.152 25h-.01l-1.897-.017a.769.769 0 0 1-.239-.041 1.083 1.083 0 0 1-.612-.352c-.239-.273-.34-.546-.34-.828 0-.052.005-.11.016-.161l.036-.171a.815.815 0 0 1 .046-.145c.05-.111.103-.192.149-.252a.798.798 0 0 1 .099-.128l.855-.881a.7.7 0 0 1 .037-.04l2.081-2.143a.903.903 0 0 1-.263-.276c-.289-.478-.168-1.038.361-1.663.252-.308 3.147-3.147 3.834-3.685.739-.572 1.341-.927 2.064-.933.65.021 1.282.267 1.713.767.459.532.679 1.274.574 1.938-.156.98-.738 1.813-1.288 2.499-.633.777-1.434 1.582-2.205 2.337a1.091 1.091 0 0 1-.111.094l-.053.059a18.427 18.427 0 0 1-3.599 2.581l-.008.204a.758.758 0 0 1-.008.082 1.135 1.135 0 0 1-.315.704l-.101.104c-.211.22-.51.347-.816.347zm-.256-1.394-.001.002.001-.002zm-.975-.117.983.009.018-.429a.75.75 0 0 1 .401-.632 16.968 16.968 0 0 0 3.613-2.518.907.907 0 0 1 .229-.213c.726-.711 1.47-1.461 2.039-2.161.602-.749.894-1.286.974-1.79.03-.192-.039-.503-.229-.724-.145-.168-.298-.251-.563-.246h-.001c-.261.002-.585.175-1.156.616-.496.389-2.377 2.22-3.206 3.051a.759.759 0 0 1 .758.463.75.75 0 0 1-.266.9c-.011.008-.088.064-.167.146l-2.986 3.075-.003-.003-.438.456z" fill="#000000" class="color000 svgShape"></path><path d="M23.315 14.786c-1.175 0-2.131-.962-2.131-2.144s.956-2.142 2.131-2.142 2.131.961 2.131 2.143-.956 2.143-2.131 2.143zm0-2.786c-.348 0-.631.288-.631.643s.283.644.631.644.631-.289.631-.644-.283-.643-.631-.643zM16.22 19.938l-.268-1.477.882-.159 4.12-4.296 1.083 1.039-4.288 4.471a.764.764 0 0 1-.408.219l-1.121.203z" fill="#000000" class="color000 svgShape"></path></svg></g></svg>