<svg id="SvgjsSvg1028" width="288" height="288" xmlns="http://www.w3.org/2000/svg" version="1.1" xmlns:xlink="http://www.w3.org/1999/xlink" xmlns:svgjs="http://svgjs.com/svgjs"><defs id="SvgjsDefs1029"></defs><g id="SvgjsG1030"><svg xmlns="http://www.w3.org/2000/svg" viewBox="0 0 36 36" width="288" height="288"><path fill="#efefef" d="M34.928 20.591c-3.693-5.848-3.199-11.778-4.979-14.596s-7.138-7.714-20.103.473-9.84 17.35-7.882 20.45c9.166 14.515 39.504 4.031 32.964-6.327z" class="colorEFEFEF svgShape"></path><path fill="#a4afc1" d="M19.933 3.812h2v1h-2zM14.183 3.812h2v1h-2zM17.683.312h1v2h-1zM27.261 28.047c-.827 0-1.5-.673-1.5-1.5s.673-1.5 1.5-1.5 1.5.673 1.5 1.5-.673 1.5-1.5 1.5zm0-2a.5.5 0 1 0 .002 1.002.5.5 0 0 0-.002-1.002z" class="colorA4AFC1 svgShape"></path><path fill="#f3f3f1" d="m28.049 20.917.004-.004-.006.004h.001z" class="colorF3F3F1 svgShape"></path><path fill="#f3f3f1" d="m28.049 20.917.004-.004-.006.004h.001z" class="colorF3F3F1 svgShape"></path><path fill="#33648f" d="M13.494 16.345c.135-.946.156-1.818.135-2.501-.01-.628-.031-1.161-.031-1.165h-.001s.157-1.561.514-2.528c.3-.814.758-1.61 1.44-2.191.103-.087.22-.161.334-.238l.001-.017c-.677-.21-1.892-.566-3.173-.618-.125-.011-.271-.011-.417-.011-.135 0-.281 0-.417.011-1.103.062-2.145.357-2.884 1.103-.75.746-1.24 1.965-1.135 3.983.021.378.198 1.45.51 2.722.302 1.272.729 2.764 1.239 4.088.521 1.314 1.146 2.47 1.739 3.016.292.273.552.378.792.368.229-.01.521-.136.864-.525.51-.568 1.504-1.628 1.994-2.164l.002-.019c-1.03-.686-1.715-1.936-1.506-3.314z" class="color2FDF84 svgShape"></path><path fill="#f3f3f1" d="M17.852 15.373c-2.988-1.162-3.207-2.983-3.22-3.129a5.173 5.173 0 0 0-.133.043l-.875.379-.026.013c0 .004.021.537.031 1.165.021.683 0 1.555-.135 2.501-.312 2.06 1.354 3.865 3.219 3.865.097-.363.213-.718.324-.994.279-.765.925-1.749.815-3.843zm7.306 1.855c.021-1.114-.208-2.123-.187-2.753.026-.725.039-1.278-.024-2.019-.51 1.055-1.448 2.027-2.791 2.584.212.796.579 1.604.923 2.277.181.354.354.669.491.922l-.022-.041c.093.163.181.329.286.548l.011.031c.174.411.404.792.674 1.125l-.009-.012c.085.108.168.22.259.353l.004.001c-.052-.053.344-1.608.385-3.016z" class="colorF3F3F1 svgShape"></path><path fill="#33648f" d="M27.991 9.02c-1.625-1.797-3.833-2.26-5.676-2.27h-.177c-.708.01-1.396.368-2.062.494l.01.01c1.66.443 2.829 1.46 3.62 2.491a8.308 8.308 0 0 1 1.078 1.863c.061.147.082.239.118.349h-.004c.124 1.027.104 1.637.073 2.518-.021.63.208 1.639.187 2.753-.042 1.408-.437 2.964-.385 3.016 1.521-2.081 2.5-4.96 3.083-6.915.312-1.062.479-2.018.49-2.775.01-.756-.146-1.303-.355-1.534zm.203 11.757c-.279-.31-1.087.296-2.392.234-.719-.034-1.135-.261-1.213-.331h-.499c-.053.062-.111.114-.153.192-.142.266-.208.615-.187 1.069-.011.144-.041.438-.082.814l.003.003c.546.334 2.49.008 2.846-.167 1.616-.467 2.023-1.43 1.677-1.814zm-10 1.23c.003-.129.005-.268.009-.389v-.013a.338.338 0 0 0-.021-.121 1.427 1.427 0 0 0-.073-.298c-.131-.357-.373-.671-.724-.82 0 0-1.131 1.264-1.913 1.643s-1.442.344-1.569.666c-.127.321.198.889 2.223.674 1.621-.172 2.066-1.34 2.066-1.34l.002-.002z" class="color2FDF84 svgShape"></path><path fill="#f3f3f1" d="M18.301 7.021v-.002c-1.216.003-2.088.378-2.75.941-.682.581-1.14 1.377-1.44 2.191-.357.967-.514 2.529-.514 2.529.367-.21.85-.42 1.366-.542.517-.122 1.073-.159 1.577.041s.921.67 1.072 1.382c.724 3.423-.225 4.696-.575 5.656a9.096 9.096 0 0 0-.324.994s.111-.027.156-.027c.267.002.401.133.516.183.352.149.594.462.724.82.034.094.059.194.073.299a.361.361 0 0 1 .021.121v.013a56.006 56.006 0 0 0 .015 3.956c.024.553.058 1.042.101 1.428.044.393.107.69.147.791.132.336.324.777.672 1.076.348.299.847.498 1.758.299.79-.173 1.278-.414 1.604-.76.326-.346.519-.827.644-1.564.186-1.104.561-4.304.606-4.906-.021-.454.045-.803.187-1.069a1.23 1.23 0 0 1 .568-.531 1.94 1.94 0 0 1 .264-.098 6.977 6.977 0 0 0-.259-.353l.009.012a4.718 4.718 0 0 1-.674-1.125l-.011-.03a8.105 8.105 0 0 0-.286-.549l.022.041c-.137-.252-.31-.568-.491-.922-.362-.709-.756-1.569-.961-2.407-.204-.836-.234-1.702.289-2.313.463-.542 1.276-.767 2.496-.641-.036-.11-.058-.202-.118-.349a8.33 8.33 0 0 0-1.078-1.863C22.672 8.398 21 7.064 18.42 7.021h-.119z" class="colorF3F3F1 svgShape"></path><path fill="#d5dbe1" d="m28.049 20.917.004-.004-.006.004h.001z" class="colorD5DBE1 svgShape"></path><path fill="#d5dbe1" d="m28.049 20.917.004-.004-.006.004h.001z" class="colorD5DBE1 svgShape"></path><path fill="#33648f" d="M11.859 18.983c-.51-1.324-.937-2.817-1.239-4.088-.312-1.272-.49-2.344-.51-2.722-.104-2.018.385-3.237 1.135-3.983.594-.6 1.387-.899 2.247-1.03a8.937 8.937 0 0 0-.779-.074c-.125-.011-.271-.011-.417-.011-.135 0-.281 0-.417.011-1.103.063-2.145.358-2.884 1.104-.75.746-1.24 1.965-1.135 3.983.021.378.198 1.45.51 2.722.302 1.272.729 2.764 1.239 4.088.521 1.314 1.146 2.47 1.739 3.016.292.273.552.378.792.368.229-.01.521-.136.864-.525l.23-.252c-.478-.619-.959-1.56-1.375-2.607z" class="color00B871 svgShape"></path><path fill="#d5dbe1" d="M15.744 16.345c.11-.772.143-1.489.14-2.1-1.126-.955-1.244-1.898-1.253-2.001a5.173 5.173 0 0 0-.133.043l-.875.379-.026.013c0 .004.021.537.031 1.165.021.683 0 1.555-.135 2.501-.312 2.06 1.354 3.865 3.219 3.865a9.62 9.62 0 0 1 .241-.764c-.859-.717-1.397-1.859-1.209-3.101z" class="colorD5DBE1 svgShape"></path><path fill="#33648f" d="M27.221 14.474c.031-.882.052-1.491-.073-2.518h.004c-.036-.11-.058-.202-.118-.349a8.33 8.33 0 0 0-1.078-1.863c-.792-1.031-1.961-2.049-3.62-2.491l-.01-.01c.454-.086.918-.273 1.391-.391-.48-.069-.952-.1-1.402-.103h-.177c-.708.01-1.396.368-2.062.494l.01.01c1.66.443 2.829 1.46 3.62 2.491a8.308 8.308 0 0 1 1.078 1.863c.061.147.082.239.118.349h-.004c.124 1.027.104 1.637.073 2.518-.021.63.208 1.639.187 2.753-.042 1.408-.437 2.964-.385 3.016 1.092-1.494 1.9-3.396 2.488-5.076a5.458 5.458 0 0 1-.04-.693zM26 21.94c-.018-.388.04-.685.142-.933-.111.004-.221.009-.34.004-.719-.034-1.135-.261-1.213-.331h-.499c-.053.062-.111.114-.153.192-.142.266-.208.615-.187 1.069-.011.144-.041.438-.082.814l.003.003c.396.242 1.52.137 2.247-.006.041-.375.071-.669.082-.812z" class="color00B871 svgShape"></path><path fill="#d5dbe1" d="M21.388 28.871c-.348-.3-.54-.74-.672-1.076-.04-.101-.103-.398-.147-.791a21.373 21.373 0 0 1-.101-1.428 59.171 59.171 0 0 1-.015-3.956v-.013a.338.338 0 0 0-.021-.121 1.427 1.427 0 0 0-.073-.298c-.131-.357-.373-.671-.724-.82-.115-.05-.249-.181-.516-.183-.044 0-.156.026-.156.026.097-.363.213-.718.324-.994.35-.96 1.299-2.233.575-5.656-.151-.713-.568-1.182-1.072-1.382-.504-.2-1.061-.163-1.577-.041-.165.039-.317.098-.473.152.41.236.742.657.872 1.271.724 3.423-.225 4.696-.575 5.656a9.096 9.096 0 0 0-.324.994s.111-.027.156-.026c.267.002.401.133.516.183.352.149.594.462.724.82.034.094.059.194.073.298a.361.361 0 0 1 .021.121v.013a56.006 56.006 0 0 0 .015 3.956c.024.553.058 1.042.101 1.428.044.393.107.69.147.791.132.336.324.777.672 1.076.348.299.847.498 1.758.299.249-.055.459-.119.653-.188-.054-.037-.114-.07-.161-.111zm-5.027-18.72c.3-.814.758-1.61 1.44-2.191a3.852 3.852 0 0 1 1.725-.826 7.017 7.017 0 0 0-1.107-.113h-.118v-.002c-1.216.003-2.088.378-2.75.941-.682.581-1.14 1.377-1.44 2.191-.357.967-.514 2.528-.514 2.528.367-.21.85-.42 1.366-.542a3.23 3.23 0 0 1 .965-.086c.08-.542.22-1.324.433-1.9z" class="colorD5DBE1 svgShape"></path><path d="M24.45 23.653c-.495 0-.959-.068-1.267-.257l.783-1.279c.327.132 1.803-.068 2.134-.205.026-.011.085-.035.113-.043.179-.052.335-.108.469-.168a4.733 4.733 0 0 1-1.012.059c-.799-.038-1.418-.289-1.678-.521l.5-.559.449-.599c.002.001.265.155.8.181.547.023 1.003-.094 1.371-.19.49-.128 1.1-.288 1.543.204.288.32.379.766.249 1.221-.227.795-1.043 1.451-2.241 1.805-.371.138-1.34.351-2.213.351zm-12.433-.536c-.444 0-.872-.191-1.277-.571-.808-.744-1.492-2.199-1.923-3.287-.466-1.21-.917-2.695-1.271-4.191-.315-1.281-.505-2.407-.53-2.854-.105-2.025.35-3.557 1.354-4.556.785-.792 1.92-1.237 3.372-1.321.294-.02.66-.021.935.001 1.28.053 2.519.396 3.336.649l-.444 1.434c-.47-.146-1.718-.533-2.981-.586-.135-.009-.26-.008-.386-.009-.116-.002-.245 0-.362.008-1.096.063-1.88.352-2.407.884-.692.688-1 1.837-.918 3.416.017.313.18 1.323.49 2.582.341 1.438.771 2.854 1.21 3.997.51 1.288 1.09 2.312 1.548 2.734.151.142.237.171.252.171-.005 0 .114-.025.333-.273.309-.343.784-.856 1.224-1.33l.777-.843 1.108 1.012-.786.851c-.434.468-.903.974-1.204 1.309-.433.489-.9.751-1.387.773h-.063z" fill="#000000" class="color000 svgShape"></path><path d="M20.129 29.999c-.621 0-1.14-.185-1.576-.559-.458-.395-.703-.915-.882-1.371-.104-.264-.17-.773-.194-.981a22.048 22.048 0 0 1-.105-1.48 61.138 61.138 0 0 1-.017-3.955.785.785 0 0 1-.012-.067.76.76 0 0 0-.035-.146c-.04-.108-.135-.308-.312-.383a1.617 1.617 0 0 1-.179-.094.779.779 0 0 1-.924-.947c.103-.385.228-.769.352-1.079.049-.137.121-.303.2-.483.381-.872.903-2.066.337-4.738-.089-.42-.308-.719-.615-.841-.287-.114-.666-.115-1.127-.008-.53.125-.958.344-1.166.463a.75.75 0 0 1-1.119-.726c.007-.067.171-1.668.557-2.714.389-1.055.947-1.896 1.658-2.502.87-.739 1.958-1.116 3.234-1.119l.002.002h.118c2.368.039 4.397 1.083 5.882 3.017a9.084 9.084 0 0 1 1.174 2.027c.058.139.087.236.117.332.074.24.036.546-.124.74s-.385.342-.642.314c-.926-.098-1.551.032-1.848.382-.275.322-.319.876-.131 1.648.202.824.61 1.676.9 2.244.149.292.294.559.416.783l.029.055.008.013c.101.177.197.357.311.597.167.395.352.706.574.984l.013.016.001.002c.095.12.187.244.289.393a.752.752 0 0 1-.413 1.146 1.094 1.094 0 0 0-.157.059.473.473 0 0 0-.22.203c-.078.146-.112.382-.099.681-.05.735-.428 3.953-.615 5.064-.152.898-.411 1.501-.839 1.954-.443.471-1.057.772-1.988.978a3.962 3.962 0 0 1-.833.096zm-1.31-8.68c.024.092.037.188.037.287a58.752 58.752 0 0 0 .015 3.941c.022.528.056 1 .097 1.373.042.371.092.576.104.611.07.177.223.566.459.771.113.097.351.301 1.108.135.8-.177 1.078-.394 1.218-.542.213-.226.352-.587.451-1.175.178-1.053.552-4.227.598-4.837-.027-.493.062-.97.273-1.365.101-.189.234-.361.392-.508-.2-.294-.372-.61-.513-.942a6.239 6.239 0 0 0-.215-.422c-.01-.017-.021-.033-.03-.051h.001a.04.04 0 0 0-.005-.009h-.001a.695.695 0 0 1-.049-.116l-.012.004c-.126-.234-.276-.511-.433-.815-.325-.637-.784-1.594-1.022-2.571-.309-1.269-.158-2.27.448-2.978.441-.518 1.085-.822 1.922-.91a7.213 7.213 0 0 0-.647-.997c-1.214-1.582-2.796-2.4-4.705-2.432h-.105c-.924.001-1.665.249-2.265.76-.512.437-.923 1.068-1.223 1.879-.114.31-.207.695-.279 1.064.086-.025.171-.047.256-.067.762-.18 1.444-.155 2.024.073.778.309 1.336 1.01 1.53 1.924.665 3.144.005 4.652-.431 5.65-.065.149-.126.287-.174.418-.025.062-.05.128-.074.195l.006.003c.521.226.925.67 1.14 1.258.049.129.082.259.104.391zm-1.436.428v.002-.002z" fill="#000000" class="color000 svgShape"></path><path d="M16.617 20.96c-1.126 0-2.219-.52-2.997-1.424a4.12 4.12 0 0 1-.964-3.304 13.75 13.75 0 0 0 .127-2.365c-.01-.631-.031-1.158-.031-1.161l1.499-.059s.021.544.032 1.185c.027.882-.021 1.767-.143 2.619a2.622 2.622 0 0 0 .617 2.106c.493.573 1.17.902 1.859.902v1.501zm8.06.034a.75.75 0 0 1-.533-.222c-.293-.296-.242-.579-.13-1.198.102-.564.273-1.51.298-2.369.01-.565-.052-1.123-.107-1.614-.049-.434-.091-.809-.08-1.141.03-.863.051-1.432-.068-2.408l1.489-.18c.132 1.092.109 1.74.078 2.639-.007.222.029.546.071.922.04.353.086.764.107 1.205a34.106 34.106 0 0 0 1.239-3.514c.29-.986.449-1.876.458-2.569.009-.643-.121-.968-.167-1.031-1.195-1.32-2.919-2.001-5.117-2.014h-.172c-.311.005-.668.119-1.046.24a7.309 7.309 0 0 1-.876.241l-.278-1.475c.229-.043.462-.119.697-.195.443-.141.947-.302 1.491-.311h.188c2.641.016 4.736.862 6.232 2.517.494.549.555 1.519.548 2.048-.011.829-.191 1.857-.52 2.977-.942 3.153-1.987 5.489-3.197 7.146a.748.748 0 0 1-.549.306h-.056z" fill="#000000" class="color000 svgShape"></path><path d="M15.221 24.146c-.971.001-1.614-.221-1.956-.67a1.102 1.102 0 0 1-.156-1.076c.211-.531.714-.67 1.159-.793.237-.065.506-.14.781-.272.473-.229 1.282-1.021 1.681-1.468l1.118 1c-.12.134-1.146 1.267-2.012 1.748l.115-.012c1.094-.116 1.417-.797 1.449-.874l1.396.547c-.024.065-.632 1.602-2.687 1.819a8.24 8.24 0 0 1-.888.051zM17.497 16.077c-3.538-1.37-3.706-3.708-3.711-3.807l1.498-.082-.749.041.748-.058c.006.062.181 1.51 2.756 2.507l-.542 1.399zM22.374 16.092l-.458-1.428c1.447-.464 2.172-1.701 2.142-2.685l1.499-.047c.048 1.545-1.029 3.469-3.183 4.16z" fill="#000000" class="color000 svgShape"></path></svg></g></svg>