<svg id="SvgjsSvg1019" width="288" height="288" xmlns="http://www.w3.org/2000/svg" version="1.1" xmlns:xlink="http://www.w3.org/1999/xlink" xmlns:svgjs="http://svgjs.com/svgjs"><defs id="SvgjsDefs1020"></defs><g id="SvgjsG1021"><svg xmlns="http://www.w3.org/2000/svg" viewBox="0 0 36 36" width="288" height="288"><path fill="#efefef" d="M8.114 5.564C6.309 12.241 1.61 15.891.74 19.109s-.847 10.475 13.955 14.477 19.432-4.501 20.388-8.041C39.564 8.973 11.311-6.262 8.114 5.564z" class="colorEFEFEF svgShape"></path><path fill="#a4afc1" d="m2.376 22.199.707-.707 1.414 1.414-.707.707zM6.441 26.264l.707-.707 1.415 1.415-.707.707zM2.2 26.972l1.414-1.415.707.707-1.415 1.415zM27.439 9.25c-.827 0-1.5-.673-1.5-1.5s.673-1.5 1.5-1.5 1.5.673 1.5 1.5-.673 1.5-1.5 1.5zm0-2a.5.5 0 1 0 .002 1.002.5.5 0 0 0-.002-1.002z" class="colorA4AFC1 svgShape"></path><path fill="#447dad" d="M28.867 15.02c-.39-1.62-1.07-2.77-2.67-2.77h-1.2v2.56c0 2.58-1.69 4.19-4.4 4.19h-5.489c-.78 0-2.08.25-2.11 1.94v5.23c0 1.49.92 2.61 2.4 2.86 1.84.3 3.839.29 5.489-.01 1.16-.2 1.85-.52 2.24-.98.39-.46.5-1.08.5-1.87V23h2.06c1.59 0 2.74-.58 3.18-2.4.5-2.09.52-3.39 0-5.58z" class="colorF3F3F1 svgShape"></path><path fill="#447dad" d="M19.999 25a1 1 0 1 1 0 2 1 1 0 0 1 0-2z" class="colorF3F3F1 svgShape"></path><path fill="#fbcb24" d="M20.601 6.97c-1.84-.3-3.839-.29-5.489.01-1.16.2-1.85.52-2.24.98-.39.46-.5 1.08-.5 1.87V13h-2.06c-1.59 0-2.74.58-3.18 2.4-.5 2.09-.52 3.39 0 5.58.39 1.62 1.07 2.77 2.67 2.77h1.2v-2.56c0-2.58 1.69-4.19 4.4-4.19h5.489c.78 0 2.08-.25 2.11-1.94V9.83c0-1.49-.92-2.61-2.4-2.86z" class="color2FDF84 svgShape"></path><path fill="#fbcb24" d="M16.001 11a1 1 0 1 1 0-2 1 1 0 0 1 0 2z" class="color2FDF84 svgShape"></path><path fill="#d5dbe1" d="M19.999 25a1 1 0 1 1 0 2 1 1 0 0 1 0-2z" class="colorD5DBE1 svgShape"></path><path fill="#fbcb24" d="M16.001 11a1 1 0 1 1 0-2 1 1 0 0 1 0 2z" class="color00B871 svgShape"></path><path fill="#d5dbe1" d="M27.248 14.81v-2.347a2.479 2.479 0 0 0-1.05-.213h-1.2v2.56c0 2.58-1.69 4.19-4.4 4.19h2.25c2.71 0 4.4-1.61 4.4-4.19zm-9.599 14.22c-1.48-.25-2.4-1.37-2.4-2.86v-5.23c.03-1.69 1.33-1.94 2.11-1.94h-2.25c-.78 0-2.08.25-2.11 1.94v5.23c0 1.49.92 2.61 2.4 2.86 1.268.207 2.605.256 3.858.175a17.035 17.035 0 0 1-1.608-.175zm4.6-4.03a1 1 0 1 1 0 2 1 1 0 0 1 0-2z" class="colorD5DBE1 svgShape"></path><path fill="#fbcb24" d="M9.383 20.98c-.52-2.19-.5-3.49 0-5.58.44-1.82 1.59-2.4 3.18-2.4h2.06V9.83c0-.79.11-1.41.5-1.87.39-.46 1.08-.78 2.24-.98a14.6 14.6 0 0 1 1.632-.185c-1.349-.089-2.704-.029-3.882.185-1.16.2-1.85.52-2.24.98-.39.46-.5 1.08-.5 1.87V13h-2.06c-1.59 0-2.74.58-3.18 2.4-.5 2.09-.52 3.39 0 5.58.39 1.62 1.07 2.77 2.67 2.77h1.2v-.213c-.876-.403-1.33-1.348-1.62-2.557z" class="color00B871 svgShape"></path><path d="M13.75 23.5h-1.5v-2.56c.03-1.689 1.099-2.69 2.859-2.69h5.49c2.285 0 3.649-1.286 3.649-3.44v-2.56h1.5v2.5c0 3.061-2.021 5-5.149 5h-5.49c-1.179 0-1.349.608-1.359 1.204V23.5z" fill="#000000" class="color000 svgShape"></path><path d="M18.169 30c-.966 0-1.952-.076-2.891-.229-1.842-.312-3.029-1.725-3.029-3.601v-5.23h1.5v5.229c0 1.141.663 1.933 1.774 2.121 1.737.282 3.645.279 5.229-.01.937-.16 1.524-.397 1.802-.726.226-.267.322-.681.322-1.386v-2.42h-4.129v-1.5h4.879a.75.75 0 0 1 .75.75v3.17c0 .725-.077 1.646-.678 2.355-.522.616-1.375 1.009-2.685 1.233-.879.163-1.851.244-2.844.244z" fill="#000000" class="color000 svgShape"></path><path d="M25.688 23.75h-2.06v-1.5h2.06c1.446 0 2.133-.512 2.451-1.826.483-2.019.483-3.192-.001-5.231C27.7 13.373 27.045 13 26.198 13h-.45v1.75l-1.5.06v-2.56a.75.75 0 0 1 .75-.75h1.2c2.325 0 3.053 1.908 3.399 3.344.535 2.256.535 3.696 0 5.931-.477 1.974-1.792 2.975-3.909 2.975zm-5.689 4a1.75 1.75 0 1 1 1.75-1.752 1.763 1.763 0 0 1-1.75 1.752zm0-2a.249.249 0 0 0-.25.248c0 .273.497.276.5-.007a.248.248 0 0 0-.25-.241zM11.752 23.75h-1.5v-2.5c0-3.061 2.021-5 5.149-5h5.49c1.179 0 1.349-.608 1.359-1.203V12.5h1.5v2.561c-.03 1.689-1.099 2.689-2.859 2.689h-5.49c-2.285 0-3.649 1.286-3.649 3.44v2.56z" fill="#000000" class="color000 svgShape"></path><path d="M23.75 15.061h-1.5V9.83c0-1.141-.663-1.933-1.774-2.121-1.737-.283-3.645-.28-5.229.01-.937.16-1.524.397-1.802.726-.226.267-.322.681-.322 1.386v2.42h4.129v1.5h-4.879a.75.75 0 0 1-.75-.75V9.83c0-.725.077-1.646.678-2.355.522-.616 1.375-1.009 2.685-1.233 1.74-.316 3.833-.323 5.737-.012 1.842.312 3.029 1.725 3.029 3.601v5.23z" fill="#000000" class="color000 svgShape"></path><path d="M11.002 24.5h-1.2c-2.325 0-3.053-1.908-3.399-3.344-.535-2.256-.535-3.696 0-5.931.478-1.975 1.792-2.976 3.909-2.976h2.06v1.5h-2.06c-1.446 0-2.133.512-2.451 1.826-.483 2.019-.483 3.192.001 5.231C8.3 22.627 8.955 23 9.802 23h.45v-1.75l1.5-.06v2.56a.75.75 0 0 1-.75.75zm4.999-12.75a1.75 1.75 0 0 1-1.75-1.748 1.762 1.762 0 0 1 1.75-1.752 1.75 1.75 0 0 1 0 3.5zm0-2a.253.253 0 0 0-.25.259c0 .26.5.267.5-.007a.257.257 0 0 0-.25-.252z" fill="#000000" class="color000 svgShape"></path></svg></g></svg>