<svg id="SvgjsSvg1048" width="288" height="288" xmlns="http://www.w3.org/2000/svg" version="1.1" xmlns:xlink="http://www.w3.org/1999/xlink" xmlns:svgjs="http://svgjs.com/svgjs"><defs id="SvgjsDefs1049"></defs><g id="SvgjsG1050"><svg xmlns="http://www.w3.org/2000/svg" viewBox="0 0 36 36" width="288" height="288"><path fill="#efefef" d="M27.417 3.914C20.502 4.043 15.685.549 12.353.612S2.057 2.721 2.344 18.052s9.744 17.404 13.41 17.336c17.163-.321 23.911-31.703 11.663-31.474z" class="colorEFEFEF svgShape"></path><path fill="#a4afc1" d="m10.52 4.734 1.414-1.414.707.707-1.414 1.414zM6.454 8.8 7.87 7.385l.707.707L7.16 9.507zM6.454 3.848l.708-.706 1.413 1.414-.707.707zM30.25 11.994c-.827 0-1.5-.673-1.5-1.5s.673-1.5 1.5-1.5 1.5.673 1.5 1.5-.673 1.5-1.5 1.5zm0-2a.5.5 0 1 0 .002 1.002.5.5 0 0 0-.002-1.002z" class="colorA4AFC1 svgShape"></path><path fill="#f3f3f1" d="M20.017 13.681c-.655-.046-1.327-.074-2.017-.074s-1.362.028-2.017.074a29.199 29.199 0 0 0-2.91 5.38c.216.422.441.846.685 1.27.381.663.778 1.294 1.184 1.893a27.755 27.755 0 0 0 6.116 0c.406-.598.803-1.229 1.184-1.893.244-.424.469-.848.685-1.27a28.76 28.76 0 0 0-1.663-3.393c-.4-.697-.819-1.361-1.247-1.987z" class="colorF3F3F1 svgShape"></path><path fill="#61dafb" d="M20.017 13.681c-.655-.046-1.327-.074-2.017-.074s-1.362.028-2.017.074a29.199 29.199 0 0 0-2.91 5.38c.216.422.441.846.685 1.27.381.663.778 1.294 1.184 1.893a27.755 27.755 0 0 0 6.116 0c.406-.598.803-1.229 1.184-1.893.244-.424.469-.848.685-1.27a28.76 28.76 0 0 0-1.663-3.393c-.4-.697-.819-1.361-1.247-1.987z" class="color2FDF84 svgShape"></path><path fill="#f3f3f1" d="M11.24 14.495c-2.722.802-4.49 2.071-4.49 3.505 0 1.588 2.166 2.975 5.4 3.747.231-.854.542-1.756.923-2.686-.811-1.583-1.428-3.138-1.833-4.566zM29.25 18c0-1.434-1.768-2.703-4.49-3.505-.406 1.428-1.023 2.983-1.833 4.567.381.929.692 1.832.923 2.686 3.234-.773 5.4-2.16 5.4-3.748zm-4.49-3.505c.892-3.138.77-5.657-.545-6.474-1.409-.875-3.822.43-6.216 3.085a24.667 24.667 0 0 1 2.017 2.575c1.76.125 3.372.41 4.744.814zm-9.818 7.729c-.994-.11-1.93-.271-2.792-.477-.817 3.025-.669 5.436.612 6.232 1.217.756 3.182-.121 5.238-2.081-1.025-.977-2.07-2.219-3.058-3.674z" class="colorF3F3F1 svgShape"></path><path fill="#f3f3f1" d="M18 25.898c2.055 1.96 4.021 2.837 5.238 2.081 1.281-.796 1.43-3.207.612-6.232-.862.206-1.797.368-2.792.477-.988 1.455-2.033 2.697-3.058 3.674zm0-14.792c-2.394-2.655-4.807-3.961-6.216-3.085-1.315.817-1.436 3.336-.545 6.474 1.372-.404 2.984-.689 4.744-.813A24.684 24.684 0 0 1 18 11.106z" class="colorF3F3F1 svgShape"></path><path fill="#61dafb" d="M17.192 22.224a29.576 29.576 0 0 1-1.184-1.893 29.294 29.294 0 0 1-.685-1.27 29.199 29.199 0 0 1 2.91-5.38c.29-.021.595-.02.892-.033-.374-.016-.74-.041-1.125-.041-.69 0-1.362.028-2.017.074a29.199 29.199 0 0 0-2.91 5.38c.216.422.441.846.685 1.27.381.663.778 1.294 1.184 1.893.974.107 1.997.169 3.058.169.382 0 .753-.017 1.125-.032a28.081 28.081 0 0 1-1.933-.137z" class="color00B871 svgShape"></path><path fill="#d5dbe1" d="M9 18c0-1.038.936-1.988 2.481-2.738-.084-.258-.17-.516-.241-.767-2.722.802-4.49 2.071-4.49 3.505 0 1.588 2.166 2.975 5.4 3.747.056-.206.13-.422.195-.633C10.286 20.319 9 19.22 9 18zm16.177 1.061a26.268 26.268 0 0 0 1.592-3.8 13.004 13.004 0 0 0-2.009-.767c-.406 1.428-1.023 2.983-1.833 4.567.381.929.692 1.832.923 2.686a16.216 16.216 0 0 0 2.055-.633 23.697 23.697 0 0 0-.728-2.053zm-2.91-5.38a24.667 24.667 0 0 0-2.017-2.575c1.388-1.539 2.776-2.605 3.977-3.075l-.011-.01c-1.409-.875-3.822.43-6.216 3.085a24.667 24.667 0 0 1 2.017 2.575c1.759.125 3.371.409 4.744.813.048-.168.081-.327.123-.492a25.544 25.544 0 0 0-2.617-.321zm-7.959 8.454a22.638 22.638 0 0 1-2.158-.388c-.817 3.025-.669 5.436.612 6.232.595.37 1.37.344 2.246-.003-1.22-.763-1.399-3.005-.7-5.841zm5.942 3.763c1.025-.977 2.07-2.219 3.058-3.674.218-.024.421-.06.634-.089-.032-.131-.056-.255-.092-.388-.862.206-1.797.368-2.792.477-.988 1.455-2.034 2.697-3.058 3.674 2.055 1.96 4.021 2.837 5.238 2.081l.004-.003c-.916-.363-1.942-1.076-2.992-2.078zM14.023 8.031c-.871-.341-1.646-.378-2.239-.01-1.315.817-1.436 3.336-.545 6.474a20.097 20.097 0 0 1 2.127-.492c-.737-2.894-.576-5.191.657-5.972z" class="colorD5DBE1 svgShape"></path><path d="M18 23.143c-5.817 0-12-1.803-12-5.143s6.183-5.143 12-5.143S30 14.66 30 18s-6.183 5.143-12 5.143zm0-8.786c-6.01 0-10.5 1.923-10.5 3.643s4.49 3.643 10.5 3.643S28.5 19.72 28.5 18s-4.49-3.643-10.5-3.643z" fill="#000000" class="color000 svgShape"></path><path d="M13.774 28.998c-.521 0-.998-.128-1.407-.383-2.838-1.762-1.232-8.178 1.719-13.319 2.488-4.336 5.716-7.546 8.223-8.178.874-.221 1.67-.129 2.303.267 2.838 1.762 1.232 8.178-1.719 13.319-2.487 4.336-5.715 7.545-8.223 8.178-.31.078-.61.116-.896.116zM23.206 8.5c-.162 0-.339.024-.531.073-1.747.44-4.679 2.92-7.289 7.469-3.071 5.352-3.709 10.38-2.229 11.3.284.177.668.206 1.145.085 1.748-.44 4.679-2.921 7.289-7.469 3.072-5.352 3.71-10.38 2.229-11.3a1.147 1.147 0 0 0-.614-.158z" fill="#000000" class="color000 svgShape"></path><path d="M22.226 28.998c-.286 0-.586-.038-.896-.116-2.508-.633-5.736-3.842-8.223-8.178-2.951-5.142-4.557-11.558-1.718-13.319.633-.396 1.428-.487 2.303-.267 2.507.632 5.735 3.842 8.223 8.178 2.951 5.142 4.557 11.558 1.719 13.319-.41.255-.886.383-1.408.383zM12.794 8.5c-.239 0-.444.053-.614.158-1.482.92-.844 5.948 2.228 11.3 2.61 4.548 5.542 7.028 7.289 7.469.477.121.86.092 1.145-.085 1.481-.92.843-5.948-2.229-11.3-2.61-4.549-5.542-7.028-7.289-7.469a2.143 2.143 0 0 0-.53-.073z" fill="#000000" class="color000 svgShape"></path><path d="M18 20.5c-1.378 0-2.5-1.121-2.5-2.5s1.122-2.5 2.5-2.5 2.5 1.121 2.5 2.5-1.122 2.5-2.5 2.5zm0-3.5a1.001 1.001 0 0 0 0 2 1.001 1.001 0 0 0 0-2z" fill="#000000" class="color000 svgShape"></path></svg></g></svg>