<svg id="SvgjsSvg1027" width="288" height="288" xmlns="http://www.w3.org/2000/svg" version="1.1" xmlns:xlink="http://www.w3.org/1999/xlink" xmlns:svgjs="http://svgjs.com/svgjs"><defs id="SvgjsDefs1028"></defs><g id="SvgjsG1029"><svg xmlns="http://www.w3.org/2000/svg" viewBox="0 0 36 36" width="288" height="288"><path fill="#efefef" d="M4.167 27.623c0-6.917-3.583-11.667-3.583-15S2.5 2.29 17.833 2.29s17.583 9.417 17.583 13.083c.001 17.167-31.249 24.5-31.249 12.25z" class="colorEFEFEF svgShape"></path><path fill="#a4afc1" d="M27.63 8.475c-.827 0-1.5-.673-1.5-1.5s.673-1.5 1.5-1.5 1.5.673 1.5 1.5-.673 1.5-1.5 1.5zm0-2c-.275 0-.5.225-.5.5s.225.5.5.5.5-.225.5-.5-.225-.5-.5-.5zM6.24 27.66l1.414-1.415.707.707-1.415 1.415zM2.173 31.724l1.414-1.414.707.707L2.88 32.43zM2.172 26.776l.707-.707 1.414 1.414-.707.707zM6.239 30.84l.707-.706 1.414 1.414-.707.707z" class="colorA4AFC1 svgShape"></path><path fill="#a02623" d="M29.247 18.93c0 .23-.276.485-.9.813-1.228.643-7.336 3.275-8.689 3.984-1.354.709-2.105.703-3.175.188-1.069-.514-7.585-3.264-8.804-3.85-.609-.293-.929-.54-.929-.773v3.966c0 .233.32.481.929.774 1.219.586 7.736 3.336 8.804 3.85 1.07.515 1.821.522 3.175-.189 1.353-.71 7.462-3.34 8.689-3.984.624-.327.9-.582.9-.812V18.93z" class="color2FDF84 svgShape"></path><path fill="#f3f3f1" d="m16.963 11.331-.545-1.014 1.701.671 1.603-.53-.434 1.048 1.634.618-2.107.221-.472 1.146-.763-1.278-2.433-.221zM9.75 13.941c0-.651 1.349-1.178 3.013-1.178 1.665 0 3.013.528 3.013 1.178s-1.349 1.178-3.013 1.178c-1.663 0-3.013-.529-3.013-1.178zM18.217 17.683l-3.934-1.646 5.637-.873zM23.055 15.241l-3.332-1.329 3.692-1.473 3.335 1.33z" class="colorF3F3F1 svgShape"></path><path fill="#f3f3f1" d="M28.333 11.986c-1.196-.441-7.266-2.972-8.476-3.418-1.21-.446-1.703-.427-3.125.086-1.422.514-7.901 3.17-9.098 3.641-.599.237-.892.456-.882.689v2.339c0 .233.32.48.93.773 1.219.586 7.735 3.337 8.804 3.851 1.07.514 1.821.521 3.175-.189 1.353-.71 7.462-3.341 8.689-3.985.624-.328.9-.582.9-.813l.001-2.307h-.008c.011-.233-.295-.439-.91-.667z" class="colorF3F3F1 svgShape"></path><path fill="#a02623" d="M28.349 15.775c-1.228.643-7.336 3.275-8.689 3.984-1.354.71-2.105.703-3.175.189-1.069-.514-7.585-3.265-8.804-3.851-.609-.293-.929-.54-.929-.773l-.002 3.967c0 .233.32.48.929.773 1.219.586 7.735 3.336 8.804 3.85 1.07.515 1.821.522 3.175-.188 1.353-.71 7.462-3.341 8.689-3.984.624-.328.9-.582.9-.813l.001-3.963c-.003.23-.279.483-.899.809z" class="color2FDF84 svgShape"></path><path fill="#8f2327" d="M18.733 27.882c-1.068-.514-7.585-3.264-8.804-3.85-.609-.293-.929-.541-.929-.774v-2.6a55.761 55.761 0 0 1-1.321-.593c-.609-.293-.929-.54-.929-.773v3.966c0 .233.32.481.929.774 1.219.586 7.736 3.336 8.804 3.85.88.424 1.55.496 2.513.114-.087-.036-.172-.07-.263-.114zm3.175-4.155c1.067-.56 5.083-2.311 7.339-3.344v-1.454c0 .23-.276.485-.9.813-1.228.643-7.336 3.275-8.689 3.984a6.587 6.587 0 0 1-.662.302c.936.393 1.673.348 2.912-.301z" class="color00B871 svgShape"></path><path fill="#d5dbe1" d="M12 13.941c0-.495.782-.917 1.888-1.091a7.226 7.226 0 0 0-1.125-.087c-1.664 0-3.013.528-3.013 1.178 0 .65 1.35 1.178 3.013 1.178.399 0 .777-.032 1.125-.087-1.105-.175-1.888-.597-1.888-1.091zM16.533 16.037l3.124-.484.263-.389-5.637.873 3.934 1.646.496-.734zM21.973 13.912l2.567-1.024-1.125-.449-3.692 1.473 3.332 1.329 1.126-.449z" class="colorD5DBE1 svgShape"></path><path fill="#d5dbe1" d="M18.735 19.948c-1.069-.514-7.585-3.265-8.804-3.851-.609-.293-.929-.54-.929-.773v-2.339c-.011-.233.283-.452.882-.689 1.197-.471 7.676-3.127 9.098-3.641.209-.076.394-.137.568-.191-.995-.329-1.525-.275-2.818.191-1.422.514-7.901 3.17-9.098 3.641-.599.237-.892.456-.882.689v2.339c0 .233.32.48.929.773 1.219.586 7.735 3.337 8.804 3.851.88.423 1.55.495 2.512.114-.086-.036-.171-.07-.262-.114z" class="colorD5DBE1 svgShape"></path><path fill="#8f2327" d="M21.91 19.76c1.067-.56 5.081-2.31 7.337-3.343v-1.45c-.003.229-.278.483-.899.809-1.228.643-7.336 3.275-8.689 3.984-.24.126-.455.221-.662.303.937.39 1.674.346 2.913-.303zm-3.177 4.155c-1.069-.514-7.585-3.264-8.804-3.85-.609-.294-.929-.54-.929-.774l.001-2.601a53.392 53.392 0 0 1-1.32-.593c-.609-.293-.929-.54-.929-.773l-.002 3.967c0 .233.32.48.929.773 1.219.586 7.735 3.336 8.804 3.85.881.424 1.55.496 2.513.115-.086-.036-.172-.07-.263-.114z" class="color00B871 svgShape"></path><path d="M17.858 29c-.552 0-1.092-.149-1.701-.442-.502-.241-2.345-1.036-4.128-1.804-1.982-.854-4.031-1.736-4.675-2.046C6.651 24.37 6 23.96 6 23.258v-2.34h1.5v2.154c.077.057.226.15.505.284.615.296 2.65 1.172 4.618 2.02 1.879.81 3.654 1.575 4.186 1.83.834.402 1.337.436 2.501-.177.713-.374 2.669-1.248 4.561-2.094 1.745-.78 3.55-1.587 4.129-1.891a2.93 2.93 0 0 0 .498-.308l.001-2.146h1.5l-.001 2.307c0 .698-.657 1.138-1.301 1.476-.621.326-2.366 1.106-4.214 1.932-1.87.836-3.805 1.701-4.476 2.053-.819.43-1.491.642-2.149.642z" fill="#000000" class="color000 svgShape"></path><path d="M17.858 25.032c-.551 0-1.092-.148-1.7-.441-.5-.24-2.327-1.027-4.096-1.789-1.996-.86-4.062-1.75-4.708-2.062C6.651 20.402 6 19.992 6 19.291v-2.339h1.5v2.153c.077.056.226.149.505.283.619.298 2.669 1.182 4.651 2.035 1.864.803 3.624 1.562 4.152 1.815.832.399 1.334.435 2.502-.176.714-.375 2.676-1.252 4.573-2.101 1.739-.778 3.538-1.582 4.115-1.885.285-.149.429-.251.498-.308l.001-2.147h1.5l-.001 2.307c0 .699-.657 1.139-1.301 1.477-.619.324-2.358 1.103-4.2 1.926-1.876.839-3.816 1.707-4.489 2.06-.819.43-1.49.641-2.148.641z" fill="#000000" class="color000 svgShape"></path><path d="M17.858 21.065c-.55 0-1.09-.148-1.698-.441-.5-.24-2.327-1.027-4.096-1.79-1.996-.86-4.062-1.75-4.708-2.062-.703-.338-1.354-.748-1.354-1.448v-2.34c-.039-.835.938-1.222 1.355-1.387.379-.149 1.285-.517 2.393-.966 2.423-.982 5.741-2.327 6.727-2.684 1.592-.574 2.272-.591 3.64-.083.618.228 2.393.953 4.271 1.722 1.779.728 3.619 1.48 4.204 1.695l.001.001c.435.16 1.305.482 1.393 1.228a.791.791 0 0 1 .014.145l-.001 2.307c0 .698-.657 1.139-1.3 1.478-.619.323-2.352 1.099-4.187 1.918-1.883.842-3.829 1.713-4.504 2.066-.82.43-1.492.641-2.15.641zM7.502 15.138c.077.056.227.149.505.283.619.298 2.669 1.182 4.651 2.036 1.864.803 3.624 1.562 4.152 1.815.832.4 1.337.433 2.502-.177.716-.376 2.685-1.256 4.588-2.107 1.733-.774 3.525-1.576 4.102-1.877a2.95 2.95 0 0 0 .497-.309l.001-1.929a3.53 3.53 0 0 0-.427-.185c-.611-.225-2.381-.948-4.253-1.714-1.784-.73-3.63-1.484-4.224-1.703-1.026-.382-1.346-.371-2.611.087-.957.346-4.26 1.685-6.672 2.662-1.113.452-2.024.821-2.404.971a3.152 3.152 0 0 0-.408.19l.001 1.957zm-.001-2.188v.045a.338.338 0 0 0 0-.045z" fill="#000000" class="color000 svgShape"></path><path d="M18.343 14.24a.751.751 0 0 1-.644-.365l-.567-.949-2.053-.187a.75.75 0 0 1-.19-1.452l1.003-.364-.136-.252a.752.752 0 0 1 .937-1.052l1.447.571 1.347-.444a.75.75 0 0 1 .928.999l-.138.333.911.345a.75.75 0 0 1-.187 1.447l-1.663.174-.302.732a.749.749 0 0 1-.693.464zm-.184-2.504c.023.028.045.06.064.092l.02.032a.75.75 0 0 1 .308-.218l-.002-.008-.195.064a.695.695 0 0 1-.195.038z" fill="#000000" class="color000 svgShape"></path><path d="M12.764 15.869C10.951 15.869 9 15.266 9 13.94c0-1.324 1.951-1.928 3.764-1.928s3.763.604 3.763 1.928c-.001 1.326-1.951 1.929-3.763 1.929zm-2.148-1.929c.313.188 1.065.429 2.147.429s1.834-.239 2.146-.429c-.312-.188-1.064-.428-2.146-.428s-1.833.24-2.147.428z" fill="#000000" class="color000 svgShape"></path><path d="M18.217 18.434a.74.74 0 0 1-.29-.059l-3.934-1.646a.749.749 0 0 1 .175-1.432l5.637-.873a.75.75 0 0 1 .736 1.161l-1.703 2.52a.752.752 0 0 1-.621.329zm-1.193-2.063.915.384.396-.587-1.311.203z" fill="#000000" class="color000 svgShape"></path><path d="M23.056 15.99a.735.735 0 0 1-.277-.054l-3.332-1.328a.75.75 0 0 1-.001-1.392l3.691-1.473a.743.743 0 0 1 .556 0l3.335 1.329a.75.75 0 0 1 0 1.392l-3.694 1.472a.731.731 0 0 1-.278.054zm-1.308-2.078 1.308.521 1.668-.664-1.309-.521-1.667.664z" fill="#000000" class="color000 svgShape"></path></svg></g></svg>