<svg id="SvgjsSvg1021" width="288" height="288" xmlns="http://www.w3.org/2000/svg" version="1.1" xmlns:xlink="http://www.w3.org/1999/xlink" xmlns:svgjs="http://svgjs.com/svgjs"><defs id="SvgjsDefs1022"></defs><g id="SvgjsG1023"><svg xmlns="http://www.w3.org/2000/svg" viewBox="0 0 36 36" width="288" height="288"><path fill="#efefef" d="M27.417 3.914C20.502 4.043 15.685.549 12.353.612S2.057 2.721 2.344 18.052s9.744 17.404 13.41 17.336c17.163-.321 23.911-31.703 11.663-31.474z" class="colorEFEFEF svgShape"></path><path fill="#a4afc1" d="M27.25 10.981c-.827 0-1.5-.673-1.5-1.5s.673-1.5 1.5-1.5 1.5.673 1.5 1.5-.673 1.5-1.5 1.5zm0-2a.5.5 0 1 0 .002 1.002.5.5 0 0 0-.002-1.002zM31.75 28.25h1v2h-1zM31.75 34h1v2h-1zM28.25 31.5h2v1h-2zM34 31.5h2v1h-2z" class="colorA4AFC1 svgShape"></path><circle cx="22.891" cy="20.935" r="1.467" fill="#6f4cb1" class="color2FDF84 svgShape"></circle><circle cx="12.573" cy="22.233" r="1.467" fill="#6f4cb1" class="color2FDF84 svgShape"></circle><circle cx="16.517" cy="15.225" r="1.467" fill="#6f4cb1" class="color2FDF84 svgShape"></circle><path d="M22.891 23.152c-1.223 0-2.217-.995-2.217-2.218s.995-2.217 2.217-2.217 2.218.994 2.218 2.217-.995 2.218-2.218 2.218zm0-2.934a.717.717 0 1 0 0 1.434.717.717 0 0 0 0-1.434z" fill="#000000" class="color000 svgShape"></path><path d="M11.497 30.017c-1.574 0-2.971-.491-3.997-1.517-2.484-2.483-1.823-7.317 1.571-11.495l1.164.945c-2.853 3.512-3.573 7.591-1.674 9.489 2.15 2.149 7.049.883 10.699-2.767a15.226 15.226 0 0 0 2.257-2.86l1.283.775a16.693 16.693 0 0 1-2.479 3.146c-2.781 2.781-6.072 4.284-8.824 4.284z" fill="#000000" class="color000 svgShape"></path><path d="M12.573 24.45a2.22 2.22 0 0 1-1.568-3.785c.837-.837 2.298-.838 3.136 0a2.221 2.221 0 0 1 0 3.136 2.2 2.2 0 0 1-1.568.649zm0-2.934a.718.718 0 0 0-.507 1.225.734.734 0 0 0 1.014 0 .72.72 0 0 0 0-1.015.708.708 0 0 0-.507-.21z" fill="#000000" class="color000 svgShape"></path><path d="M11.469 20.999a16.641 16.641 0 0 1-.47-3.978C10.999 10.841 14.121 6 18.107 6c3.512 0 6.464 3.886 7.018 9.239l-1.492.154c-.465-4.5-2.841-7.894-5.525-7.894-3.04 0-5.608 4.36-5.608 9.521 0 1.253.144 2.471.426 3.618l-1.457.361z" fill="#000000" class="color000 svgShape"></path><path d="M16.519 17.444c-.27 0-.539-.05-.798-.149a2.207 2.207 0 0 1-1.23-1.17c-.24-.541-.256-1.144-.043-1.696s.628-.99 1.169-1.23a2.202 2.202 0 0 1 1.696-.043c.553.213.99.628 1.23 1.169a2.222 2.222 0 0 1-2.024 3.119zm-.002-2.937a.715.715 0 0 0-.656 1.008.709.709 0 0 0 .398.379.717.717 0 1 0 .258-1.387z" fill="#000000" class="color000 svgShape"></path><path d="M22.506 30.002c-1.251 0-2.592-.179-3.969-.552l.392-1.447c4.368 1.183 8.386.185 9.351-2.322.514-1.333.126-2.951-1.09-4.554-1.296-1.708-3.349-3.164-5.782-4.1a15.063 15.063 0 0 0-3.529-.901l.188-1.488c1.295.163 2.601.496 3.88.989 2.689 1.035 4.975 2.666 6.438 4.593 1.542 2.032 2.002 4.163 1.296 6-.929 2.409-3.706 3.782-7.175 3.782z" fill="#000000" class="color000 svgShape"></path></svg></g></svg>