<svg id="SvgjsSvg1016" width="288" height="288" xmlns="http://www.w3.org/2000/svg" version="1.1" xmlns:xlink="http://www.w3.org/1999/xlink" xmlns:svgjs="http://svgjs.com/svgjs"><defs id="SvgjsDefs1017"></defs><g id="SvgjsG1018"><svg xmlns="http://www.w3.org/2000/svg" viewBox="0 0 36 36" width="288" height="288"><path fill="#efefef" d="M8.377 4.167c6.917 0 11.667-3.583 15-3.583S33.71 2.5 33.71 17.833s-9.417 17.583-13.083 17.583C3.46 35.417-3.873 4.167 8.377 4.167z" class="colorEFEFEF svgShape"></path><path fill="#a4afc1" d="M8.035 5.16 9.45 3.745l.707.707-1.415 1.415zM3.97 9.225 5.383 7.81l.707.707-1.415 1.415zM3.97 4.275l.706-.707 1.415 1.415-.707.707zM29.788 29.393c-.827 0-1.5-.673-1.5-1.5s.673-1.5 1.5-1.5 1.5.673 1.5 1.5-.673 1.5-1.5 1.5zm0-2c-.275 0-.5.225-.5.5s.225.5.5.5.5-.225.5-.5-.225-.5-.5-.5z" class="colorA4AFC1 svgShape"></path><circle cx="18" cy="18" r="11.25" fill="#ca6295" class="color2FDF84 svgShape"></circle><path fill="#ca6295" d="M9 18c0-5.833 4.44-10.629 10.125-11.193-.37-.037-.745-.057-1.125-.057-6.213 0-11.25 5.037-11.25 11.25S11.787 29.25 18 29.25c.38 0 .755-.02 1.125-.057C13.44 28.629 9 23.833 9 18z" class="color00B871 svgShape"></path><path d="M13.725 26.001c-.35 0-.67-.084-.935-.263-.362-.244-1.1-1.006-.13-2.806.439-.815 1.125-1.511 1.963-2.02a11.358 11.358 0 0 0-1.002-.621c-1.457-.812-2.207-2.071-2.113-3.545.148-2.331 2.401-4.761 5.607-6.048 2.881-1.155 5.787-.836 6.916.757.405.573 1.131 2.156-.899 4.47-.913 1.04-2.258 1.651-3.786 1.722-1.449.075-2.893-.374-3.684-1.123l1.031-1.09c.404.383 1.378.773 2.583.715.647-.029 1.862-.228 2.729-1.214.933-1.062 1.225-2.016.802-2.613-.621-.877-2.712-1.201-5.133-.23-2.639 1.059-4.559 3.013-4.669 4.751-.057.889.396 1.608 1.347 2.139.614.343 1.282.756 1.829 1.256.163-.046.328-.086.496-.119 1.371-.271 2.622-.054 3.428.604.556.453.873 1.028.916 1.664.08 1.149-.746 2.073-.84 2.175l-1.103-1.018c.135-.149.479-.63.446-1.059-.011-.138-.06-.35-.367-.601-.415-.338-1.174-.46-2.008-.327.06.149.104.304.135.464.152.814-.123 1.651-.816 2.487-.782.943-1.854 1.493-2.743 1.493zm1.993-3.976c-.682.345-1.337.876-1.737 1.618-.357.665-.299.915-.299.917.096.006.971-.214 1.632-1.009.597-.72.521-1.122.496-1.255a1.086 1.086 0 0 0-.092-.271z" fill="#000000" class="color000 svgShape"></path><path d="M18 30c-6.617 0-12-5.383-12-12S11.383 6 18 6s12 5.383 12 12-5.383 12-12 12zm0-22.5C12.21 7.5 7.5 12.21 7.5 18S12.21 28.5 18 28.5 28.5 23.79 28.5 18 23.79 7.5 18 7.5z" fill="#000000" class="color000 svgShape"></path></svg></g></svg>