<svg id="SvgjsSvg1001" width="288" height="288" xmlns="http://www.w3.org/2000/svg" version="1.1" xmlns:xlink="http://www.w3.org/1999/xlink" xmlns:svgjs="http://svgjs.com/svgjs"><defs id="SvgjsDefs1002"></defs><g id="SvgjsG1008"><svg xmlns="http://www.w3.org/2000/svg" viewBox="0 0 36 36" width="288" height="288"><path fill="#efefef" d="M27.417 3.914C20.502 4.043 15.685.549 12.353.612S2.057 2.721 2.344 18.052s9.744 17.404 13.41 17.336c17.163-.321 23.911-31.703 11.663-31.474z" class="colorEFEFEF svgShape"></path><path fill="#a4afc1" d="M29 9.175c-.827 0-1.5-.673-1.5-1.5s.673-1.5 1.5-1.5 1.5.673 1.5 1.5-.673 1.5-1.5 1.5zm0-2a.5.5 0 1 0 .002 1.002A.5.5 0 0 0 29 7.175zM4.184 25.375h1v2h-1zM4.184 31.125h1v2h-1zM.684 28.625h2v1h-2zM6.434 28.625h2v1h-2z" class="colorA4AFC1 svgShape"></path><path fill="#95bf47" d="M25.512 11.243c-.017-.111-.108-.184-.2-.184s-1.828-.13-1.828-.13l-1.755-1.462-.878 19.763L28 27.984s-2.468-16.629-2.488-16.741z" class="color2FDF84 svgShape"></path><path fill="#f3f3f1" d="M10.466 12.998c-.64.204-.658.222-.732.834C9.663 14.275 8 27.059 8 27.059l12.851 2.191.878-19.784c-.019 0-.057.02-.074.02-.016 0-11.097 3.476-11.189 3.512z" class="colorF3F3F1 svgShape"></path><path fill="#95bf47" d="m17.67 17.275-.018.009s-.709-.383-1.552-.383c-1.266 0-1.316.817-1.316 1.029 0 1.111 2.835 1.547 2.835 4.176 0 2.071-1.26 3.392-2.981 3.392-2.06 0-3.098-1.322-3.098-1.322l.565-1.882s1.089.962 1.995.962c.591 0 .853-.492.853-.841 0-1.461-2.323-1.528-2.323-3.933-.03-2.018 1.375-3.984 4.224-3.984 1.1 0 1.641.326 1.641.326l-.825 2.451z" class="color2FDF84 svgShape"></path><path fill="#95bf47" d="m23.913 10.96-.428-.032-1.755-1.462-.879 19.764 2.268-.395.794-17.875z" class="color00B871 svgShape"></path><path fill="#d5dbe1" d="M10.25 27.059s1.663-12.784 1.734-13.227c.074-.611.092-.63.732-.834.066-.026 5.741-1.808 8.982-2.823l.031-.709c-.019 0-.057.02-.074.02-.017 0-11.098 3.476-11.19 3.512-.64.204-.658.222-.732.834C9.663 14.275 8 27.059 8 27.059l12.851 2.191.017-.381-10.618-1.81z" class="colorD5DBE1 svgShape"></path><path fill="#95bf47" d="M17.388 17.165c.166.066.264.119.264.119l.017-.009.098-.289a1.173 1.173 0 0 0-.379.179z" class="color00B871 svgShape"></path><path fill="#95bf47" d="M14.954 22.417a.833.833 0 0 1-.054.285c.398.263.949.556 1.45.556.591 0 .853-.492.853-.841 0-1.461-2.323-1.528-2.323-3.933-.001-.062.012-.122.014-.184a.712.712 0 0 1-.112-.37c0-.123.024-.448.287-.701.371-1.224 1.327-2.253 2.881-2.597a4.276 4.276 0 0 0-1.096-.133c-2.85 0-4.254 1.966-4.224 3.984.002 2.406 2.324 2.473 2.324 3.934zm-1.164 1.761.278-.924c-.899-.022-1.962-.958-1.962-.958l-.565 1.882s1.038 1.322 3.098 1.322c.36 0 .693-.07 1.005-.181-1.229-.359-1.854-1.141-1.854-1.141z" class="color00B871 svgShape"></path><path d="m20.98 29.969-.258-1.479 6.429-1.119c-.769-5.183-2.022-13.624-2.316-15.592l-1.406-.103a.752.752 0 0 1-.424-.172l-1.755-1.463.96-1.151 1.57 1.309c.458.034 1.421.105 1.55.11.446 0 .851.353.923.818.018.098 1.909 12.844 2.488 16.747a.751.751 0 0 1-.613.85l-7.148 1.245zm3.792-18.605v.003-.003z" fill="#000000" class="color000 svgShape"></path><path d="M20.851 30a.766.766 0 0 1-.126-.011l-12.851-2.19a.75.75 0 0 1-.618-.836c.068-.522 1.666-12.802 1.738-13.25.111-.929.38-1.153 1.244-1.43v.001c.731-.237 9.661-3.068 11.197-3.494l-.005-.017c.274-.102.64-.036.841.174a.75.75 0 0 1 .207.552L21.6 29.283a.752.752 0 0 1-.749.717zM8.837 26.441l11.303 1.927.793-17.872a4177.421 4177.421 0 0 0-10.438 3.279l-.017.146c-.057.36-1.128 8.575-1.641 12.52z" fill="#000000" class="color000 svgShape"></path><path d="M14.638 26.25c-2.397 0-3.636-1.542-3.688-1.608a.746.746 0 0 1-.128-.679l.565-1.883a.752.752 0 0 1 1.214-.348c.368.322 1.076.775 1.5.775.029 0 .098 0 .103-.092 0-.263-.196-.452-.678-.854-.694-.581-1.645-1.376-1.645-3.077-.019-1.273.442-2.459 1.299-3.329.906-.919 2.177-1.405 3.675-1.405 1.271 0 1.954.388 2.027.433a.75.75 0 0 1 .324.883l-.827 2.45a.749.749 0 0 1-.375.431l-.018.009a.755.755 0 0 1-.692-.011c-.002-.001-.563-.293-1.196-.293-.566 0-.566.183-.566.28.044.099.425.386.676.576.86.65 2.159 1.634 2.159 3.6.002 2.439-1.532 4.142-3.729 4.142zm-2.25-2.284c.364.307 1.113.784 2.25.784 1.355 0 2.231-1.037 2.231-2.643 0-1.22-.795-1.821-1.564-2.403-.625-.473-1.271-.962-1.271-1.772 0-.821.541-1.78 2.066-1.78.412 0 .792.071 1.104.159l.339-1.005a4.032 4.032 0 0 0-.688-.056c-1.087 0-1.988.331-2.606.959-.573.581-.881 1.385-.868 2.265 0 1.012.513 1.44 1.107 1.937.542.453 1.215 1.017 1.215 2.007 0 .782-.6 1.591-1.603 1.591-.556 0-1.123-.238-1.576-.5l-.136.457zM13.16 12.602l-1.441-.414c.196-.683 2.003-6.655 5.159-6.159.786.123 1.417.533 1.827 1.187.79 1.265.517 2.991.345 3.55l-1.434-.441c.146-.472.241-1.635-.183-2.312-.179-.285-.428-.444-.786-.5-1.341-.219-2.862 2.914-3.487 5.089z" fill="#000000" class="color000 svgShape"></path><path d="m16.086 11.567-1.49-.17c.185-1.622 1.298-4.689 4.186-4.689 1.765 0 2.95 1.555 2.95 3.007h-1.5c0-.629-.552-1.507-1.45-1.507-2.286 0-2.692 3.326-2.696 3.359z" fill="#000000" class="color000 svgShape"></path></svg></g></svg>