<svg id="SvgjsSvg1015" width="288" height="288" xmlns="http://www.w3.org/2000/svg" version="1.1" xmlns:xlink="http://www.w3.org/1999/xlink" xmlns:svgjs="http://svgjs.com/svgjs"><defs id="SvgjsDefs1016"></defs><g id="SvgjsG1017"><svg xmlns="http://www.w3.org/2000/svg" viewBox="0 0 36 36" width="288" height="288"><path fill="#efefef" d="M8.377 31.833c6.917 0 11.667 3.583 15 3.583S33.71 33.5 33.71 18.167 24.293.583 20.627.583c-17.167 0-24.5 31.25-12.25 31.25z" class="colorEFEFEF svgShape"></path><path fill="#a4afc1" d="M19.875 3.562h2v1h-2zM14.125 3.562h2v1h-2zM17.625.062h1v2h-1zM32.71 30.409c-.827 0-1.5-.673-1.5-1.5s.673-1.5 1.5-1.5 1.5.673 1.5 1.5-.673 1.5-1.5 1.5zm0-2a.5.5 0 1 0 .002 1.002.5.5 0 0 0-.002-1.002z" class="colorA4AFC1 svgShape"></path><path fill="#1677c7" d="M6.75 18v11.25h22.5V6.75H6.75z" class="color2FDF84 svgShape"></path><path fill="#1368ad" d="M9 6.75H6.75v22.5H9V18z" class="color00B871 svgShape"></path><path d="M29.25 30H6.75a.75.75 0 0 1-.75-.75V6.75A.75.75 0 0 1 6.75 6h22.5a.75.75 0 0 1 .75.75v22.5a.75.75 0 0 1-.75.75zM7.5 28.5h21v-21h-21v21z" fill="#000000" class="color000 svgShape"></path><path d="M10.982 17h9v1.5h-9z" fill="#000000" class="color000 svgShape"></path><path d="M14.732 17.064h1.5V28h-1.5zM24.25 28c-1.289 0-2.469-.602-3.08-1.569l-.4-.635 1.269-.8.4.634c.333.528 1.044.87 1.811.87 1.084 0 2-.687 2-1.5 0-.736-.746-1.336-2.218-1.782-2.116-.643-3.282-1.785-3.282-3.218 0-1.654 1.57-3 3.5-3 .677 0 1.334.165 1.9.478l.657.362-.725 1.312-.657-.362a2.446 2.446 0 0 0-1.175-.29c-1.084 0-2 .687-2 1.5 0 .965 1.39 1.531 2.218 1.782 2.713.823 3.282 2.204 3.282 3.218 0 1.654-1.57 3-3.5 3z" fill="#000000" class="color000 svgShape"></path></svg></g></svg>