<svg id="SvgjsSvg1001" width="288" height="288" xmlns="http://www.w3.org/2000/svg" version="1.1" xmlns:xlink="http://www.w3.org/1999/xlink" xmlns:svgjs="http://svgjs.com/svgjs"><defs id="SvgjsDefs1002"></defs><g id="SvgjsG1008"><svg xmlns="http://www.w3.org/2000/svg" viewBox="0 0 36 36" width="288" height="288"><path fill="#efefef" d="M8.114 5.564C6.309 12.241 1.61 15.891.74 19.109s-.847 10.475 13.955 14.477 19.432-4.501 20.388-8.041C39.564 8.973 11.311-6.262 8.114 5.564z" class="colorEFEFEF svgShape"></path><path fill="#a4afc1" d="M25.625 3.5h2v1h-2zM19.875 3.5h2v1h-2zM23.375 0h1v2h-1zM4.078 17.084c-.827 0-1.5-.673-1.5-1.5s.673-1.5 1.5-1.5 1.5.673 1.5 1.5-.673 1.5-1.5 1.5zm0-2a.5.5 0 1 0 .002 1.002.5.5 0 0 0-.002-1.002z" class="colorA4AFC1 svgShape"></path><path fill="#3fa7ea" d="m9.068 19.358 3.291-2.481 5.891 5.414 2.875-1.395V10.27L18.25 8.875l-5.891 5.414-3.292-2.48-1.359.792 3.244 2.981-3.244 2.981 1.36.795zm9.182-6.921v6.292l-4.174-3.146 4.174-3.146z" class="color2FDF84 svgShape"></path><path fill="#f3f3f1" d="m23.75 25.172-17-1.48v.537l17 5.021 5.5-2.146V9.146l-5.5-2.396z" class="colorF3F3F1 svgShape"></path><path fill="#2e7eb2" d="m14.609 14.29 5.113-4.7-1.472-.715-4.877 4.483zM20.5 12.437l-2.25 1.696v2.901l2.25 1.695zM9.958 18.564l3.244-2.981-3.244-2.981.091-.053-.982-.74-1.359.793 3.244 2.981-3.244 2.981 1.36.794.982-.74zM14.609 16.877l-1.236.932 4.877 4.483 1.472-.715z" class="color00B871 svgShape"></path><path fill="#d5dbe1" d="M26 25.172V7.73l-2.25-.98v18.226zM9 24.229v-.342l-2.25-.196v.538l17 5.021.969-.378z" class="colorD5DBE1 svgShape"></path><path d="M18.25 23.042a.743.743 0 0 1-.507-.198l-5.431-4.991-2.792 2.104a.75.75 0 0 1-.83.049l-1.36-.794a.75.75 0 0 1-.13-1.199l2.643-2.43-2.643-2.43a.749.749 0 0 1 .13-1.2l1.359-.792a.752.752 0 0 1 .829.05l2.793 2.104 5.431-4.991a.743.743 0 0 1 .835-.123l2.875 1.396a.752.752 0 0 1 .422.675v10.626a.752.752 0 0 1-.422.675l-2.875 1.396a.767.767 0 0 1-.327.073zm-5.891-6.915c.183 0 .365.066.508.198l5.515 5.069 1.993-.968V10.74l-1.993-.968-5.515 5.068a.746.746 0 0 1-.958.047l-2.894-2.179-.049.028 2.495 2.294a.748.748 0 0 1 0 1.104l-2.496 2.294.052.03 2.892-2.181c.133-.1.292-.15.45-.15zm5.891 3.352a.751.751 0 0 1-.452-.151l-4.174-3.146a.75.75 0 0 1 .001-1.198l4.174-3.146a.75.75 0 0 1 1.201.6v6.292a.75.75 0 0 1-.75.749zm-2.928-3.896 2.178 1.642v-3.283l-2.178 1.641z" fill="#000000" class="color000 svgShape"></path><path d="M23.75 30a.765.765 0 0 1-.212-.03l-17-5.021a.751.751 0 0 1-.538-.72v-.538a.75.75 0 0 1 .815-.747L23 24.354V6.75a.749.749 0 0 1 1.049-.688l5.5 2.396a.75.75 0 0 1 .451.688v17.959a.748.748 0 0 1-.478.698l-5.5 2.146a.767.767 0 0 1-.272.051zm-12.213-5.139 12.18 3.597 4.784-1.866V9.637l-4-1.742v17.277a.75.75 0 0 1-.815.747l-12.149-1.058z" fill="#000000" class="color000 svgShape"></path></svg></g></svg>