<svg id="SvgjsSvg1089" width="288" height="288" xmlns="http://www.w3.org/2000/svg" version="1.1" xmlns:xlink="http://www.w3.org/1999/xlink" xmlns:svgjs="http://svgjs.com/svgjs"><defs id="SvgjsDefs1090"></defs><g id="SvgjsG1091"><svg xmlns="http://www.w3.org/2000/svg" viewBox="0 0 36 36" width="288" height="288"><path fill="#efefef" d="M13.411 34.999c6.298-2.859 12.105-1.559 15.14-2.936 3.035-1.378 8.617-6.016 2.28-19.978S14.99-.035 11.651 1.48c-15.632 7.095-9.395 38.582 1.76 33.519z" class="colorEFEFEF svgShape"></path><path fill="#a4afc1" d="M7.015 5.53 8.43 4.117l.707.707-1.415 1.415zM2.95 9.597l1.414-1.415.707.707-1.415 1.415zM2.95 4.647l.706-.708 1.415 1.414-.707.708zM32 12.667c-.827 0-1.5-.673-1.5-1.5s.673-1.5 1.5-1.5 1.5.673 1.5 1.5-.673 1.5-1.5 1.5zm0-2a.5.5 0 1 0 .002 1.002.5.5 0 0 0-.002-1.002z" class="colorA4AFC1 svgShape"></path><path fill="#41b883" d="M24.9 8.25h-4.241L18 12.867 15.344 8.25h-4.241v.005H6.75L18 28.25 29.25 8.256h-4.353z" class="color2FDF84 svgShape"></path><path fill="#35495e" d="M11.103 8.25h2.25v.005h-2.25zM20.25 12.867l2.659-4.617h-2.25l-1.533 2.663zM9 8.255H6.75L18 28.25l1.125-2z" class="color00B871 svgShape"></path><path d="M18 29a.75.75 0 0 1-.654-.382L6.096 8.623a.75.75 0 0 1 .654-1.118h4.268a.777.777 0 0 1 .085-.005h4.241a.75.75 0 0 1 .65.376L18 11.364l2.009-3.488a.752.752 0 0 1 .65-.376H24.9a.73.73 0 0 1 .094.006h4.256a.75.75 0 0 1 .653 1.118l-11.25 19.994A.748.748 0 0 1 18 29zM8.033 9.005 18 26.721l9.967-17.715h-3.07A.73.73 0 0 1 24.803 9h-3.71l-2.443 4.241a.75.75 0 0 1-1.3 0L14.91 9h-3.722a.808.808 0 0 1-.085.005h-3.07z" fill="#000000" class="color000 svgShape"></path></svg></g></svg>