<svg id="SvgjsSvg1018" width="288" height="288" xmlns="http://www.w3.org/2000/svg" version="1.1" xmlns:xlink="http://www.w3.org/1999/xlink" xmlns:svgjs="http://svgjs.com/svgjs"><defs id="SvgjsDefs1019"></defs><g id="SvgjsG1020"><svg xmlns="http://www.w3.org/2000/svg" viewBox="0 0 36 36" width="288" height="288"><path fill="#efefef" d="M34.904 20.355c-3.782-5.791-3.38-11.727-5.203-14.518-1.823-2.791-7.256-7.603-20.093.782s-9.572 17.5-7.566 20.569c9.388 14.372 39.561 3.423 32.862-6.833z" class="colorEFEFEF svgShape"></path><path fill="#a4afc1" d="M3.5 14.125h1v2h-1zM3.5 19.875h1v2h-1zM0 17.375h2v1H0zM30.527 28.204c-.827 0-1.5-.673-1.5-1.5s.673-1.5 1.5-1.5 1.5.673 1.5 1.5-.673 1.5-1.5 1.5zm0-2c-.275 0-.5.225-.5.5s.225.5.5.5.5-.225.5-.5-.224-.5-.5-.5z" class="colorA4AFC1 svgShape"></path><path fill="#f3f3f1" d="M28.25 23.5v-11L18 6.75 7.75 12.5v11L18 29.25z" class="colorF3F3F1 svgShape"></path><path fill="#8acff3" d="M24.25 21.5v-7L18 10.75l-6.25 3.75v7L18 25.25z" class="color2FDF84 svgShape"></path><path fill="#d5dbe1" d="M10 23.5v-11l9.125-5.119L18 6.75 7.75 12.5v11L18 29.25l1.125-.631z" class="colorD5DBE1 svgShape"></path><path fill="#1b74ba" d="M14 21.5v-7l5.125-3.075L18 10.75l-6.25 3.75v7L18 25.25l1.125-.675z" class="color00B871 svgShape"></path><path d="M18 30a.748.748 0 0 1-.367-.096l-10.25-5.75A.75.75 0 0 1 7 23.5v-11a.75.75 0 0 1 .383-.654l10.25-5.75a.755.755 0 0 1 .734 0l10.25 5.75A.75.75 0 0 1 29 12.5v11a.75.75 0 0 1-.383.654l-10.25 5.75A.748.748 0 0 1 18 30zm-9.5-6.939L18 28.39l9.5-5.329V12.939L18 7.61l-9.5 5.329v10.122z" fill="#000000" class="color000 svgShape"></path><path d="m7.389 22.841 4-2.19.72 1.317-4 2.19zM18.351 18.663l-.702-1.326 6.25-3.31 3.991-2.185.72 1.316-4 2.191z" fill="#000000" class="color000 svgShape"></path><path d="M18 26a.748.748 0 0 1-.386-.106l-6.25-3.75A.753.753 0 0 1 11 21.5v-7c0-.264.139-.508.364-.644l6.25-3.75a.746.746 0 0 1 .771 0l6.25 3.75c.226.136.365.38.365.644v7a.753.753 0 0 1-.364.644l-6.25 3.75A.748.748 0 0 1 18 26zm-5.5-4.925 5.5 3.3 5.5-3.3v-6.15l-5.5-3.3-5.5 3.3v6.15z" fill="#000000" class="color000 svgShape"></path><path d="m17.649 18.663-6.25-3.309-4.009-2.196.72-1.316 4 2.19 6.241 3.305zM23.89 21.968l.72-1.317 4 2.19-.72 1.317z" fill="#000000" class="color000 svgShape"></path><path d="M17.25 18h1.5v11.25h-1.5zM17.25 6.75h1.5v4h-1.5z" fill="#000000" class="color000 svgShape"></path></svg></g></svg>