<svg id="SvgjsSvg1108" width="288" height="288" xmlns="http://www.w3.org/2000/svg" version="1.1" xmlns:xlink="http://www.w3.org/1999/xlink" xmlns:svgjs="http://svgjs.com/svgjs"><defs id="SvgjsDefs1109"></defs><g id="SvgjsG1110"><svg xmlns="http://www.w3.org/2000/svg" viewBox="0 0 36 36" width="288" height="288"><path fill="#efefef" d="M13.411 34.999c6.298-2.859 12.105-1.559 15.14-2.936 3.035-1.378 8.617-6.016 2.28-19.978S14.99-.035 11.651 1.48c-15.632 7.095-9.395 38.582 1.76 33.519z" class="colorEFEFEF svgShape"></path><path fill="#a4afc1" d="M3.5 14.125h1v2h-1zM3.5 19.875h1v2h-1zM0 17.375h2v1H0zM31 9.067c-.827 0-1.5-.673-1.5-1.5s.673-1.5 1.5-1.5 1.5.673 1.5 1.5-.673 1.5-1.5 1.5zm0-2a.5.5 0 1 0 .002 1.002A.5.5 0 0 0 31 7.067z" class="colorA4AFC1 svgShape"></path><circle cx="18" cy="18" r="11.25" fill="#f3f3f1" class="colorF3F3F1 svgShape"></circle><path fill="#2a8ab2" d="M25.537 20.747c-.907.005-1.709.475-2.381.887-1.19.731-1.866.763-1.909.689-.088-.136.399-1.392-.147-2.885-.593-1.633-1.532-2.03-1.458-2.155.326-.542 1.128-1.403 1.448-3 .188-.971.135-2.562-.294-3.397-.078-.151-.792.261-.792.261s-.67-1.477-.854-1.597c-.603-.386-1.253 1.586-1.253 1.586s-1.374-.219-2.455.94c-.215.235-.509.361-.808.475-.084.032-.189.027-.451.726-.404 1.07.677 2.26.677 2.26-2.371 1.664-2.197 3.939-2.129 4.466-1.5 1.289-.917 2.749-.603 3.235.246.365.55.188.55.188s-.609.705-.042 1.002c.515.266 1.39.422 1.852-.042.34-.334.403-1.08.529-1.382.041-.093.088.163.514.423 0 0-.818.349-.482 1.148.11.261.504.433 1.153.427.242-.005 2.89-.146 3.592-.318.403-.093.545-.303.545-.303 2.916-.798 3.409-1.988 5.454-2.473h.001c.667-.159.62-1.187-.257-1.161z" class="color2FDF84 svgShape"></path><path fill="#d5dbe1" d="M9 18c0-5.83 4.443-10.628 10.125-11.193-.37-.037-.745-.057-1.125-.057-6.21 0-11.25 5.04-11.25 11.25S11.79 29.25 18 29.25c.38 0 .755-.02 1.125-.057C13.443 28.628 9 23.83 9 18z" class="colorD5DBE1 svgShape"></path><path fill="#2a8ab2" d="M23.498 22.323c.042.074.718.042 1.909-.689.251-.154.526-.31.812-.453-.068-.24-.286-.446-.682-.434-.718.004-1.367.3-1.94.627-.042.525-.143.88-.099.949zm-3.457-11.197.107.01.028-.082-.135.072zm-5.158 12.36a.767.767 0 0 0 .011-.046c-.078.033-.311.099-.515-.203-.314-.485-.897-1.946.603-3.235-.068-.526-.242-2.801 2.129-4.466 0 0-1.081-1.19-.677-2.26.262-.699.367-.694.451-.726.299-.114.593-.24.808-.475a2.945 2.945 0 0 1 2.302-.952c-.054-.118-.669-1.459-.845-1.574-.603-.386-1.253 1.586-1.253 1.586s-1.374-.219-2.455.939c-.215.235-.509.361-.808.475-.084.032-.189.027-.451.726-.404 1.069.677 2.26.677 2.26-2.371 1.664-2.197 3.939-2.129 4.466-1.5 1.289-.917 2.75-.603 3.235.246.365.55.188.55.188s-.609.705-.042 1.002c.515.266 1.39.422 1.852-.042a.972.972 0 0 0 .166-.25c-.044-.248.14-.53.229-.648zm2.416 1.086c-.336-.798.482-1.147.482-1.147-.425-.26-.472-.516-.514-.423-.126.303-.189 1.048-.529 1.382-.423.425-1.19.329-1.712.105.009.029.01.053.023.083.11.261.503.433 1.153.427.117-.003.804-.037 1.557-.092-.237-.074-.398-.188-.46-.335z" class="color00B871 svgShape"></path><path d="M18 30c-6.617 0-12-5.383-12-12S11.383 6 18 6s12 5.383 12 12-5.383 12-12 12zm0-22.5C12.21 7.5 7.5 12.21 7.5 18S12.21 28.5 18 28.5 28.5 23.79 28.5 18 23.79 7.5 18 7.5z" fill="#000000" class="color000 svgShape"></path><path d="M16.181 25.75c-.86 0-1.33-.258-1.586-.526-.704.358-1.634.214-2.302-.13-.339-.179-.56-.467-.626-.815a1.244 1.244 0 0 1-.004-.43 1.526 1.526 0 0 1-.156-.193c-.526-.812-.969-2.495.448-3.952-.039-.934.144-2.777 1.879-4.312-.346-.581-.694-1.473-.352-2.38.244-.65.448-1.009.889-1.163.203-.077.414-.164.519-.279a3.707 3.707 0 0 1 2.488-1.189c.261-.63.678-1.363 1.254-1.567.314-.112.642-.074.922.105.136.089.307.201.815 1.241.335-.1.501-.052.6-.021a.867.867 0 0 1 .493.402c.509.988.584 2.751.365 3.886-.266 1.328-.822 2.192-1.229 2.782.35.359.844.973 1.208 1.974.304.83.333 1.595.294 2.174.186-.086.406-.203.663-.36.642-.395 1.61-.989 2.761-.998.753.007 1.371.46 1.464 1.168a1.333 1.333 0 0 1-1.022 1.471c-.839.198-1.368.526-2.039.94-.782.483-1.664 1.029-3.201 1.473-.161.133-.406.28-.762.363-.801.197-3.565.333-3.745.338-.011-.002-.025-.002-.038-.002zm-.456-1.553c.081.025.218.044.471.053.308-.008 2.834-.152 3.42-.297a.383.383 0 0 0 .157-.062c.1-.146.198-.189.37-.236a9.976 9.976 0 0 0 1.683-.614c-.287.065-.534.078-.725.028a.847.847 0 0 1-.5-.37c-.161-.244-.118-.519-.068-.835.069-.442.197-1.265-.134-2.169-.355-.978-.835-1.416-1.093-1.651-.158-.145-.639-.582-.305-1.145.076-.126.17-.264.279-.419.36-.518.854-1.227 1.078-2.345a6.502 6.502 0 0 0-.028-2.312.751.751 0 0 1-1.005-.366 26 26 0 0 0-.4-.835 5.586 5.586 0 0 0-.312.748.743.743 0 0 1-.83.506c-.033-.003-1.008-.126-1.788.712-.286.312-.64.484-.965.615a3.98 3.98 0 0 0-.14.337c-.201.533.367 1.312.53 1.492a.747.747 0 0 1-.125 1.118c-1.959 1.375-1.885 3.222-1.816 3.755a.746.746 0 0 1-.255.665c-.994.854-.731 1.733-.547 2.106h.003a.751.751 0 0 1 .602 1.199c.298.082.588.07.679-.021.089-.097.179-.466.222-.643.048-.201.096-.378.147-.5a.802.802 0 0 1 .612-.475c.266-.036.584.133.748.337.048.06.103.128.237.21a.751.751 0 0 1-.097 1.329.4.4 0 0 0-.105.085zm-.814-10.949-.008.003.008-.003z" fill="#000000" class="color000 svgShape"></path></svg></g></svg>